<svg width="11" height="32" viewBox="0 0 11 32" fill="none" xmlns="http://www.w3.org/2000/svg">
<path d="M10.9912 16.5472C10.9607 17.812 10.8098 19.1052 10.5485 20.3864C10.0174 22.9654 8.98705 25.495 7.56778 27.7077C6.77252 28.9515 5.83359 30.1207 4.78147 31.1807C4.34611 31.6172 3.77579 31.9013 3.17354 31.9775C2.64675 32.0478 2.06628 31.9521 1.58158 31.7084C0.985133 31.4094 0.493177 30.8801 0.23051 30.2522C-0.0118408 29.6751 -0.0655395 29.0233 0.0810317 28.4088C0.204384 27.8811 0.471411 27.3982 0.858882 27.014C1.76588 26.1035 2.56404 25.0599 3.23304 23.9207C4.52606 21.7125 5.25456 19.168 5.34163 16.5487C5.35034 16.4156 5.35034 16.2751 5.35034 16.1285C5.35034 16.0015 5.35034 15.8699 5.35615 15.7338V15.7129C5.31842 14.2672 5.10944 12.8798 4.73358 11.5896C4.01814 9.09735 2.67869 6.81591 0.858882 4.98747C0.461253 4.59577 0.179715 4.074 0.0650706 3.51934C-0.0815006 2.83012 0.0273419 2.08409 0.366923 1.46963C0.718113 0.828255 1.31455 0.33788 2.00387 0.125584C2.26654 0.0403662 2.54082 0 2.81655 0C3.3593 0 3.9006 0.161465 4.36063 0.470939C4.60733 0.632404 4.81775 0.852176 5.00206 1.04504C5.03688 1.08391 5.07461 1.12128 5.10944 1.15567C6.02225 2.11549 6.84943 3.17697 7.57503 4.30872C8.30063 5.43748 8.92175 6.63949 9.41951 7.87889C10.5253 10.6193 11.071 13.6154 10.9926 16.5457L10.9912 16.5472Z" fill="#F2714A"/>
</svg>
