<svg width="240" height="285" viewBox="0 0 240 285" fill="none" xmlns="http://www.w3.org/2000/svg">
<g clip-path="url(#clip0_4001_1907)">
<path d="M130.25 92.3069C130.529 91.7797 130.814 91.2584 131.108 90.7402C133.1 87.2014 135.491 83.7513 138.214 80.4872C143.672 73.969 150.536 68.3636 158.063 64.2745C162.299 61.9674 166.828 60.1015 171.526 58.7296C173.576 58.1367 175.794 58.2264 177.771 58.9836C179.522 59.6414 181.163 60.8885 182.267 62.3997C183.637 64.2709 184.319 66.6659 184.139 68.9737C183.975 71.0946 183.101 73.1415 181.678 74.7379C180.451 76.1224 178.854 77.1252 177.059 77.6366C173.104 78.7885 169.251 80.4749 165.609 82.6495C158.6 86.838 152.713 92.8497 148.583 100.035C148.16 100.724 147.8 101.504 147.317 102.32L147.298 102.357C145.268 106.446 143.815 110.65 142.989 114.836C141.363 122.904 141.853 131.344 144.403 139.245C145.009 141.066 145.053 143.091 144.528 144.943C143.887 147.245 142.36 149.3 140.34 150.578C138.234 151.922 135.609 152.409 133.14 151.912C132.215 151.739 131.301 151.415 130.43 150.953C128.722 150.048 127.328 148.684 126.397 147.011C125.898 146.14 125.607 145.177 125.35 144.329L125.337 144.286C125.292 144.123 125.244 143.967 125.196 143.826C123.963 139.69 123.121 135.369 122.687 130.964C122.254 126.604 122.241 122.21 122.646 117.903C123.471 108.958 126.092 100.146 130.249 92.3052L130.25 92.3069ZM182.062 72.2935C182.62 71.2402 182.963 70.0767 183.055 68.8862C183.216 66.8322 182.609 64.7005 181.39 63.0367C180.406 61.6905 178.946 60.5832 177.387 59.9962C175.627 59.322 173.655 59.2414 171.832 59.7689C167.209 61.119 162.752 62.955 158.585 65.225C151.176 69.2501 144.42 74.7674 139.049 81.1814C136.369 84.3952 134.016 87.7907 132.055 91.273C127.472 99.3636 124.595 108.61 123.729 118.005C123.33 122.245 123.343 126.569 123.77 130.86C124.198 135.196 125.026 139.448 126.233 143.499C126.281 143.638 126.335 143.813 126.383 143.985L126.393 144.016C126.633 144.811 126.905 145.709 127.346 146.48C128.177 147.974 129.419 149.188 130.94 149.994C131.714 150.405 132.524 150.691 133.348 150.846C135.55 151.288 137.883 150.856 139.757 149.66C141.555 148.522 142.913 146.693 143.483 144.645C143.95 142.998 143.91 141.199 143.372 139.577C140.762 131.495 140.262 122.866 141.924 114.62C142.769 110.341 144.25 106.046 146.331 101.858L146.37 101.785C146.869 100.938 147.22 100.173 147.648 99.4761C151.861 92.1452 157.881 85.9992 165.05 81.7154C168.77 79.4936 172.709 77.7689 176.755 76.591C178.354 76.1364 179.774 75.246 180.865 74.0142C181.333 73.4888 181.736 72.9086 182.063 72.2912L182.062 72.2935Z" fill="#44ADE2"/>
<path d="M56.5933 165.877C56.7204 165.637 56.848 165.399 56.9785 165.162C59.0696 161.317 61.5287 157.678 64.2857 154.349C70.3799 146.956 78.0878 140.833 86.571 136.644C90.2135 134.835 94.1344 133.324 98.2272 132.151C106.417 129.822 115.261 129.034 123.804 129.868C128.613 130.334 133.42 131.328 138.087 132.824C140.119 133.481 141.907 134.797 143.122 136.529C144.204 138.053 144.863 139.999 144.931 141.867C145.016 144.178 144.235 146.539 142.789 148.342C141.461 150.002 139.587 151.204 137.511 151.725C135.716 152.183 133.829 152.116 132.053 151.533C128.124 150.27 123.979 149.508 119.736 149.266C111.566 148.801 103.303 150.473 95.8384 154.097C95.4474 154.273 95.0615 154.477 94.654 154.693C94.2892 154.885 93.9116 155.085 93.5057 155.275L93.4682 155.296C89.4846 157.538 85.9181 160.197 82.88 163.196C76.9963 168.952 72.6576 176.2 70.3317 184.157C69.81 185.998 68.7104 187.696 67.2352 188.931C65.4113 190.473 62.9911 191.316 60.5979 191.241C58.0962 191.172 55.6465 190.106 53.8788 188.315C53.2093 187.654 52.6328 186.877 52.1696 186.007C51.2621 184.303 50.8715 182.397 51.0405 180.496C51.1168 179.497 51.4158 178.54 51.6793 177.694L51.6936 177.651C51.7482 177.489 51.7951 177.334 51.8342 177.191C53.0553 173.336 54.6552 169.538 56.5968 165.876L56.5933 165.877ZM142.825 146.331C143.544 144.976 143.91 143.428 143.854 141.902C143.794 140.239 143.207 138.505 142.241 137.147C141.158 135.603 139.567 134.432 137.759 133.848C133.165 132.375 128.434 131.397 123.702 130.939C115.292 130.116 106.586 130.892 98.5256 133.185C94.4963 134.34 90.6351 135.828 87.0518 137.608C78.7021 141.731 71.1176 147.756 65.1169 155.034C62.4034 158.311 59.9838 161.892 57.9241 165.678C55.8451 169.499 54.138 173.477 52.8628 177.499C52.8243 177.64 52.7711 177.815 52.714 177.984L52.7046 178.016C52.4575 178.806 52.1778 179.701 52.111 180.585C51.9604 182.286 52.3082 183.985 53.1173 185.503C53.5287 186.277 54.04 186.968 54.6363 187.556C56.2148 189.156 58.3954 190.104 60.622 190.166C62.7541 190.233 64.9097 189.482 66.5363 188.108C67.8503 187.008 68.8287 185.497 69.2937 183.856C71.6718 175.718 76.1068 168.311 82.1202 162.429C85.2258 159.366 88.8689 156.649 92.947 154.353L93.0203 154.315C93.4256 154.123 93.792 153.93 94.1468 153.742C94.5708 153.518 94.9707 153.306 95.3787 153.124C102.994 149.426 111.441 147.717 119.794 148.193C124.128 148.44 128.364 149.22 132.383 150.512C133.967 151.032 135.646 151.091 137.244 150.684C139.095 150.22 140.766 149.15 141.948 147.671C142.281 147.254 142.575 146.805 142.826 146.331L142.825 146.331Z" fill="#3369FF"/>
<path d="M146.865 140.635C147.784 138.903 148.776 137.217 149.838 135.582C152.046 132.17 154.649 128.869 157.573 125.773C163.43 119.595 170.636 114.414 178.412 110.789C182.787 108.745 187.43 107.158 192.211 106.074C194.314 105.602 196.543 105.83 198.488 106.716C200.211 107.487 201.786 108.843 202.806 110.435C204.07 112.403 204.609 114.858 204.283 117.171C203.987 119.298 202.979 121.306 201.447 122.824C200.125 124.142 198.453 125.054 196.613 125.457C192.602 126.363 188.659 127.807 184.896 129.75C177.654 133.494 171.419 139.122 166.864 146.026C166.62 146.372 166.396 146.74 166.157 147.129C165.931 147.497 165.714 147.854 165.467 148.217L165.44 148.262C163.166 152.209 161.462 156.308 160.381 160.428C158.266 168.365 158.235 176.802 160.291 184.828C160.788 186.698 160.708 188.742 160.064 190.573C159.274 192.851 157.61 194.826 155.495 195.988C153.29 197.212 150.616 197.54 148.159 196.888C147.239 196.656 146.337 196.275 145.488 195.755C143.824 194.737 142.503 193.278 141.67 191.535C141.221 190.626 140.987 189.643 140.782 188.773L140.772 188.732C140.737 188.565 140.697 188.41 140.66 188.267C139.681 184.055 139.105 179.686 138.942 175.257C138.778 170.875 139.035 166.482 139.706 162.203C140.871 154.672 143.321 147.314 146.864 140.631L146.865 140.635ZM202.106 119.83C202.575 118.947 202.891 117.986 203.028 116.993C203.312 114.974 202.843 112.832 201.74 111.115C200.849 109.726 199.475 108.543 197.969 107.869C196.271 107.096 194.328 106.897 192.494 107.308C187.803 108.372 183.246 109.928 178.953 111.936C171.318 115.494 164.245 120.579 158.497 126.642C155.626 129.682 153.072 132.923 150.905 136.271L150.904 136.272C145.841 144.057 142.402 153.093 140.961 162.404C140.302 166.604 140.05 170.915 140.212 175.217C140.372 179.565 140.937 183.854 141.892 187.963C141.931 188.103 141.975 188.283 142.013 188.46L142.02 188.489C142.211 189.291 142.426 190.201 142.814 190.988C143.544 192.516 144.697 193.789 146.151 194.678C146.891 195.131 147.673 195.462 148.477 195.665C150.626 196.236 152.958 195.95 154.882 194.884C156.727 193.869 158.179 192.146 158.87 190.156C159.432 188.558 159.502 186.778 159.068 185.146C156.956 176.905 156.988 168.247 159.159 160.104C160.265 155.878 162.015 151.676 164.351 147.618L164.411 147.521C164.644 147.178 164.857 146.829 165.064 146.493C165.327 146.063 165.562 145.68 165.817 145.316C170.48 138.247 176.88 132.471 184.313 128.63C188.171 126.637 192.215 125.156 196.336 124.225C197.945 123.872 199.401 123.078 200.553 121.929C201.177 121.311 201.7 120.601 202.108 119.832L202.106 119.83Z" fill="#42C1C7"/>
<path d="M56.0098 178.041C54.4386 181.005 55.5759 184.686 58.55 186.262C61.5241 187.839 65.2088 186.715 66.78 183.752C68.3513 180.788 67.214 177.107 64.2399 175.531C61.2658 173.954 57.5811 175.078 56.0098 178.041Z" fill="#252B37"/>
<path d="M95.1221 104.271C93.5509 107.235 94.6882 110.915 97.6623 112.492C100.636 114.069 104.321 112.945 105.892 109.982C107.464 107.018 106.326 103.337 103.352 101.761C100.378 100.184 96.6934 101.308 95.1221 104.271Z" fill="#252B37"/>
<path d="M169.601 64.8211C168.029 67.7846 169.167 71.4653 172.141 73.0421C175.115 74.619 178.8 73.4949 180.371 70.5314C181.942 67.5679 180.805 63.8872 177.831 62.3104C174.857 60.7335 171.172 61.8576 169.601 64.8211Z" fill="#252B37"/>
<path d="M129.837 139.917C128.266 142.88 129.403 146.561 132.377 148.138C135.351 149.715 139.036 148.591 140.607 145.627C142.178 142.664 141.041 138.983 138.067 137.406C135.093 135.829 131.408 136.953 129.837 139.917Z" fill="#252B37"/>
<path d="M189.568 113.259C187.997 116.222 189.134 119.903 192.109 121.48C195.083 123.056 198.767 121.932 200.339 118.969C201.91 116.005 200.773 112.325 197.798 110.748C194.824 109.171 191.14 110.295 189.568 113.259Z" fill="#252B37"/>
<path d="M145.6 185.11C144.028 188.074 145.166 191.754 148.14 193.331C151.114 194.908 154.799 193.784 156.37 190.82C157.941 187.857 156.804 184.176 153.83 182.599C150.856 181.023 147.171 182.147 145.6 185.11Z" fill="#252B37"/>
<path d="M89.7381 110.041L90.4136 109.711L90.358 109.295L90.8706 109.045L91.1053 111.317L90.5505 111.589L88.898 110.009L89.4446 109.742L89.7381 110.041ZM90.4726 110.177L90.0649 110.377L90.5662 110.889L90.4715 110.177L90.4726 110.177Z" fill="#252B37"/>
<path d="M88.89 111.532L88.2565 110.352L88.7122 110.11L89.729 112L89.1947 112.285L87.91 111.565L88.4974 112.657L88.0418 112.899L87.0249 111.009L87.5041 110.753L88.8918 111.531L88.89 111.532Z" fill="#252B37"/>
<path d="M86.8557 112.524L86.2307 111.456L86.6716 111.2L87.7548 113.054L87.1788 113.387L85.9771 112.402L86.2465 113.928L85.6718 114.262L84.5886 112.409L85.0295 112.153L85.6624 113.234L85.4299 111.921L85.8327 111.687L86.8546 112.524L86.8557 112.524Z" fill="#252B37"/>
<path d="M83.389 113.628L84.0261 113.229L83.928 112.822L84.4111 112.52L84.8818 114.756L84.3588 115.084L82.5504 113.685L83.0664 113.362L83.3901 113.629L83.389 113.628ZM84.134 113.687L83.7496 113.928L84.302 114.386L84.1334 113.688L84.134 113.687Z" fill="#252B37"/>
<path d="M80.0212 115.889L80.6353 115.456L80.5151 115.055L80.9808 114.727L81.5733 116.936L81.0681 117.291L79.1851 115.991L79.6832 115.642L80.0206 115.891L80.0212 115.889ZM80.7689 115.907L80.3986 116.168L80.976 116.596L80.77 115.908L80.7689 115.907Z" fill="#252B37"/>
<path d="M79.4138 117.494L78.6057 116.425L79.0182 116.115L80.3126 117.827L79.8293 118.191L78.449 117.676L79.1974 118.666L78.7848 118.977L77.4905 117.264L77.9249 116.937L79.4144 117.493L79.4138 117.494Z" fill="#252B37"/>
<path d="M77.5584 118.786L76.7774 117.827L77.1734 117.506L78.5285 119.17L78.0115 119.589L76.6727 118.799L77.1746 120.266L76.6576 120.684L75.3025 119.02L75.6986 118.699L76.4891 119.671L76.0579 118.409L76.4197 118.117L77.5578 118.787L77.5584 118.786Z" fill="#252B37"/>
<path d="M74.3072 120.414L74.874 119.92L74.7129 119.532L75.142 119.157L75.9592 121.294L75.4946 121.7L73.4889 120.601L73.9475 120.201L74.3084 120.414L74.3072 120.414ZM75.0531 120.354L74.7115 120.653L75.3291 121.018L75.0531 120.354Z" fill="#252B37"/>
<path d="M71.3594 123.181L71.8933 122.653L71.7088 122.276L72.1136 121.875L73.063 123.955L72.6244 124.39L70.5544 123.418L70.9864 122.99L71.36 123.18L71.3594 123.181ZM72.0994 123.075L71.7776 123.394L72.4175 123.72L72.1005 123.075L72.0994 123.075Z" fill="#252B37"/>
<path d="M71.0367 124.861L70.0577 123.946L70.4109 123.57L71.979 125.037L71.5646 125.479L70.1169 125.207L71.0233 126.054L70.6701 126.43L69.102 124.962L69.473 124.567L71.0356 124.86L71.0367 124.861Z" fill="#252B37"/>
<path d="M69.4433 126.446L68.503 125.64L68.8356 125.254L70.4673 126.651L70.0341 127.155L68.5756 126.616L69.3315 127.972L68.8983 128.476L67.2666 127.079L67.5992 126.692L68.5504 127.508L67.8997 126.341L68.2026 125.989L69.4422 126.445L69.4433 126.446Z" fill="#252B37"/>
<path d="M66.554 128.628L67.0175 128.036L66.7866 127.685L67.1385 127.237L68.3407 129.185L67.9601 129.67L65.7845 128.964L66.1597 128.486L66.554 128.628ZM67.2746 128.431L66.9948 128.787L67.6708 129.031L67.2752 128.43L67.2746 128.431Z" fill="#252B37"/>
<path d="M64.1916 131.938L64.6084 131.312L64.3516 130.98L64.6676 130.506L66.0174 132.355L65.6762 132.868L63.4527 132.333L63.7903 131.826L64.194 131.936L64.1916 131.938ZM64.8944 131.686L64.6431 132.063L65.3353 132.255L64.8944 131.686Z" fill="#252B37"/>
<path d="M64.1838 133.707L63.0346 133.019L63.3 132.576L65.1417 133.68L64.8299 134.199L63.3595 134.238L64.4242 134.875L64.1587 135.318L62.3171 134.214L62.5958 133.75L64.1838 133.707Z" fill="#252B37"/>
<path d="M62.9268 135.668L61.8318 135.09L62.0708 134.64L63.9692 135.642L63.6576 136.229L62.1185 136.027L63.157 137.182L62.8454 137.77L60.947 136.767L61.186 136.317L62.2936 136.901L61.4015 135.908L61.6193 135.497L62.9279 135.669L62.9268 135.668Z" fill="#252B37"/>
<path d="M60.5725 138.526L60.8845 137.843L60.5792 137.556L60.8168 137.038L62.4383 138.654L62.1818 139.215L59.9034 139.032L60.1569 138.48L60.5736 138.527L60.5725 138.526ZM61.2278 138.167L61.0389 138.579L61.7515 138.66L61.2278 138.167Z" fill="#252B37"/>
<path d="M59.0423 142.417L59.2894 141.707L58.958 141.449L59.1462 140.912L60.9115 142.37L60.7084 142.952L58.4235 142.983L58.6235 142.409L59.0423 142.417ZM59.6618 141.998L59.5126 142.426L60.2296 142.441L59.6612 141.999L59.6618 141.998Z" fill="#252B37"/>
<path d="M59.4798 144.137L58.1937 143.762L58.3375 143.267L60.3996 143.869L60.2307 144.45L58.8186 144.861L60.0102 145.209L59.8664 145.704L57.8043 145.102L57.9557 144.582L59.4792 144.138L59.4798 144.137Z" fill="#252B37"/>
<path d="M58.7678 146.353L57.5606 146.079L57.6732 145.581L59.7665 146.058L59.6192 146.707L58.0809 146.91L59.3824 147.757L59.2363 148.406L57.143 147.929L57.2556 147.432L58.4772 147.71L57.3573 146.98L57.4596 146.527L58.7678 146.353Z" fill="#252B37"/>
<path d="M57.2429 149.728L57.3645 148.986L56.9934 148.79L57.0866 148.226L59.0758 149.362L58.9758 149.971L56.7309 150.392L56.8289 149.792L57.2429 149.728ZM57.7807 149.209L57.7064 149.656L58.4152 149.548L57.7795 149.211L57.7807 149.209Z" fill="#252B37"/>
<path d="M56.7929 153.888L56.8445 153.137L56.457 152.974L56.4958 152.405L58.5827 153.351L58.5393 153.967L56.3441 154.596L56.3856 153.989L56.7917 153.887L56.7929 153.888ZM57.2796 153.321L57.248 153.774L57.9432 153.6L57.279 153.322L57.2796 153.321Z" fill="#252B37"/>
<path d="M57.6648 155.433L56.3258 155.405L56.335 154.889L58.4814 154.936L58.4701 155.542L57.2141 156.305L58.4541 156.333L58.4449 156.848L56.2985 156.801L56.3089 156.258L57.6642 155.434L57.6648 155.433Z" fill="#252B37"/>
<path d="M57.5525 157.759L56.3156 157.8L56.2969 157.29L58.4407 157.218L58.4652 157.883L57.0306 158.472L58.5048 158.96L58.5293 159.625L56.3843 159.696L56.3656 159.186L57.617 159.145L56.3493 158.725L56.3319 158.259L57.5513 157.758L57.5525 157.759Z" fill="#252B37"/>
<path d="M56.9305 161.408L56.8638 160.66L56.4558 160.56L56.4048 159.992L58.6134 160.6L58.6685 161.216L56.6002 162.181L56.546 161.575L56.931 161.41L56.9305 161.408ZM57.3214 160.774L57.3622 161.225L58.0216 160.945L57.3225 160.774L57.3214 160.774Z" fill="#252B37"/>
<path d="M162.343 72.3868L163.383 74.2629L162.105 74.9667L161.867 74.538L162.652 74.1062L162.46 73.7584L161.803 74.1194L161.565 73.6907L162.222 73.3297L161.85 72.6588L162.343 72.3868Z" fill="#252B37"/>
<path d="M160.036 74.1546L160.683 73.7725L160.595 73.3621L161.086 73.0726L161.498 75.3203L160.967 75.6336L159.195 74.1871L159.72 73.8777L160.036 74.1534L160.036 74.1546ZM160.779 74.2329L160.389 74.463L160.929 74.9352L160.779 74.2329Z" fill="#252B37"/>
<path d="M159.017 74.3018L160.172 76.1103L159.697 76.4122L159.267 75.7398L158.599 76.1636L159.029 76.8359L158.553 77.1379L157.398 75.3294L157.873 75.0274L158.335 75.7504L159.003 75.3266L158.541 74.6037L159.017 74.3018Z" fill="#252B37"/>
<path d="M157.059 75.5533L158.268 77.3273L157.542 77.8195C157.063 78.1445 156.643 78.1148 156.385 77.7365C156.229 77.5093 156.238 77.2302 156.409 76.9657L155.521 76.5957L156.077 76.2194L156.842 76.5638L156.995 76.4607L156.592 75.8699L157.059 75.5533ZM157.258 76.8443L157.018 77.0065C156.81 77.1464 156.758 77.2764 156.855 77.417C156.951 77.5571 157.092 77.5589 157.3 77.419L157.54 77.2568L157.258 76.8443Z" fill="#252B37"/>
<path d="M154.096 77.6175L155.328 76.7356L156.582 78.4766L155.367 79.3468L155.08 78.9492L155.837 78.4075L155.657 78.1572L154.971 78.6487L154.684 78.2511L155.37 77.7596L155.156 77.4616L154.382 78.0162L154.095 77.6186L154.096 77.6175Z" fill="#252B37"/>
<path d="M153.186 78.2627C153.631 77.927 154.096 77.9469 154.414 78.3013L153.959 78.6448C153.832 78.4866 153.647 78.4646 153.46 78.6056C153.306 78.7226 153.248 78.8587 153.329 78.966C153.386 79.0397 153.5 79.0392 153.615 78.9831L153.973 78.8071C154.286 78.6531 154.588 78.6758 154.798 78.9523C155.04 79.2707 154.93 79.7062 154.547 79.996C154.14 80.3038 153.67 80.2913 153.364 79.9418L153.819 79.5983C153.948 79.7444 154.128 79.7651 154.279 79.6521C154.411 79.5514 154.439 79.4197 154.368 79.3265C154.31 79.2505 154.2 79.2621 154.097 79.3145L153.717 79.5003C153.367 79.6701 153.091 79.6423 152.904 79.3953C152.636 79.0427 152.741 78.6002 153.186 78.2645L153.186 78.2627Z" fill="#252B37"/>
<path d="M150.334 80.5635L151.731 82.193L150.622 83.1399L150.303 82.7675L150.983 82.1868L150.724 81.8842L150.155 82.3706L149.836 81.9982L150.405 81.5118L149.905 80.9279L150.334 80.5617L150.334 80.5635Z" fill="#252B37"/>
<path d="M148.425 82.759L148.983 82.2567L148.816 81.8714L149.24 81.4907L150.09 83.6141L149.631 84.0269L147.607 82.9586L148.059 82.552L148.423 82.7595L148.425 82.759ZM149.169 82.6888L148.832 82.9925L149.456 83.3494L149.17 82.6905L149.169 82.6888Z" fill="#252B37"/>
<path d="M147.454 83.1038L148.945 84.6484L148.538 85.0383L147.983 84.4634L147.414 85.011L147.969 85.586L147.563 85.9758L146.073 84.4312L146.479 84.0413L147.075 84.6584L147.644 84.1107L147.048 83.4937L147.454 83.1038Z" fill="#252B37"/>
<path d="M145.79 84.7146L147.332 86.209L146.721 86.8366C146.317 87.2514 145.899 87.3073 145.571 86.9885C145.373 86.7973 145.324 86.5214 145.438 86.2282L144.494 86.0436L144.962 85.5633L145.78 85.7471L145.908 85.615L145.396 85.1181L145.789 84.714L145.79 84.7146ZM146.245 85.941L146.044 86.1487C145.869 86.3282 145.844 86.4651 145.966 86.5839C146.087 86.7026 146.227 86.6755 146.401 86.496L146.603 86.2889L146.245 85.941Z" fill="#252B37"/>
<path d="M143.31 87.3381L144.334 86.2213L145.92 87.6689L144.911 88.7698L144.549 88.4392L145.177 87.753L144.95 87.5449L144.379 88.1666L144.018 87.8359L144.588 87.2143L144.316 86.9662L143.673 87.6676L143.311 87.3369L143.31 87.3381Z" fill="#252B37"/>
<path d="M142.561 88.1573C142.925 87.7345 143.383 87.6559 143.769 87.9363L143.397 88.3681C143.239 88.2403 143.054 88.2576 142.903 88.4348C142.777 88.5814 142.749 88.7275 142.852 88.8157C142.922 88.8765 143.034 88.851 143.135 88.7714L143.447 88.5243C143.72 88.3069 144.02 88.2653 144.283 88.4911C144.588 88.7521 144.571 89.201 144.258 89.5654C143.925 89.952 143.464 90.0392 143.091 89.7626L143.462 89.3308C143.619 89.4464 143.801 89.4284 143.923 89.2858C144.033 89.1596 144.03 89.0236 143.941 88.9474C143.868 88.8854 143.763 88.9203 143.674 88.9926L143.343 89.2543C143.038 89.4947 142.762 89.5253 142.525 89.3238C142.189 89.0361 142.199 88.5806 142.562 88.1579L142.561 88.1573Z" fill="#252B37"/>
<path d="M140.283 91.0186L142.013 92.2923L141.148 93.4651L140.753 93.174L141.284 92.4543L140.963 92.2183L140.519 92.8206L140.125 92.5296L140.569 91.9273L139.95 91.4705L140.284 91.0175L140.283 91.0186Z" fill="#252B37"/>
<path d="M138.934 93.5904L139.359 92.9708L139.107 92.6354L139.429 92.1659L140.753 94.0342L140.403 94.5435L138.187 93.9751L138.532 93.4738L138.935 93.591L138.934 93.5904ZM139.641 93.3486L139.384 93.7226L140.074 93.9245L139.641 93.3498L139.641 93.3486Z" fill="#252B37"/>
<path d="M138.076 94.1486L139.897 95.287L139.599 95.7646L138.921 95.341L138.501 96.0104L139.179 96.434L138.88 96.9116L137.059 95.7732L137.357 95.2956L138.086 95.7506L138.505 95.0812L137.777 94.6262L138.076 94.1486Z" fill="#252B37"/>
<path d="M136.827 96.1663L138.696 97.2232L138.266 97.986C137.981 98.49 137.591 98.649 137.192 98.4244C136.953 98.2888 136.836 98.0349 136.871 97.7218L135.912 97.7819L136.242 97.1981L137.08 97.1691L137.171 97.0083L136.55 96.6566L136.827 96.1663ZM137.579 97.2389L137.436 97.4909C137.313 97.7092 137.324 97.8477 137.472 97.9324C137.621 98.0171 137.748 97.9544 137.873 97.7367L138.015 97.4847L137.58 97.2395L137.579 97.2389Z" fill="#252B37"/>
<path d="M135.082 99.4039L135.773 98.0568L137.685 99.0367L137.004 100.366L136.568 100.142L136.992 99.314L136.718 99.173L136.333 99.9236L135.897 99.6998L136.282 98.9491L135.954 98.7812L135.52 99.6272L135.084 99.4034L135.082 99.4039Z" fill="#252B37"/>
<path d="M134.553 100.461C134.786 99.9547 135.205 99.7542 135.653 99.9188L135.414 100.435C135.228 100.356 135.054 100.423 134.957 100.634C134.875 100.81 134.889 100.958 135.012 101.015C135.096 101.053 135.198 100.999 135.272 100.895L135.503 100.572C135.707 100.288 135.984 100.167 136.298 100.312C136.663 100.48 136.77 100.917 136.569 101.353C136.356 101.816 135.937 102.027 135.502 101.862L135.74 101.345C135.923 101.413 136.091 101.347 136.171 101.176C136.241 101.024 136.202 100.894 136.096 100.845C136.009 100.805 135.919 100.868 135.851 100.962L135.603 101.305C135.376 101.62 135.119 101.725 134.837 101.594C134.435 101.409 134.319 100.968 134.553 100.461Z" fill="#252B37"/>
<path d="M133.343 103.4L135.361 104.136L134.862 105.506L134.401 105.338L134.707 104.497L134.333 104.361L134.078 105.064L133.617 104.896L133.872 104.192L133.151 103.93L133.343 103.4Z" fill="#252B37"/>
<path d="M132.766 106.317L132.993 105.601L132.653 105.353L132.826 104.81L134.634 106.216L134.448 106.805L132.165 106.902L132.348 106.322L132.767 106.318L132.766 106.317ZM133.371 105.881L133.235 106.313L133.953 106.306L133.371 105.881Z" fill="#252B37"/>
<path d="M132.085 107.188L134.163 107.73L134.022 108.275L133.249 108.074L133.052 108.839L133.824 109.04L133.684 109.585L131.606 109.043L131.746 108.498L132.577 108.715L132.774 107.949L131.944 107.733L132.085 107.188Z" fill="#252B37"/>
<path d="M131.5 109.516L133.603 109.949L133.428 110.807C133.312 111.375 132.992 111.646 132.544 111.554C132.274 111.498 132.084 111.291 132.022 110.983L131.129 111.336L131.263 110.679L132.051 110.393L132.088 110.213L131.389 110.068L131.501 109.517L131.5 109.516ZM132.543 110.306L132.486 110.59C132.435 110.835 132.489 110.965 132.656 110.999C132.823 111.033 132.926 110.936 132.975 110.69L133.033 110.407L132.543 110.306Z" fill="#252B37"/>
<path d="M130.846 113.142L131.08 111.646L133.201 111.983L132.971 113.458L132.486 113.381L132.63 112.462L132.326 112.413L132.195 113.246L131.711 113.169L131.841 112.336L131.479 112.278L131.331 113.218L130.847 113.141L130.846 113.142Z" fill="#252B37"/>
<path d="M130.678 114.317C130.739 113.762 131.072 113.44 131.549 113.454L131.486 114.021C131.284 114.004 131.142 114.123 131.115 114.355C131.094 114.548 131.154 114.684 131.289 114.698C131.381 114.709 131.459 114.625 131.496 114.503L131.614 114.123C131.717 113.789 131.941 113.586 132.285 113.626C132.684 113.67 132.924 114.052 132.871 114.53C132.815 115.037 132.484 115.368 132.02 115.349L132.083 114.783C132.277 114.789 132.417 114.673 132.438 114.487C132.455 114.321 132.378 114.21 132.262 114.196C132.166 114.185 132.1 114.274 132.066 114.385L131.941 114.788C131.825 115.159 131.614 115.34 131.306 115.305C130.865 115.256 130.616 114.873 130.677 114.318L130.678 114.317Z" fill="#252B37"/>
<path d="M130.467 117.489L132.612 117.548L132.577 119.006L132.087 118.993L132.108 118.097L131.71 118.087L131.692 118.836L131.201 118.823L131.22 118.074L130.452 118.053L130.466 117.49L130.467 117.489Z" fill="#252B37"/>
<path d="M130.85 120.442L130.836 119.69L130.436 119.562L130.426 118.992L132.586 119.754L132.598 120.372L130.464 121.188L130.454 120.58L130.849 120.443L130.85 120.442ZM131.284 119.836L131.292 120.289L131.969 120.054L131.283 119.834L131.284 119.836Z" fill="#252B37"/>
<path d="M130.48 121.477L132.621 121.34L132.659 121.903L131.864 121.953L131.917 122.742L132.712 122.691L132.75 123.254L130.609 123.39L130.571 122.828L131.428 122.773L131.375 121.985L130.518 122.04L130.48 121.477Z" fill="#252B37"/>
<path d="M130.655 123.869L132.787 123.634L132.887 124.506C132.952 125.081 132.731 125.439 132.277 125.489C132.004 125.52 131.759 125.381 131.605 125.107L130.865 125.717L130.789 125.05L131.449 124.536L131.428 124.352L130.718 124.431L130.655 123.87L130.655 123.869ZM131.892 124.3L131.925 124.588C131.953 124.836 132.044 124.945 132.213 124.925C132.382 124.906 132.449 124.781 132.421 124.532L132.389 124.244L131.893 124.299L131.892 124.3Z" fill="#252B37"/>
<path d="M131.145 127.516L130.914 126.018L133.035 125.698L133.264 127.176L132.779 127.25L132.637 126.329L132.333 126.375L132.462 127.21L131.977 127.284L131.848 126.449L131.484 126.503L131.629 127.444L131.145 127.518L131.145 127.516Z" fill="#252B37"/>
<path d="M131.322 128.619C131.216 128.071 131.439 127.664 131.899 127.538L132.007 128.098C131.808 128.142 131.708 128.298 131.753 128.526C131.789 128.717 131.887 128.828 132.019 128.803C132.111 128.786 132.161 128.683 132.16 128.555L132.16 128.157C132.16 127.808 132.313 127.549 132.653 127.483C133.046 127.409 133.39 127.702 133.48 128.174C133.576 128.676 133.358 129.091 132.91 129.208L132.802 128.648C132.99 128.597 133.088 128.445 133.052 128.261C133.021 128.096 132.914 128.013 132.799 128.036C132.705 128.053 132.667 128.157 132.669 128.273L132.668 128.695C132.667 129.085 132.519 129.319 132.214 129.376C131.779 129.458 131.428 129.165 131.324 128.618L131.322 128.619Z" fill="#252B37"/>
<path d="M70.4446 168.583L68.5988 167.77L68.9309 167.016C69.15 166.52 69.4984 166.333 69.892 166.507C70.1284 166.612 70.2624 166.838 70.2581 167.134L71.1485 166.987L70.8945 167.563L70.114 167.668L70.0444 167.827L70.6595 168.098L70.4469 168.582L70.4446 168.583ZM69.6427 167.652L69.7525 167.404C69.8472 167.189 69.824 167.059 69.6777 166.994C69.5314 166.93 69.418 167 69.3234 167.214L69.2135 167.463L69.6427 167.652Z" fill="#252B37"/>
<path d="M70.2796 166.452C69.7299 166.182 69.5383 165.581 69.7928 165.059C70.0485 164.536 70.641 164.317 71.1906 164.587C71.7402 164.856 71.9365 165.46 71.6808 165.984C71.4263 166.506 70.8292 166.721 70.2784 166.451L70.2796 166.452ZM70.9513 165.077C70.6659 164.937 70.3583 164.983 70.2192 165.268C70.0802 165.552 70.2328 165.823 70.5171 165.962C70.8014 166.101 71.1147 166.058 71.2538 165.774C71.3929 165.49 71.2356 165.216 70.9502 165.076L70.9513 165.077Z" fill="#252B37"/>
<path d="M72.6158 164.079L72.2204 164.811L70.4456 163.853L70.8289 163.144C71.0381 162.757 71.3393 162.607 71.6484 162.774C71.8047 162.858 71.8814 163.004 71.8904 163.2C72.0638 163.061 72.2499 163.031 72.4383 163.133C72.7726 163.313 72.8389 163.667 72.6176 164.079L72.6158 164.079ZM71.7161 163.994L72.0802 164.19L72.2283 163.916C72.3227 163.741 72.2975 163.622 72.1836 163.561C72.0748 163.503 71.9591 163.544 71.8648 163.719L71.7167 163.993L71.7161 163.994ZM71.0423 163.629L71.3491 163.795L71.4851 163.544C71.568 163.388 71.5477 163.285 71.4515 163.234C71.3599 163.185 71.2617 163.224 71.1783 163.378L71.0423 163.629Z" fill="#252B37"/>
<path d="M72.1879 162.743C71.6618 162.429 71.5215 161.814 71.8178 161.316C72.1164 160.816 72.7246 160.646 73.2506 160.96C73.7767 161.274 73.9216 161.892 73.6241 162.392C73.3267 162.889 72.7145 163.056 72.1885 162.742L72.1879 162.743ZM72.9712 161.429C72.6979 161.267 72.388 161.286 72.226 161.559C72.0641 161.831 72.1933 162.113 72.4667 162.276C72.74 162.438 73.0544 162.42 73.2164 162.148C73.3784 161.876 73.2446 161.591 72.9718 161.428L72.9712 161.429Z" fill="#252B37"/>
<path d="M74.1018 161.509L73.579 160.431L72.4534 160.343L72.7912 159.828L73.5315 159.914L73.1734 159.245L73.4968 158.751L74.0312 159.777L75.2064 159.824L74.8626 160.348L74.0725 160.286L74.4433 160.987L74.1007 161.509L74.1018 161.509Z" fill="#252B37"/>
<path d="M76.7038 157.777L75.1281 156.518L75.6432 155.876C75.9824 155.452 76.3674 155.362 76.7039 155.63C76.9059 155.791 76.9767 156.045 76.8968 156.328L77.7953 156.416L77.4013 156.907L76.6194 156.81L76.5109 156.946L77.0352 157.365L76.7043 157.779L76.7038 157.777ZM76.1677 156.671L76.3376 156.459C76.4848 156.275 76.4953 156.145 76.3706 156.045C76.246 155.945 76.1177 155.983 75.9704 156.166L75.8011 156.378L76.1677 156.671Z" fill="#252B37"/>
<path d="M77.0967 155.671C76.6365 155.267 76.6117 154.638 76.9953 154.202C77.3811 153.765 78.0087 153.711 78.469 154.115C78.9293 154.52 78.9591 155.153 78.5733 155.59C78.1903 156.025 77.557 156.076 77.0967 155.671ZM78.1081 154.525C77.87 154.315 77.5608 154.279 77.3515 154.516C77.1423 154.753 77.2172 155.054 77.4564 155.264C77.6945 155.474 78.0077 155.514 78.217 155.277C78.4263 155.04 78.3473 154.735 78.1081 154.525Z" fill="#252B37"/>
<path d="M79.9826 154.006L79.4042 154.604L77.9511 153.205L78.5122 152.625C78.8177 152.309 79.1488 152.247 79.4012 152.49C79.5283 152.613 79.564 152.775 79.5198 152.967C79.7245 152.879 79.9112 152.901 80.0661 153.049C80.3389 153.312 80.3082 153.671 79.9831 154.008L79.9826 154.006ZM78.5862 153.15L78.8369 153.391L79.0357 153.185C79.1584 153.059 79.166 152.953 79.0872 152.878C79.0123 152.806 78.9066 152.817 78.7849 152.944L78.5868 153.149L78.5862 153.15ZM79.1386 153.683L79.4359 153.969L79.6524 153.746C79.7911 153.603 79.7985 153.481 79.7049 153.392C79.6153 153.307 79.4928 153.316 79.3551 153.46L79.1398 153.683L79.1386 153.683Z" fill="#252B37"/>
<path d="M79.9325 152.603C79.5114 152.158 79.544 151.529 79.9672 151.132C80.3916 150.733 81.0238 150.736 81.4437 151.181C81.8637 151.626 81.8344 152.259 81.4111 152.659C80.9891 153.057 80.3536 153.049 79.9325 152.603ZM81.046 151.555C80.828 151.324 80.5236 151.259 80.2927 151.476C80.0619 151.692 80.1089 152 80.3274 152.229C80.5453 152.46 80.8537 152.529 81.0846 152.312C81.3154 152.095 81.2633 151.784 81.0466 151.554L81.046 151.555Z" fill="#252B37"/>
<path d="M82.1118 151.941L81.9065 150.762L80.8491 150.369L81.3159 149.967L82.0037 150.253L81.8447 149.512L82.2926 149.127L82.5227 150.259L83.6409 150.626L83.1659 151.035L82.4234 150.759L82.5862 151.534L82.1124 151.94L82.1118 151.941Z" fill="#252B37"/>
<path d="M86.1204 148.738L84.9767 147.079L85.6564 146.614C86.1055 146.307 86.5001 146.332 86.7436 146.686C86.8907 146.898 86.8848 147.161 86.7251 147.41L87.5599 147.753L87.0397 148.109L86.3185 147.789L86.1755 147.888L86.5559 148.44L86.1187 148.739L86.1204 148.738ZM85.9269 147.526L86.1505 147.373C86.3441 147.24 86.3926 147.118 86.3029 146.986C86.2114 146.854 86.0793 146.854 85.8845 146.986L85.6609 147.14L85.9269 147.526Z" fill="#252B37"/>
<path d="M87.1041 146.842C86.7796 146.322 86.9382 145.713 87.4306 145.407C87.9254 145.099 88.5437 145.228 88.8687 145.747C89.1926 146.265 89.038 146.88 88.5432 147.188C88.0507 147.494 87.4291 147.361 87.1041 146.842ZM88.4045 146.036C88.2361 145.767 87.9509 145.643 87.6817 145.81C87.4126 145.978 87.3981 146.287 87.5665 146.556C87.7349 146.825 88.0223 146.953 88.292 146.788C88.5611 146.62 88.5722 146.306 88.4039 146.037L88.4045 146.036Z" fill="#252B37"/>
<path d="M90.3521 146.071L89.6267 146.479L88.6323 144.726L89.3354 144.33C89.7186 144.114 90.0539 144.148 90.2267 144.453C90.3136 144.607 90.3012 144.772 90.2047 144.943C90.426 144.918 90.5999 144.992 90.7041 145.177C90.8903 145.507 90.7593 145.842 90.3515 146.072L90.3521 146.071ZM89.2563 144.855L89.4275 145.158L89.6763 145.018C89.8306 144.932 89.8682 144.833 89.8135 144.737C89.7617 144.647 89.6584 144.628 89.504 144.715L89.2552 144.855L89.2563 144.855ZM89.6337 145.522L89.8366 145.881L90.1083 145.728C90.282 145.63 90.3234 145.516 90.2592 145.405C90.1985 145.298 90.0774 145.272 89.9037 145.37L89.6331 145.523L89.6337 145.522Z" fill="#252B37"/>
<path d="M90.7006 144.715C90.4213 144.171 90.6299 143.575 91.1475 143.313C91.6674 143.049 92.2735 143.229 92.5528 143.773C92.832 144.318 92.6256 144.917 92.1057 145.181C91.5876 145.444 90.9798 145.259 90.7006 144.715ZM92.0651 144.021C91.9202 143.738 91.646 143.591 91.364 143.735C91.0821 143.879 91.041 144.187 91.1853 144.468C91.3302 144.751 91.6067 144.902 91.8892 144.759C92.1717 144.617 92.21 144.304 92.0651 144.021Z" fill="#252B37"/>
<path d="M92.9813 144.689L93.1088 143.499L92.1984 142.831L92.7593 142.573L93.3423 143.037L93.394 142.281L93.9315 142.034L93.8408 143.184L94.8151 143.846L94.2442 144.109L93.6058 143.639L93.548 144.428L92.9795 144.69L92.9813 144.689Z" fill="#252B37"/>
<path d="M97.7186 142.684L97.0427 140.788L97.82 140.515C98.3329 140.333 98.709 140.46 98.8523 140.865C98.939 141.108 98.8655 141.36 98.6473 141.558L99.3669 142.105L98.7717 142.314L98.1581 141.82L97.994 141.877L98.2198 142.509L97.7198 142.685L97.7186 142.684ZM97.8463 141.464L98.1027 141.373C98.3246 141.295 98.4041 141.19 98.3501 141.04C98.2961 140.89 98.1682 140.854 97.9463 140.932L97.6899 141.023L97.8474 141.465L97.8463 141.464Z" fill="#252B37"/>
<path d="M99.1595 141.108C98.9755 140.525 99.2811 139.973 99.836 139.801C100.393 139.627 100.96 139.906 101.145 140.489C101.329 141.072 101.025 141.629 100.468 141.803C99.913 141.975 99.3445 141.691 99.16 141.109L99.1595 141.108ZM100.622 140.652C100.527 140.35 100.281 140.158 99.9783 140.252C99.676 140.346 99.5836 140.642 99.6788 140.944C99.774 141.246 100.022 141.443 100.325 141.348C100.627 141.254 100.718 140.953 100.622 140.651L100.622 140.652Z" fill="#252B37"/>
<path d="M102.503 141.162L101.699 141.383L101.159 139.443L101.939 139.229C102.363 139.112 102.68 139.226 102.775 139.564C102.823 139.734 102.77 139.892 102.635 140.034C102.856 140.063 103.007 140.175 103.064 140.381C103.165 140.746 102.956 141.039 102.504 141.163L102.503 141.162ZM101.733 139.719L101.827 140.054L102.104 139.978C102.274 139.931 102.334 139.845 102.305 139.74C102.277 139.641 102.18 139.596 102.01 139.644L101.733 139.719ZM101.938 140.457L102.049 140.854L102.349 140.772C102.541 140.719 102.609 140.619 102.575 140.496C102.541 140.377 102.43 140.323 102.238 140.376L101.937 140.458L101.938 140.457Z" fill="#252B37"/>
<path d="M103.167 139.934C103.022 139.34 103.366 138.811 103.93 138.676C104.498 138.54 105.045 138.857 105.189 139.452C105.333 140.046 104.991 140.58 104.423 140.716C103.859 140.851 103.309 140.528 103.166 139.935L103.167 139.934ZM104.656 139.579C104.582 139.271 104.35 139.064 104.041 139.137C103.732 139.21 103.621 139.501 103.696 139.808C103.77 140.116 104.004 140.328 104.313 140.255C104.62 140.181 104.731 139.886 104.656 139.579Z" fill="#252B37"/>
<path d="M105.395 140.44L105.79 139.312L105.054 138.455L105.658 138.331L106.122 138.915L106.343 138.191L106.922 138.072L106.573 139.171L107.373 140.034L106.757 140.161L106.241 139.559L106.006 140.315L105.393 140.441L105.395 140.44Z" fill="#252B37"/>
<path d="M110.468 139.523L110.199 137.527L111.018 137.42C111.558 137.35 111.899 137.551 111.957 137.976C111.991 138.232 111.866 138.463 111.612 138.612L112.202 139.295L111.576 139.377L111.077 138.766L110.905 138.789L110.995 139.453L110.468 139.522L110.468 139.523ZM110.847 138.357L111.116 138.322C111.35 138.291 111.45 138.205 111.428 138.047C111.406 137.888 111.287 137.828 111.054 137.859L110.784 137.894L110.846 138.358L110.847 138.357Z" fill="#252B37"/>
<path d="M112.207 138.278C112.143 137.67 112.554 137.192 113.132 137.134C113.713 137.075 114.213 137.461 114.278 138.069C114.341 138.677 113.932 139.161 113.351 139.22C112.772 139.278 112.272 138.886 112.208 138.279L112.207 138.278ZM113.732 138.125C113.698 137.809 113.496 137.573 113.181 137.606C112.865 137.637 112.716 137.909 112.749 138.225C112.781 138.54 112.985 138.781 113.301 138.75C113.616 138.719 113.765 138.441 113.732 138.126L113.732 138.125Z" fill="#252B37"/>
<path d="M115.473 138.994L114.642 139.054L114.488 137.047L115.294 136.988C115.733 136.956 116.022 137.128 116.05 137.478C116.063 137.654 115.981 137.798 115.82 137.91C116.032 137.981 116.157 138.121 116.174 138.334C116.202 138.712 115.939 138.959 115.472 138.993L115.473 138.994ZM114.998 137.429L115.025 137.775L115.31 137.754C115.486 137.74 115.563 137.668 115.555 137.559C115.547 137.455 115.46 137.394 115.285 137.407L114.999 137.428L114.998 137.429ZM115.057 138.193L115.089 138.603L115.4 138.581C115.599 138.566 115.685 138.481 115.675 138.352C115.666 138.229 115.567 138.155 115.369 138.169L115.058 138.191L115.057 138.193Z" fill="#252B37"/>
<path d="M116.359 137.917C116.329 137.306 116.765 136.852 117.345 136.826C117.929 136.799 118.407 137.212 118.436 137.823C118.466 138.434 118.03 138.894 117.447 138.919C116.866 138.946 116.387 138.527 116.359 137.917ZM117.891 137.848C117.875 137.531 117.686 137.284 117.369 137.299C117.051 137.314 116.887 137.576 116.903 137.893C116.918 138.209 117.107 138.462 117.425 138.447C117.742 138.433 117.906 138.164 117.891 137.848Z" fill="#252B37"/>
<path d="M118.454 138.831L119.049 137.795L118.483 136.819L119.101 136.808L119.45 137.465L119.8 136.794L120.392 136.783L119.847 137.8L120.476 138.794L119.848 138.806L119.451 138.122L119.08 138.82L118.456 138.833L118.454 138.831Z" fill="#252B37"/>
<path d="M182.06 120.031L182.942 121.915L182.446 122.145L181.564 120.26L182.06 120.031Z" fill="#252B37"/>
<path d="M181.304 121.71L180.763 120.64L181.205 120.418L182.144 122.274L181.567 122.563L180.462 121.539L180.633 123.031L180.056 123.32L179.118 121.465L179.56 121.243L180.108 122.326L179.961 121.042L180.365 120.839L181.305 121.709L181.304 121.71Z" fill="#252B37"/>
<path d="M178.603 122.47L178.298 121.913L178.778 121.652L179.78 123.477L179.068 123.864C178.59 124.124 178.186 124.067 177.961 123.659C177.735 123.246 177.894 122.857 178.371 122.597L178.602 122.471L178.603 122.47ZM179.077 123.333L178.825 122.874L178.596 122.998C178.406 123.102 178.36 123.253 178.435 123.392C178.514 123.535 178.657 123.563 178.848 123.458L179.077 123.333Z" fill="#252B37"/>
<path d="M176.328 123.462L176.96 123.097L176.879 122.699L177.357 122.422L177.739 124.604L177.221 124.903L175.514 123.488L176.025 123.192L176.329 123.461L176.328 123.462ZM177.05 123.544L176.669 123.764L177.19 124.226L177.05 123.544Z" fill="#252B37"/>
<path d="M176.091 124.36C176.412 124.877 176.265 125.522 175.762 125.832C175.278 126.131 174.703 126.039 174.356 125.607L174.848 125.303C175.023 125.503 175.282 125.553 175.5 125.419C175.761 125.258 175.801 124.954 175.614 124.654C175.425 124.35 175.133 124.248 174.873 124.41C174.659 124.542 174.589 124.796 174.689 125.045L174.197 125.348C173.962 124.839 174.136 124.29 174.62 123.991C175.122 123.681 175.769 123.84 176.093 124.359L176.091 124.36Z" fill="#252B37"/>
<path d="M173.126 124.988L173.998 126.312L174.531 125.963L174.805 126.377L173.283 127.374L173.009 126.96L173.542 126.611L172.67 125.287L173.127 124.987L173.126 124.988Z" fill="#252B37"/>
<path d="M172.733 126.488C173.095 127.006 172.965 127.643 172.473 127.984C171.978 128.327 171.334 128.228 170.972 127.709C170.61 127.191 170.738 126.548 171.232 126.206C171.724 125.865 172.373 125.969 172.733 126.488ZM171.435 127.389C171.623 127.658 171.924 127.769 172.192 127.584C172.461 127.397 172.46 127.078 172.271 126.809C172.084 126.54 171.779 126.422 171.511 126.609C171.242 126.795 171.247 127.121 171.435 127.389Z" fill="#252B37"/>
<path d="M170.159 127.013L171.4 128.684L170.715 129.19C170.264 129.524 169.855 129.512 169.591 129.155C169.432 128.941 169.428 128.67 169.584 128.407L168.709 128.084L169.232 127.697L169.988 128.002L170.133 127.895L169.719 127.339L170.159 127.013ZM170.403 128.258L170.176 128.424C169.981 128.569 169.935 128.697 170.033 128.83C170.132 128.962 170.269 128.958 170.464 128.814L170.69 128.647L170.402 128.259L170.403 128.258Z" fill="#252B37"/>
<path d="M166.644 129.724L167.975 131.325L167.554 131.673L166.223 130.073L166.644 129.724Z" fill="#252B37"/>
<path d="M166.334 131.547L165.541 130.645L165.914 130.319L167.288 131.883L166.804 132.307L165.478 131.592L166.018 132.995L165.533 133.419L164.159 131.855L164.531 131.529L165.333 132.441L164.868 131.234L165.207 130.938L166.335 131.546L166.334 131.547Z" fill="#252B37"/>
<path d="M163.913 132.957L163.477 132.495L163.875 132.121L165.304 133.635L164.714 134.189C164.319 134.561 163.913 134.608 163.592 134.268C163.27 133.926 163.324 133.509 163.721 133.136L163.914 132.956L163.913 132.957ZM164.59 133.674L164.23 133.293L164.04 133.472C163.882 133.62 163.875 133.777 163.985 133.893C164.097 134.011 164.243 134.002 164.401 133.853L164.591 133.675L164.59 133.674Z" fill="#252B37"/>
<path d="M161.972 134.493L162.487 133.978L162.306 133.613L162.697 133.222L163.628 135.236L163.204 135.659L161.191 134.726L161.609 134.309L161.971 134.491L161.972 134.493ZM162.69 134.387L162.379 134.697L163 135.01L162.69 134.387Z" fill="#252B37"/>
<path d="M161.979 135.416C162.425 135.831 162.454 136.494 162.05 136.925C161.662 137.342 161.084 137.403 160.635 137.076L161.029 136.654C161.25 136.8 161.514 136.78 161.687 136.595C161.897 136.371 161.854 136.067 161.595 135.827C161.334 135.584 161.026 135.561 160.816 135.785C160.644 135.969 160.645 136.233 160.806 136.446L160.412 136.869C160.051 136.439 160.073 135.863 160.462 135.446C160.865 135.015 161.531 134.999 161.978 135.415L161.979 135.416Z" fill="#252B37"/>
<path d="M159.293 136.801L160.491 137.839L160.909 137.359L161.284 137.684L160.091 139.056L159.716 138.731L160.133 138.252L158.935 137.213L159.293 136.801Z" fill="#252B37"/>
<path d="M159.333 138.341C159.826 138.738 159.88 139.386 159.502 139.851C159.124 140.319 158.478 140.403 157.985 140.006C157.493 139.609 157.435 138.957 157.814 138.49C158.19 138.024 158.841 137.944 159.333 138.341ZM158.34 139.567C158.595 139.772 158.915 139.797 159.12 139.542C159.325 139.288 159.234 138.981 158.98 138.775C158.725 138.569 158.401 138.541 158.194 138.795C157.989 139.049 158.084 139.36 158.339 139.566L158.34 139.567Z" fill="#252B37"/>
<path d="M157.015 139.562L158.686 140.804L158.179 141.485C157.843 141.935 157.449 142.042 157.094 141.777C156.88 141.618 156.798 141.359 156.869 141.063L155.94 141.006L156.328 140.484L157.138 140.556L157.245 140.413L156.688 139.999L157.014 139.561L157.015 139.562ZM157.608 140.682L157.441 140.907C157.296 141.102 157.289 141.237 157.422 141.336C157.554 141.434 157.685 141.39 157.829 141.196L157.997 140.971L157.608 140.682Z" fill="#252B37"/>
<path d="M154.798 142.68L156.545 143.814L156.248 144.272L154.501 143.138L154.8 142.681L154.798 142.68Z" fill="#252B37"/>
<path d="M155.048 144.513L154.017 143.898L154.271 143.474L156.059 144.542L155.729 145.095L154.248 144.82L155.192 145.99L154.863 146.544L153.075 145.476L153.329 145.052L154.372 145.675L153.559 144.668L153.791 144.281L155.051 144.515L155.048 144.513Z" fill="#252B37"/>
<path d="M153.159 146.662L152.598 146.365L152.855 145.881L154.694 146.859L154.315 147.574C154.059 148.054 153.69 148.227 153.278 148.008C152.863 147.788 152.781 147.374 153.036 146.895L153.159 146.662ZM154.03 147.125L153.567 146.879L153.445 147.109C153.343 147.3 153.388 147.451 153.529 147.526C153.672 147.602 153.807 147.546 153.909 147.355L154.03 147.125Z" fill="#252B37"/>
<path d="M151.802 148.804L152.117 148.146L151.825 147.863L152.064 147.365L153.61 148.958L153.352 149.498L151.146 149.285L151.4 148.753L151.802 148.804ZM152.442 148.466L152.252 148.863L152.943 148.952L152.442 148.466Z" fill="#252B37"/>
<path d="M152.089 149.726C152.65 149.963 152.905 150.576 152.677 151.12C152.456 151.644 151.935 151.902 151.401 151.749L151.625 151.216C151.883 151.278 152.124 151.169 152.222 150.934C152.341 150.652 152.197 150.381 151.87 150.244C151.542 150.105 151.245 150.19 151.126 150.472C151.028 150.703 151.119 150.952 151.344 151.098L151.12 151.631C150.634 151.35 150.456 150.802 150.678 150.276C150.907 149.733 151.525 149.489 152.09 149.727L152.089 149.726Z" fill="#252B37"/>
<path d="M150.027 152.027L151.516 152.575L151.735 151.978L152.2 152.148L151.575 153.854L151.109 153.684L151.328 153.086L149.838 152.538L150.027 152.025L150.027 152.027Z" fill="#252B37"/>
<path d="M150.591 153.512C151.194 153.703 151.481 154.288 151.301 154.858C151.12 155.432 150.55 155.745 149.947 155.554C149.344 155.363 149.052 154.777 149.233 154.203C149.412 153.633 149.989 153.32 150.591 153.511L150.591 153.512ZM150.117 155.018C150.43 155.117 150.735 155.023 150.834 154.711C150.932 154.399 150.736 154.147 150.423 154.048C150.111 153.948 149.799 154.041 149.701 154.353C149.603 154.665 149.805 154.92 150.117 155.018Z" fill="#252B37"/>
<path d="M148.862 155.574L150.877 156.102L150.664 156.924C150.523 157.468 150.199 157.714 149.768 157.601C149.51 157.535 149.337 157.325 149.293 157.023L148.41 157.318L148.574 156.689L149.351 156.453L149.396 156.28L148.725 156.104L148.863 155.575L148.862 155.574ZM149.834 156.393L149.763 156.665C149.702 156.899 149.747 157.027 149.907 157.069C150.066 157.112 150.171 157.022 150.232 156.787L150.303 156.516L149.834 156.393Z" fill="#252B37"/>
<path d="M147.975 159.434L150.089 159.815L149.99 160.369L147.877 159.988L147.975 159.434Z" fill="#252B37"/>
<path d="M148.942 161.125L147.716 160.959L147.783 160.453L149.91 160.742L149.822 161.401L148.307 161.74L149.679 162.467L149.59 163.126L147.463 162.838L147.53 162.332L148.772 162.501L147.591 161.875L147.652 161.413L148.939 161.125L148.942 161.125Z" fill="#252B37"/>
<path d="M148.034 163.934L147.38 163.882L147.424 163.32L149.563 163.492L149.499 164.325C149.455 164.884 149.179 165.199 148.699 165.161C148.216 165.123 147.969 164.765 148.011 164.206L148.033 163.935L148.034 163.934ZM149.046 164.016L148.507 163.973L148.487 164.242C148.47 164.465 148.574 164.589 148.737 164.603C148.904 164.617 149.007 164.508 149.026 164.285L149.046 164.016Z" fill="#252B37"/>
<path d="M147.635 166.521L147.661 165.77L147.268 165.622L147.287 165.053L149.404 165.924L149.384 166.54L147.213 167.246L147.233 166.638L147.634 166.522L147.635 166.521ZM148.1 165.938L148.084 166.391L148.773 166.193L148.1 165.938Z" fill="#252B37"/>
<path d="M148.289 167.275C148.916 167.269 149.41 167.744 149.417 168.354C149.426 168.941 149.039 169.399 148.472 169.472L148.464 168.876C148.733 168.828 148.915 168.626 148.911 168.364C148.907 168.048 148.66 167.851 148.295 167.855C147.928 167.859 147.683 168.061 147.687 168.377C147.69 168.637 147.879 168.834 148.151 168.88L148.159 169.476C147.584 169.41 147.19 168.963 147.183 168.376C147.175 167.768 147.659 167.282 148.29 167.276L148.289 167.275Z" fill="#252B37"/>
<path d="M147.286 170.251L148.918 170.164L148.881 169.508L149.392 169.481L149.499 171.355L148.988 171.382L148.951 170.727L147.319 170.814L147.288 170.251L147.286 170.251Z" fill="#252B37"/>
<path d="M148.422 171.36C149.071 171.299 149.579 171.741 149.639 172.356C149.698 172.974 149.284 173.501 148.635 173.562C147.986 173.623 147.472 173.182 147.412 172.564C147.352 171.949 147.773 171.421 148.421 171.361L148.422 171.36ZM148.579 172.981C148.916 172.949 149.168 172.736 149.136 172.402C149.103 172.066 148.814 171.904 148.477 171.936C148.141 171.967 147.883 172.181 147.915 172.516C147.948 172.852 148.242 173.013 148.579 172.982L148.579 172.981Z" fill="#252B37"/>
<path d="M147.601 173.929L149.727 173.641L149.847 174.51C149.927 175.083 149.715 175.446 149.262 175.508C148.99 175.545 148.743 175.413 148.582 175.143L147.857 175.771L147.765 175.105L148.413 174.576L148.388 174.393L147.68 174.488L147.602 173.929L147.601 173.929ZM148.847 174.329L148.887 174.617C148.922 174.864 149.016 174.97 149.183 174.947C149.35 174.925 149.416 174.799 149.382 174.55L149.342 174.263L148.847 174.329Z" fill="#252B37"/>
<path d="M56.1386 131.373C56.4182 130.846 56.7034 130.325 56.9972 129.807C58.9893 126.268 61.3805 122.818 64.1029 119.554C69.5616 113.036 76.4246 107.43 83.9524 103.341C88.186 101.034 92.7158 99.1685 97.4152 97.7961C99.4653 97.2032 101.683 97.2928 103.66 98.05C105.41 98.709 107.051 99.9544 108.156 101.466C109.527 103.337 110.208 105.732 110.028 108.04C109.864 110.162 108.99 112.208 107.567 113.804C106.34 115.189 104.743 116.192 102.948 116.703C98.9933 117.855 95.1409 119.542 91.4978 121.717C84.4881 125.906 78.601 131.917 74.4718 139.102C74.0478 139.791 73.6884 140.571 73.206 141.387L73.186 141.425C71.1554 145.515 69.7035 149.717 68.8789 153.904C67.2539 161.973 67.7425 170.413 70.2928 178.313C70.8974 180.134 70.943 182.16 70.4187 184.012C69.7766 186.313 68.2512 188.368 66.2309 189.647C64.1246 190.99 61.4998 191.477 59.0309 190.981C58.1059 190.808 57.1918 190.484 56.3203 190.022C54.6127 189.117 53.2184 187.753 52.2877 186.08C51.7886 185.209 51.4979 184.246 51.2405 183.398L51.2281 183.355C51.1825 183.191 51.1345 183.036 51.0866 182.896C49.8531 178.759 49.0113 174.438 48.5764 170.033C48.1434 165.675 48.129 161.28 48.5351 156.972C49.3598 148.028 51.9807 139.216 56.138 131.375L56.1386 131.373ZM107.951 111.36C108.509 110.307 108.852 109.143 108.944 107.954C109.104 105.9 108.497 103.768 107.279 102.103C106.295 100.757 104.835 99.6497 103.276 99.0627C101.516 98.3884 99.5442 98.3079 97.721 98.8354C93.0974 100.187 88.6396 102.022 84.474 104.291C77.0653 108.317 70.3091 113.834 64.938 120.248C62.2584 123.462 59.905 126.857 57.9442 130.339C53.364 138.433 50.4837 147.676 49.6181 157.071C49.2182 161.312 49.2319 165.637 49.6589 169.926C50.086 174.262 50.9154 178.515 52.122 182.565C52.1704 182.704 52.2239 182.88 52.2722 183.051L52.2819 183.083C52.5225 183.877 52.7944 184.776 53.2355 185.546C54.0659 187.04 55.3077 188.254 56.8286 189.061C57.6028 189.471 58.4134 189.758 59.2368 189.912C61.4392 190.355 63.7725 189.922 65.6461 188.727C67.4435 187.589 68.8016 185.761 69.372 183.711C69.8389 182.064 69.7982 180.265 69.2609 178.643C66.6516 170.561 66.1527 161.933 67.8135 153.686C68.6576 149.407 70.1394 145.112 72.2203 140.925L72.259 140.852C72.7578 140.005 73.1099 139.238 73.5375 138.543C77.75 131.212 83.7705 125.065 90.9387 120.782C94.6612 118.56 98.5989 116.836 102.644 115.657C104.244 115.203 105.663 114.312 106.754 113.081C107.223 112.556 107.625 111.975 107.952 111.358L107.951 111.36Z" fill="#F2714A"/>
</g>
<defs>
<clipPath id="clip0_4001_1907">
<rect width="248" height="140" fill="white" transform="translate(239.86 65.5796) rotate(117.932)"/>
</clipPath>
</defs>
</svg>
