<svg width="261" height="283" viewBox="0 0 261 283" fill="none" xmlns="http://www.w3.org/2000/svg">
<g clip-path="url(#clip0_4003_2883)">
<path d="M112.446 188.969C112.087 189.446 111.724 189.916 111.353 190.381C108.83 193.564 105.927 196.596 102.726 199.392C96.3122 204.973 88.6546 209.432 80.5784 212.29C76.0335 213.904 71.2671 215.036 66.4124 215.653C64.2947 215.917 62.1183 215.481 60.2847 214.423C58.6588 213.498 57.234 212.009 56.3801 210.343C55.3205 208.28 55.0231 205.808 55.5634 203.557C56.0577 201.488 57.242 199.604 58.8979 198.25C60.327 197.076 62.0614 196.336 63.915 196.113C68.0013 195.595 72.0717 194.535 76.0091 192.958C83.5892 189.922 90.3467 184.908 95.5522 178.46C96.078 177.845 96.5564 177.132 97.1608 176.402L97.1865 176.368C99.8329 172.648 101.927 168.725 103.399 164.72C106.271 157.007 107.111 148.595 105.833 140.391C105.521 138.497 105.794 136.491 106.604 134.744C107.598 132.571 109.428 130.782 111.624 129.836C113.915 128.84 116.584 128.771 118.944 129.648C119.831 129.964 120.682 130.427 121.471 131.021C123.015 132.183 124.178 133.748 124.835 135.547C125.191 136.486 125.327 137.482 125.448 138.36L125.454 138.405C125.473 138.573 125.496 138.734 125.521 138.88C126.089 143.159 126.244 147.559 125.98 151.977C125.725 156.351 125.048 160.693 123.972 164.883C121.754 173.587 117.783 181.879 112.447 188.971L112.446 188.969ZM58.1357 200.604C57.4189 201.557 56.8981 202.652 56.6196 203.814C56.1391 205.817 56.4041 208.018 57.3468 209.852C58.1072 211.336 59.3751 212.659 60.8232 213.483C62.4553 214.425 64.39 214.814 66.2734 214.579C71.051 213.971 75.7405 212.857 80.2124 211.269C88.161 208.456 95.6992 204.068 102.01 198.576C105.161 195.822 108.018 192.838 110.501 189.707C116.297 182.435 120.589 173.755 122.918 164.612C123.978 160.488 124.643 156.215 124.895 151.91C125.153 147.56 125.002 143.231 124.446 139.041C124.42 138.896 124.394 138.715 124.374 138.538L124.369 138.505C124.256 137.683 124.128 136.753 123.814 135.923C123.228 134.317 122.192 132.923 120.817 131.888C120.116 131.361 119.361 130.951 118.572 130.669C116.466 129.886 114.094 129.947 112.056 130.834C110.101 131.676 108.473 133.269 107.589 135.203C106.87 136.756 106.626 138.539 106.904 140.225C108.213 148.617 107.352 157.218 104.417 165.101C102.912 169.194 100.775 173.203 98.0625 177.013L98.0128 177.079C97.3874 177.836 96.9201 178.537 96.3878 179.158C91.0772 185.737 84.1676 190.863 76.4153 193.969C72.3921 195.579 68.2319 196.664 64.0511 197.193C62.3999 197.391 60.8579 198.047 59.5878 199.093C59.0433 199.538 58.5543 200.048 58.1341 200.607L58.1357 200.604Z" fill="#44ADE2"/>
<path d="M196.735 127.867C196.572 128.084 196.409 128.299 196.242 128.514C193.574 131.982 190.574 135.19 187.329 138.046C180.15 144.391 171.577 149.228 162.542 152.035C158.661 153.249 154.551 154.127 150.325 154.642C141.871 155.658 133.013 155.049 124.707 152.884C120.03 151.67 115.439 149.934 111.064 147.723C109.161 146.756 107.602 145.176 106.673 143.275C105.844 141.6 105.498 139.574 105.724 137.719C106.003 135.423 107.145 133.214 108.856 131.66C110.427 130.229 112.467 129.336 114.599 129.147C116.444 128.977 118.297 129.339 119.959 130.193C123.641 132.057 127.616 133.46 131.768 134.365C139.763 136.106 148.187 135.752 156.128 133.344C156.541 133.232 156.955 133.09 157.391 132.941C157.781 132.808 158.186 132.67 158.616 132.546L158.657 132.531C162.943 130.942 166.882 128.876 170.353 126.391C177.067 121.629 182.489 115.152 186.035 107.659C186.839 105.921 188.192 104.417 189.842 103.429C191.886 102.192 194.408 101.74 196.76 102.189C199.22 102.65 201.472 104.087 202.937 106.133C203.494 106.891 203.942 107.749 204.262 108.681C204.891 110.506 204.978 112.45 204.513 114.301C204.281 115.276 203.835 116.174 203.442 116.968L203.421 117.009C203.342 117.159 203.272 117.305 203.21 117.44C201.4 121.056 199.224 124.556 196.731 127.868L196.735 127.867ZM108.504 133.641C107.582 134.866 106.978 136.338 106.793 137.853C106.592 139.505 106.9 141.31 107.64 142.803C108.468 144.497 109.855 145.903 111.549 146.764C115.855 148.939 120.374 150.648 124.976 151.843C133.152 153.975 141.872 154.575 150.192 153.574C154.353 153.066 158.4 152.203 162.218 151.007C171.111 148.246 179.547 143.485 186.616 137.239C189.81 134.428 192.761 131.271 195.389 127.856C198.042 124.407 200.352 120.747 202.243 116.975C202.303 116.841 202.383 116.677 202.466 116.519L202.48 116.489C202.848 115.748 203.265 114.907 203.47 114.045C203.885 112.388 203.808 110.656 203.248 109.03C202.963 108.201 202.566 107.439 202.069 106.764C200.762 104.936 198.757 103.657 196.567 103.247C194.472 102.847 192.226 103.25 190.403 104.352C188.933 105.232 187.73 106.571 187.013 108.118C183.387 115.782 177.845 122.402 170.983 127.268C167.436 129.805 163.411 131.917 159.023 133.544L158.945 133.571C158.515 133.696 158.122 133.83 157.743 133.959C157.289 134.114 156.861 134.261 156.429 134.377C148.328 136.834 139.717 137.196 131.542 135.416C127.3 134.492 123.24 133.056 119.473 131.15C117.991 130.388 116.342 130.066 114.7 130.217C112.798 130.385 110.98 131.18 109.581 132.455C109.186 132.814 108.825 133.212 108.503 133.64L108.504 133.641Z" fill="#3369FF"/>
<path d="M103.621 138.632C102.442 140.199 101.197 141.709 99.8923 143.156C97.1759 146.18 94.0874 149.032 90.7139 151.631C83.9594 156.813 76.0299 160.799 67.7817 163.158C63.1401 164.491 58.3059 165.329 53.4133 165.65C51.2624 165.786 49.0977 165.211 47.3151 164.031C45.7347 162.999 44.3922 161.413 43.6341 159.681C42.6944 157.538 42.548 155.029 43.2322 152.796C43.859 150.743 45.1692 148.917 46.9209 147.659C48.4326 146.564 50.2268 145.926 52.1079 145.817C56.2108 145.551 60.3322 144.744 64.3531 143.415C72.0928 140.854 79.1341 136.274 84.7161 130.17C85.011 129.867 85.2903 129.539 85.5873 129.192C85.8676 128.864 86.1382 128.546 86.439 128.226L86.4729 128.185C89.3381 124.644 91.6643 120.863 93.3783 116.964C96.7121 109.457 98.0671 101.13 97.2953 92.8803C97.0985 90.9557 97.4983 88.9498 98.4213 87.2422C99.559 85.1159 101.513 83.4272 103.783 82.6108C106.154 81.7482 108.846 81.844 111.17 82.8733C112.042 83.2469 112.872 83.7649 113.63 84.4112C115.114 85.6778 116.189 87.3257 116.739 89.178C117.039 90.1459 117.116 91.1542 117.182 92.0447L117.186 92.0877C117.194 92.2574 117.209 92.417 117.223 92.5638C117.529 96.877 117.412 101.283 116.878 105.682C116.353 110.036 115.41 114.334 114.076 118.455C111.743 125.71 108.169 132.592 103.621 138.636L103.621 138.632ZM45.7994 150.512C45.1983 151.311 44.7355 152.21 44.4438 153.169C43.8465 155.119 43.9739 157.308 44.794 159.176C45.4558 160.688 46.6271 162.072 48.0086 162.974C49.5646 164.004 51.4525 164.505 53.3276 164.387C58.1278 164.072 62.873 163.251 67.4273 161.941C75.5264 159.625 83.3093 155.713 89.9381 150.627C93.2498 148.075 96.2812 145.275 98.9466 142.309L98.9474 142.308C105.17 135.414 109.983 127.029 112.868 118.06C114.177 114.015 115.103 109.797 115.618 105.523C116.142 101.204 116.257 96.8788 115.958 92.6708C115.942 92.5262 115.927 92.3417 115.917 92.1611L115.915 92.1319C115.852 91.3091 115.783 90.3774 115.523 89.5387C115.041 87.9153 114.102 86.4766 112.806 85.3705C112.146 84.8075 111.426 84.3574 110.664 84.0313C108.631 83.1304 106.283 83.0466 104.216 83.7977C102.234 84.5101 100.53 85.9838 99.5348 87.8408C98.7295 89.3315 98.3805 91.0781 98.5534 92.7585C99.3457 101.229 97.9563 109.774 94.5347 117.475C92.7788 121.475 90.3913 125.351 87.4471 128.992L87.3725 129.078C87.0885 129.38 86.8234 129.692 86.5669 129.992C86.2399 130.374 85.9469 130.717 85.6385 131.036C79.924 137.285 72.6965 141.985 64.7528 144.613C60.6304 145.975 56.4039 146.804 52.1884 147.077C50.5439 147.173 48.9809 147.728 47.6626 148.682C46.9493 149.195 46.3215 149.814 45.7981 150.509L45.7994 150.512Z" fill="#42C1C7"/>
<path d="M199.22 115.945C201.236 113.265 200.691 109.451 198.001 107.427C195.311 105.403 191.496 105.935 189.479 108.616C187.462 111.296 188.008 115.11 190.698 117.134C193.387 119.158 197.203 118.625 199.22 115.945Z" fill="#252B37"/>
<path d="M149.016 182.664C151.033 179.984 150.488 176.171 147.798 174.147C145.108 172.123 141.292 172.655 139.276 175.335C137.259 178.015 137.805 181.829 140.494 183.853C143.184 185.877 147 185.345 149.016 182.664Z" fill="#252B37"/>
<path d="M69.2704 209.939C71.2872 207.259 70.7415 203.446 68.0517 201.422C65.3618 199.398 61.5464 199.93 59.5296 202.61C57.5128 205.29 58.0585 209.104 60.7483 211.128C63.4382 213.152 67.2536 212.62 69.2704 209.939Z" fill="#252B37"/>
<path d="M120.324 142.014C122.341 139.333 121.795 135.52 119.105 133.496C116.416 131.472 112.6 132.004 110.583 134.684C108.567 137.364 109.112 141.178 111.802 143.202C114.492 145.226 118.307 144.694 120.324 142.014Z" fill="#252B37"/>
<path d="M57.1503 158.969C59.1671 156.289 58.6214 152.475 55.9316 150.451C53.2417 148.427 49.4262 148.959 47.4095 151.64C45.3927 154.32 45.9384 158.133 48.6282 160.157C51.3181 162.181 55.1335 161.649 57.1503 158.969Z" fill="#252B37"/>
<path d="M111.849 94.9067C113.865 92.2264 113.32 88.4129 110.63 86.3889C107.94 84.3649 104.124 84.8969 102.108 87.5772C100.091 90.2574 100.637 94.0709 103.326 96.0949C106.016 98.1189 109.832 97.5869 111.849 94.9067Z" fill="#252B37"/>
<path d="M155.239 177.811L154.52 178.032L154.51 178.451L153.964 178.617L154.089 176.336L154.68 176.155L156.064 177.974L155.482 178.152L155.239 177.811ZM154.535 177.561L154.969 177.428L154.554 176.843L154.536 177.562L154.535 177.561Z" fill="#252B37"/>
<path d="M156.311 176.472L156.751 177.736L156.263 177.904L155.555 175.878L156.128 175.68L157.284 176.593L156.875 175.422L157.363 175.254L158.071 177.281L157.557 177.458L156.309 176.472L156.311 176.472Z" fill="#252B37"/>
<path d="M158.476 175.811L158.925 176.964L158.45 177.147L157.671 175.147L158.292 174.908L159.324 176.069L159.297 174.52L159.918 174.28L160.696 176.281L160.221 176.464L159.765 175.297L159.789 176.631L159.355 176.798L158.477 175.811L158.476 175.811Z" fill="#252B37"/>
<path d="M162.073 175.265L161.381 175.559L161.414 175.976L160.889 176.199L160.775 173.917L161.343 173.675L162.91 175.34L162.349 175.578L162.072 175.264L162.073 175.265ZM161.346 175.09L161.763 174.912L161.29 174.373L161.347 175.089L161.346 175.09Z" fill="#252B37"/>
<path d="M165.753 173.56L165.079 173.891L165.134 174.306L164.623 174.557L164.384 172.282L164.939 172.011L166.595 173.59L166.048 173.858L165.754 173.559L165.753 173.56ZM165.017 173.425L165.424 173.225L164.921 172.712L165.016 173.424L165.017 173.425Z" fill="#252B37"/>
<path d="M166.604 172.07L167.235 173.253L166.778 173.495L165.769 171.6L166.303 171.317L167.586 172.043L167.002 170.947L167.458 170.705L168.467 172.599L167.987 172.854L166.603 172.071L166.604 172.07Z" fill="#252B37"/>
<path d="M168.64 171.085L169.261 172.155L168.82 172.41L167.743 170.553L168.319 170.221L169.517 171.211L169.252 169.684L169.828 169.352L170.905 171.208L170.464 171.463L169.835 170.379L170.063 171.693L169.66 171.925L168.641 171.084L168.64 171.085Z" fill="#252B37"/>
<path d="M172.107 169.988L171.47 170.386L171.568 170.795L171.086 171.098L170.614 168.86L171.136 168.532L172.945 169.931L172.429 170.255L172.106 169.987L172.107 169.988ZM171.361 169.93L171.745 169.688L171.193 169.231L171.361 169.93Z" fill="#252B37"/>
<path d="M175.453 167.717L174.842 168.155L174.965 168.557L174.503 168.889L173.892 166.685L174.393 166.325L176.285 167.61L175.791 167.964L175.452 167.719L175.453 167.717ZM174.705 167.706L175.073 167.442L174.492 167.019L174.704 167.705L174.705 167.706Z" fill="#252B37"/>
<path d="M176.035 166.11L176.858 167.167L176.45 167.483L175.132 165.787L175.61 165.417L176.997 165.912L176.235 164.933L176.643 164.618L177.961 166.313L177.533 166.645L176.036 166.11L176.035 166.11Z" fill="#252B37"/>
<path d="M177.856 164.794L178.659 165.737L178.27 166.066L176.877 164.43L177.384 164L178.74 164.762L178.206 163.305L178.713 162.875L180.105 164.511L179.716 164.84L178.905 163.885L179.364 165.14L179.01 165.44L177.857 164.795L177.856 164.794Z" fill="#252B37"/>
<path d="M181.053 163.093L180.502 163.605L180.675 163.987L180.257 164.374L179.376 162.262L179.828 161.843L181.865 162.881L181.42 163.295L181.053 163.093ZM180.31 163.174L180.642 162.866L180.013 162.519L180.309 163.175L180.31 163.174Z" fill="#252B37"/>
<path d="M183.905 160.194L183.395 160.747L183.597 161.115L183.21 161.534L182.167 159.496L182.585 159.042L184.697 159.92L184.284 160.368L183.902 160.195L183.905 160.194ZM183.172 160.332L183.479 160L182.825 159.702L183.172 160.332Z" fill="#252B37"/>
<path d="M184.191 158.448L185.218 159.308L184.886 159.704L183.24 158.325L183.63 157.861L185.088 158.053L184.137 157.257L184.468 156.861L186.114 158.24L185.766 158.655L184.191 158.448Z" fill="#252B37"/>
<path d="M185.74 156.709L186.731 157.451L186.424 157.859L184.706 156.571L185.106 156.04L186.595 156.481L185.75 155.178L186.15 154.646L187.868 155.934L187.561 156.341L186.559 155.59L187.284 156.712L187.004 157.083L185.739 156.708L185.74 156.709Z" fill="#252B37"/>
<path d="M188.514 154.255L188.099 154.88L188.355 155.212L188.039 155.686L186.691 153.836L187.033 153.322L189.254 153.86L188.917 154.366L188.513 154.254L188.514 154.255ZM187.81 154.507L188.062 154.13L187.37 153.938L187.81 154.507Z" fill="#252B37"/>
<path d="M190.635 150.653L190.28 151.315L190.566 151.622L190.296 152.123L188.782 150.406L189.074 149.863L191.335 150.191L191.047 150.726L190.635 150.653ZM189.957 150.97L190.172 150.57L189.466 150.443L189.958 150.968L189.957 150.97Z" fill="#252B37"/>
<path d="M190.473 148.885L191.684 149.457L191.465 149.924L189.523 149.006L189.781 148.458L191.24 148.274L190.117 147.743L190.337 147.276L192.279 148.195L192.048 148.685L190.474 148.884L190.473 148.885Z" fill="#252B37"/>
<path d="M191.523 146.808L192.673 147.269L192.483 147.742L190.491 146.943L190.738 146.326L192.289 146.366L191.137 145.326L191.383 144.708L193.375 145.507L193.186 145.981L192.023 145.515L193.015 146.411L192.843 146.842L191.523 146.808Z" fill="#252B37"/>
<path d="M193.559 143.715L193.323 144.428L193.658 144.68L193.478 145.222L191.691 143.789L191.886 143.203L194.169 143.139L193.978 143.717L193.559 143.715ZM192.946 144.143L193.09 143.713L192.373 143.708L192.948 144.141L192.946 144.143Z" fill="#252B37"/>
<path d="M194.656 139.677L194.487 140.41L194.845 140.632L194.717 141.188L192.804 139.926L192.944 139.325L195.21 139.049L195.074 139.641L194.657 139.678L194.656 139.677ZM194.087 140.16L194.189 139.718L193.475 139.781L194.087 140.159L194.087 140.16Z" fill="#252B37"/>
<path d="M194.038 138.014L195.356 138.252L195.266 138.76L193.154 138.377L193.26 137.781L194.62 137.223L193.4 137.002L193.49 136.494L195.602 136.878L195.507 137.412L194.039 138.013L194.038 138.014Z" fill="#252B37"/>
<path d="M194.513 135.735L195.741 135.888L195.68 136.395L193.551 136.13L193.631 135.469L195.141 135.113L193.761 134.4L193.841 133.739L195.971 134.005L195.91 134.511L194.667 134.355L195.853 134.97L195.797 135.432L194.514 135.736L194.513 135.735Z" fill="#252B37"/>
<path d="M195.7 132.228L195.648 132.978L196.035 133.14L195.997 133.709L193.911 132.762L193.953 132.145L196.147 131.517L196.105 132.124L195.699 132.226L195.7 132.228ZM195.214 132.793L195.245 132.341L194.549 132.515L195.213 132.793L195.214 132.793Z" fill="#252B37"/>
<path d="M77.6252 203.606L76.8921 201.59L78.2651 201.096L78.4327 201.557L77.5897 201.86L77.7254 202.233L78.4304 201.98L78.598 202.441L77.893 202.694L78.1551 203.415L77.6252 203.606Z" fill="#252B37"/>
<path d="M80.1812 202.223L79.4821 202.498L79.5042 202.917L78.9739 203.126L78.9197 200.842L79.4937 200.616L81.0162 202.322L80.4492 202.546L80.1804 202.224L80.1812 202.223ZM79.4593 202.029L79.881 201.863L79.4214 201.311L79.4593 202.029Z" fill="#252B37"/>
<path d="M81.2104 202.237L80.353 200.27L80.8701 200.046L81.1892 200.778L81.9152 200.464L81.5961 199.733L82.1131 199.509L82.9704 201.476L82.4534 201.7L82.1107 200.914L81.3847 201.227L81.7274 202.014L81.2104 202.237Z" fill="#252B37"/>
<path d="M83.3407 201.308L82.4251 199.367L83.2194 198.994C83.7435 198.749 84.1536 198.844 84.3497 199.258C84.4675 199.507 84.4153 199.781 84.2048 200.016L85.0239 200.52L84.4157 200.805L83.7139 200.344L83.5467 200.422L83.8518 201.069L83.3407 201.308ZM83.347 200.002L83.6095 199.88C83.8366 199.774 83.9091 199.654 83.8352 199.5C83.7625 199.346 83.6232 199.322 83.3961 199.428L83.1336 199.551L83.347 200.002Z" fill="#252B37"/>
<path d="M86.5915 199.734L85.2364 200.412L84.2708 198.496L85.6078 197.827L85.8285 198.265L84.9961 198.681L85.1344 198.956L85.8891 198.579L86.1098 199.016L85.3551 199.394L85.5203 199.722L86.3716 199.296L86.5923 199.733L86.5915 199.734Z" fill="#252B37"/>
<path d="M87.5908 199.24C87.0986 199.502 86.6426 199.409 86.3839 199.009L86.8872 198.741C86.9882 198.918 87.1674 198.968 87.3735 198.858C87.5443 198.767 87.6225 198.642 87.5593 198.523C87.5153 198.441 87.4019 198.424 87.2797 198.461L86.8991 198.579C86.5653 198.682 86.2707 198.612 86.1067 198.306C85.9177 197.954 86.0952 197.541 86.5185 197.315C86.9685 197.075 87.431 197.161 87.6786 197.554L87.1752 197.822C87.0704 197.657 86.8961 197.609 86.7294 197.696C86.5826 197.775 86.5349 197.901 86.5904 198.004C86.6357 198.088 86.7465 198.094 86.856 198.058L87.2607 197.935C87.6328 197.822 87.9008 197.892 88.0471 198.166C88.2564 198.556 88.0827 198.977 87.5905 199.238L87.5908 199.24Z" fill="#252B37"/>
<path d="M90.7679 197.415L89.6439 195.587L90.8881 194.826L91.1448 195.244L90.3816 195.71L90.59 196.05L91.2282 195.659L91.4849 196.077L90.8467 196.468L91.2492 197.123L90.7681 197.417L90.7679 197.415Z" fill="#252B37"/>
<path d="M92.9985 195.547L92.3684 195.955L92.4728 196.362L91.9949 196.671L91.4881 194.441L92.0066 194.105L93.8372 195.478L93.3272 195.809L93.0003 195.546L92.9985 195.547ZM92.2523 195.499L92.6329 195.252L92.073 194.802L92.2521 195.497L92.2523 195.499Z" fill="#252B37"/>
<path d="M94.0112 195.358L92.7816 193.599L93.244 193.277L93.7019 193.932L94.3499 193.481L93.892 192.826L94.3544 192.505L95.584 194.264L95.1216 194.585L94.6301 193.882L93.9821 194.334L94.4736 195.037L94.0112 195.358Z" fill="#252B37"/>
<path d="M95.9068 194.029L94.6184 192.311L95.3207 191.787C95.7842 191.44 96.2062 191.451 96.4805 191.817C96.646 192.037 96.6509 192.317 96.492 192.589L97.3952 192.919L96.8582 193.32L96.0791 193.011L95.9312 193.121L96.3596 193.692L95.9078 194.029L95.9068 194.029ZM95.6502 192.746L95.8814 192.572C96.0818 192.423 96.1287 192.291 96.0269 192.155C95.9251 192.019 95.7835 192.024 95.5831 192.173L95.3509 192.346L95.6502 192.746Z" fill="#252B37"/>
<path d="M98.7683 191.826L97.5823 192.769L96.2432 191.09L97.4126 190.161L97.718 190.545L96.9902 191.124L97.1818 191.365L97.8425 190.84L98.1479 191.224L97.4872 191.748L97.7169 192.036L98.4622 191.444L98.7676 191.827L98.7683 191.826Z" fill="#252B37"/>
<path d="M99.6366 191.135C99.2112 191.496 98.7462 191.501 98.4096 191.164L98.844 190.796C98.9802 190.947 99.1658 190.959 99.3429 190.808C99.4905 190.683 99.5407 190.543 99.4529 190.439C99.3928 190.368 99.2784 190.376 99.1663 190.439L98.8199 190.634C98.5154 190.806 98.2132 190.8 97.9887 190.535C97.7287 190.23 97.8154 189.789 98.1822 189.478C98.5713 189.149 99.0408 189.135 99.3655 189.467L98.9311 189.835C98.7938 189.696 98.6121 189.685 98.4686 189.807C98.3408 189.915 98.3221 190.049 98.3977 190.138C98.4599 190.211 98.5692 190.193 98.6691 190.136L99.037 189.929C99.3759 189.74 99.6532 189.753 99.8552 189.989C100.142 190.326 100.061 190.774 99.6356 191.135L99.6366 191.135Z" fill="#252B37"/>
<path d="M102.334 188.667L100.826 187.138L101.865 186.115L102.209 186.465L101.571 187.092L101.851 187.375L102.384 186.85L102.728 187.2L102.195 187.725L102.734 188.273L102.333 188.668L102.334 188.667Z" fill="#252B37"/>
<path d="M104.072 186.339L103.555 186.884L103.751 187.255L103.359 187.668L102.345 185.615L102.77 185.167L104.87 186.076L104.451 186.517L104.071 186.338L104.072 186.339ZM103.335 186.466L103.648 186.137L102.998 185.83L103.336 186.465L103.335 186.466Z" fill="#252B37"/>
<path d="M105.007 185.922L103.387 184.512L103.757 184.087L104.359 184.611L104.879 184.016L104.276 183.491L104.646 183.067L106.266 184.477L105.896 184.902L105.248 184.338L104.729 184.933L105.377 185.497L105.007 185.922Z" fill="#252B37"/>
<path d="M106.557 184.125L104.877 182.788L105.422 182.102C105.782 181.649 106.192 181.553 106.551 181.838C106.765 182.009 106.842 182.278 106.758 182.582L107.715 182.673L107.297 183.198L106.464 183.095L106.349 183.24L106.908 183.685L106.557 184.125ZM105.983 182.948L106.163 182.721C106.319 182.525 106.331 182.387 106.197 182.28C106.063 182.173 105.928 182.215 105.771 182.41L105.591 182.637L105.982 182.947L105.983 182.948Z" fill="#252B37"/>
<path d="M108.788 181.202L107.894 182.424L106.16 181.156L107.041 179.95L107.437 180.24L106.888 180.991L107.137 181.173L107.635 180.492L108.03 180.782L107.532 181.463L107.829 181.68L108.391 180.912L108.786 181.202L108.788 181.202Z" fill="#252B37"/>
<path d="M109.477 180.241C109.167 180.704 108.722 180.836 108.305 180.604L108.622 180.131C108.793 180.239 108.975 180.2 109.105 180.006C109.213 179.845 109.222 179.697 109.11 179.622C109.033 179.571 108.924 179.608 108.834 179.699L108.555 179.982C108.31 180.231 108.017 180.306 107.729 180.114C107.396 179.89 107.358 179.442 107.625 179.043C107.908 178.619 108.355 178.477 108.759 178.708L108.442 179.181C108.272 179.086 108.096 179.124 107.991 179.281C107.898 179.42 107.915 179.554 108.012 179.619C108.092 179.672 108.191 179.624 108.273 179.542L108.571 179.243C108.845 178.967 109.115 178.903 109.374 179.077C109.742 179.323 109.786 179.777 109.477 180.241Z" fill="#252B37"/>
<path d="M111.132 177.527L109.255 176.484L109.963 175.209L110.392 175.447L109.957 176.23L110.305 176.423L110.668 175.768L111.097 176.007L110.734 176.662L111.405 177.035L111.132 177.527Z" fill="#252B37"/>
<path d="M112.161 174.737L111.824 175.409L112.12 175.707L111.865 176.217L110.299 174.544L110.575 173.992L112.846 174.254L112.574 174.798L112.16 174.737L112.161 174.737ZM111.494 175.073L111.697 174.668L110.987 174.562L111.494 175.073Z" fill="#252B37"/>
<path d="M112.969 173.984L111.002 173.123L111.226 172.607L111.958 172.926L112.273 172.201L111.542 171.882L111.766 171.366L113.733 172.227L113.509 172.743L112.723 172.399L112.408 173.124L113.194 173.468L112.969 173.984Z" fill="#252B37"/>
<path d="M113.912 171.777L111.903 171.019L112.21 170.199C112.414 169.657 112.773 169.439 113.201 169.601C113.459 169.698 113.613 169.932 113.627 170.246L114.564 170.038L114.328 170.666L113.505 170.824L113.44 170.996L114.109 171.249L113.911 171.776L113.912 171.777ZM113.005 170.832L113.107 170.561C113.196 170.327 113.162 170.191 113.003 170.131C112.844 170.071 112.727 170.151 112.639 170.386L112.538 170.657L113.005 170.832Z" fill="#252B37"/>
<path d="M115.127 168.298L114.661 169.739L112.619 169.074L113.078 167.653L113.545 167.805L113.258 168.69L113.551 168.786L113.811 167.984L114.277 168.136L114.017 168.938L114.366 169.052L114.659 168.147L115.126 168.299L115.127 168.298Z" fill="#252B37"/>
<path d="M115.478 167.164C115.33 167.703 114.951 167.968 114.482 167.879L114.633 167.33C114.83 167.378 114.989 167.283 115.051 167.058C115.103 166.871 115.065 166.727 114.934 166.692C114.845 166.667 114.754 166.738 114.699 166.852L114.523 167.209C114.368 167.522 114.116 167.688 113.782 167.595C113.395 167.488 113.218 167.074 113.345 166.61C113.48 166.118 113.859 165.842 114.314 165.934L114.163 166.484C113.972 166.447 113.816 166.539 113.766 166.72C113.723 166.881 113.782 167.003 113.895 167.035C113.987 167.061 114.066 166.983 114.117 166.879L114.304 166.501C114.477 166.153 114.713 166.007 115.013 166.09C115.44 166.208 115.626 166.624 115.479 167.163L115.478 167.164Z" fill="#252B37"/>
<path d="M116.183 164.064L114.074 163.67L114.337 162.235L114.82 162.325L114.658 163.206L115.049 163.279L115.185 162.542L115.668 162.632L115.532 163.369L116.287 163.51L116.185 164.064L116.183 164.064Z" fill="#252B37"/>
<path d="M116.269 161.088L116.165 161.833L116.54 162.023L116.46 162.587L114.446 161.495L114.532 160.884L116.767 160.412L116.682 161.014L116.27 161.087L116.269 161.088ZM115.745 161.619L115.808 161.17L115.103 161.295L115.745 161.621L115.745 161.619Z" fill="#252B37"/>
<path d="M116.796 160.124L114.659 159.923L114.71 159.361L115.504 159.436L115.575 158.649L114.782 158.574L114.833 158.013L116.969 158.214L116.918 158.775L116.063 158.695L115.992 159.482L116.847 159.562L116.796 160.124Z" fill="#252B37"/>
<path d="M116.999 157.734L114.857 157.631L114.895 156.755C114.922 156.177 115.196 155.858 115.652 155.879C115.926 155.892 116.146 156.067 116.255 156.362L117.082 155.875L117.052 156.547L116.32 156.951L116.312 157.136L117.025 157.169L117 157.733L116.999 157.734ZM115.845 157.114L115.858 156.825C115.87 156.575 115.797 156.454 115.627 156.447C115.456 156.438 115.371 156.552 115.359 156.802L115.346 157.091L115.844 157.115L115.845 157.114Z" fill="#252B37"/>
<path d="M117.087 154.055L117.08 155.571L114.935 155.554L114.941 154.058L115.432 154.062L115.427 154.993L115.735 154.995L115.738 154.15L116.229 154.154L116.226 154.999L116.593 155.002L116.597 154.05L117.088 154.054L117.087 154.055Z" fill="#252B37"/>
<path d="M117.086 152.938C117.104 153.497 116.82 153.863 116.346 153.916L116.327 153.345C116.531 153.334 116.654 153.195 116.646 152.963C116.639 152.769 116.56 152.643 116.426 152.647C116.333 152.65 116.267 152.744 116.248 152.87L116.186 153.263C116.131 153.608 115.939 153.84 115.593 153.852C115.193 153.863 114.9 153.519 114.885 153.039C114.868 152.529 115.149 152.153 115.61 152.108L115.629 152.678C115.435 152.698 115.314 152.834 115.321 153.021C115.326 153.188 115.419 153.287 115.535 153.283C115.631 153.281 115.685 153.184 115.702 153.069L115.769 152.652C115.831 152.267 116.013 152.06 116.323 152.051C116.766 152.038 117.067 152.382 117.084 152.94L117.086 152.938Z" fill="#252B37"/>
<path d="M183.481 123.022L185.176 124.115L184.73 124.807C184.435 125.263 184.062 125.392 183.701 125.159C183.484 125.019 183.387 124.774 183.437 124.483L182.535 124.488L182.876 123.959L183.664 123.977L183.757 123.831L183.192 123.467L183.478 123.023L183.481 123.022ZM184.127 124.067L183.979 124.295C183.852 124.492 183.854 124.625 183.989 124.712C184.123 124.798 184.246 124.747 184.373 124.55L184.521 124.322L184.127 124.067Z" fill="#252B37"/>
<path d="M183.309 125.153C183.81 125.505 183.905 126.129 183.572 126.604C183.237 127.082 182.618 127.204 182.117 126.852C181.616 126.499 181.517 125.872 181.852 125.395C182.185 124.92 182.809 124.8 183.31 125.153L183.309 125.153ZM182.43 126.405C182.69 126.588 183.001 126.591 183.183 126.332C183.365 126.072 183.257 125.781 182.998 125.599C182.739 125.417 182.423 125.41 182.241 125.669C182.059 125.928 182.171 126.223 182.431 126.406L182.43 126.405Z" fill="#252B37"/>
<path d="M180.63 127.129L181.135 126.468L182.737 127.693L182.248 128.334C181.98 128.682 181.659 128.783 181.38 128.57C181.239 128.462 181.186 128.306 181.208 128.111C181.015 128.221 180.827 128.221 180.656 128.092C180.354 127.861 180.345 127.501 180.628 127.129L180.63 127.129ZM181.505 127.354L181.176 127.104L180.987 127.351C180.866 127.509 180.872 127.63 180.975 127.709C181.074 127.783 181.194 127.761 181.315 127.603L181.504 127.355L181.505 127.354ZM182.113 127.82L181.836 127.608L181.662 127.835C181.556 127.976 181.56 128.081 181.647 128.147C181.73 128.209 181.833 128.186 181.939 128.047L182.113 127.82Z" fill="#252B37"/>
<path d="M180.842 128.516C181.312 128.909 181.354 129.538 180.984 129.984C180.61 130.43 179.983 130.503 179.513 130.11C179.042 129.717 178.996 129.085 179.368 128.637C179.74 128.193 180.371 128.124 180.841 128.517L180.842 128.516ZM179.862 129.691C180.107 129.894 180.416 129.923 180.618 129.68C180.821 129.436 180.738 129.137 180.493 128.934C180.249 128.731 179.935 128.699 179.733 128.942C179.53 129.186 179.618 129.488 179.861 129.692L179.862 129.691Z" fill="#252B37"/>
<path d="M178.759 129.435L179.106 130.582L180.204 130.845L179.79 131.301L179.072 131.099L179.321 131.817L178.924 132.253L178.557 131.156L177.404 130.925L177.826 130.462L178.596 130.647L178.34 129.897L178.76 129.435L178.759 129.435Z" fill="#252B37"/>
<path d="M175.604 132.712L176.962 134.203L176.353 134.756C175.951 135.121 175.557 135.15 175.267 134.833C175.092 134.642 175.062 134.38 175.186 134.112L174.312 133.885L174.778 133.461L175.535 133.68L175.664 133.563L175.212 133.067L175.603 132.71L175.604 132.712ZM175.96 133.888L175.758 134.071C175.584 134.229 175.553 134.357 175.661 134.475C175.768 134.593 175.901 134.576 176.075 134.418L176.275 134.236L175.96 133.888Z" fill="#252B37"/>
<path d="M174.884 134.73C175.275 135.202 175.201 135.826 174.754 136.196C174.304 136.568 173.676 136.523 173.285 136.051C172.894 135.579 172.964 134.949 173.413 134.578C173.86 134.209 174.493 134.258 174.884 134.73ZM173.706 135.703C173.908 135.948 174.207 136.032 174.451 135.831C174.695 135.63 174.668 135.32 174.465 135.075C174.263 134.831 173.96 134.742 173.716 134.943C173.472 135.145 173.502 135.458 173.706 135.703Z" fill="#252B37"/>
<path d="M171.773 135.922L172.438 135.422L173.654 137.031L173.009 137.516C172.658 137.78 172.321 137.79 172.11 137.51C172.003 137.369 171.994 137.203 172.067 137.021C171.851 137.075 171.67 137.024 171.541 136.854C171.313 136.551 171.399 136.201 171.773 135.92L171.773 135.922ZM173.018 136.986L172.808 136.709L172.58 136.881C172.439 136.986 172.415 137.09 172.481 137.176C172.543 137.259 172.649 137.265 172.79 137.158L173.017 136.987L173.018 136.986ZM172.556 136.373L172.308 136.044L172.059 136.23C171.899 136.349 171.873 136.469 171.951 136.571C172.026 136.67 172.149 136.68 172.307 136.56L172.555 136.373L172.556 136.373Z" fill="#252B37"/>
<path d="M171.603 137.315C171.949 137.821 171.818 138.437 171.338 138.763C170.856 139.09 170.232 138.988 169.887 138.483C169.542 137.977 169.671 137.356 170.151 137.028C170.631 136.701 171.257 136.809 171.603 137.315ZM170.339 138.176C170.518 138.438 170.808 138.55 171.07 138.372C171.332 138.194 171.334 137.884 171.154 137.622C170.975 137.36 170.681 137.244 170.419 137.422C170.157 137.6 170.16 137.915 170.338 138.177L170.339 138.176Z" fill="#252B37"/>
<path d="M169.346 137.627L169.364 138.823L170.347 139.378L169.823 139.702L169.188 139.312L169.229 140.068L168.726 140.378L168.677 139.224L167.63 138.686L168.163 138.356L168.853 138.746L168.814 137.955L169.346 137.628L169.346 137.627Z" fill="#252B37"/>
<path d="M164.885 140.161L165.754 141.979L165.01 142.332C164.518 142.565 164.132 142.478 163.947 142.09C163.836 141.857 163.883 141.599 164.079 141.378L163.309 140.908L163.878 140.638L164.541 141.067L164.697 140.993L164.408 140.387L164.887 140.161L164.885 140.161ZM164.886 141.388L164.641 141.505C164.429 141.606 164.362 141.718 164.43 141.863C164.499 142.008 164.63 142.028 164.843 141.928L165.088 141.812L164.886 141.388Z" fill="#252B37"/>
<path d="M163.616 141.88C163.854 142.444 163.602 143.021 163.068 143.246C162.531 143.472 161.941 143.248 161.701 142.685C161.462 142.122 161.712 141.539 162.249 141.312C162.783 141.087 163.376 141.317 163.616 141.88ZM162.205 142.472C162.329 142.764 162.591 142.931 162.883 142.808C163.175 142.685 163.238 142.382 163.114 142.089C162.99 141.797 162.726 141.626 162.434 141.747C162.142 141.87 162.081 142.179 162.206 142.471L162.205 142.472Z" fill="#252B37"/>
<path d="M160.288 142.132L161.068 141.843L161.775 143.729L161.019 144.01C160.606 144.164 160.28 144.077 160.158 143.749C160.096 143.583 160.134 143.422 160.256 143.269C160.034 143.258 159.873 143.159 159.8 142.959C159.668 142.604 159.85 142.293 160.288 142.131L160.288 142.132ZM161.179 143.504L161.058 143.178L160.79 143.277C160.624 143.338 160.571 143.43 160.61 143.533C160.647 143.631 160.746 143.665 160.912 143.604L161.18 143.505L161.179 143.504ZM160.911 142.787L160.767 142.4L160.475 142.508C160.288 142.578 160.229 142.684 160.275 142.804C160.318 142.919 160.433 142.964 160.62 142.895L160.912 142.786L160.911 142.787Z" fill="#252B37"/>
<path d="M159.729 143.416C159.92 143.997 159.62 144.552 159.068 144.73C158.513 144.909 157.943 144.637 157.752 144.055C157.562 143.474 157.86 142.914 158.415 142.735C158.968 142.556 159.539 142.834 159.729 143.416ZM158.273 143.888C158.371 144.19 158.619 144.378 158.92 144.28C159.221 144.181 159.31 143.884 159.212 143.584C159.113 143.282 158.864 143.089 158.562 143.186C158.261 143.282 158.174 143.585 158.273 143.888Z" fill="#252B37"/>
<path d="M157.474 143.084L157.161 144.239L157.955 145.042L157.361 145.209L156.858 144.659L156.688 145.398L156.118 145.557L156.389 144.435L155.53 143.629L156.135 143.459L156.692 144.023L156.873 143.253L157.475 143.084L157.474 143.084Z" fill="#252B37"/>
<path d="M152.481 144.32L152.851 146.299L152.04 146.447C151.505 146.546 151.153 146.362 151.075 145.94C151.028 145.686 151.14 145.448 151.387 145.286L150.762 144.634L151.382 144.52L151.911 145.105L152.082 145.074L151.958 144.415L152.479 144.319L152.481 144.32ZM152.163 145.505L151.896 145.555C151.664 145.597 151.569 145.689 151.599 145.845C151.629 146.002 151.749 146.057 151.981 146.015L152.248 145.965L152.162 145.504L152.163 145.505Z" fill="#252B37"/>
<path d="M150.81 145.652C150.9 146.256 150.512 146.753 149.937 146.836C149.359 146.92 148.843 146.556 148.752 145.951C148.662 145.346 149.049 144.844 149.627 144.76C150.202 144.677 150.719 145.046 150.81 145.65L150.81 145.652ZM149.294 145.872C149.341 146.185 149.554 146.413 149.867 146.368C150.18 146.322 150.318 146.044 150.271 145.731C150.225 145.418 150.011 145.185 149.697 145.231C149.384 145.277 149.247 145.56 149.293 145.873L149.294 145.872Z" fill="#252B37"/>
<path d="M147.517 145.073L148.345 144.981L148.574 146.982L147.77 147.071C147.333 147.12 147.038 146.957 146.997 146.608C146.977 146.433 147.054 146.285 147.209 146.167C146.996 146.103 146.864 145.968 146.84 145.756C146.797 145.38 147.05 145.124 147.516 145.072L147.517 145.073ZM148.05 146.619L148.01 146.273L147.725 146.305C147.55 146.324 147.477 146.4 147.489 146.508C147.501 146.611 147.59 146.67 147.766 146.65L148.05 146.619ZM147.964 145.858L147.917 145.448L147.608 145.482C147.409 145.504 147.327 145.592 147.341 145.72C147.356 145.842 147.457 145.913 147.655 145.891L147.965 145.857L147.964 145.858Z" fill="#252B37"/>
<path d="M146.669 146.182C146.718 146.791 146.296 147.26 145.718 147.304C145.135 147.349 144.645 146.951 144.596 146.341C144.547 145.732 144.968 145.258 145.55 145.213C146.129 145.168 146.621 145.573 146.67 146.181L146.669 146.182ZM145.142 146.299C145.167 146.615 145.364 146.856 145.68 146.832C145.997 146.808 146.152 146.539 146.127 146.224C146.102 145.907 145.904 145.662 145.588 145.685C145.272 145.71 145.116 145.984 145.142 146.299Z" fill="#252B37"/>
<path d="M144.547 145.332L143.98 146.385L144.572 147.346L143.956 147.374L143.59 146.725L143.258 147.405L142.667 147.432L143.185 146.401L142.53 145.423L143.158 145.395L143.573 146.069L143.924 145.36L144.548 145.332L144.547 145.332Z" fill="#252B37"/>
<path d="M139.393 145.442L139.344 147.455L138.519 147.433C137.975 147.417 137.67 147.165 137.679 146.736C137.685 146.478 137.846 146.269 138.119 146.162L137.644 145.395L138.275 145.412L138.672 146.094L138.845 146.099L138.861 145.428L139.392 145.443L139.393 145.442ZM138.835 146.534L138.564 146.527C138.328 146.521 138.216 146.59 138.213 146.749C138.209 146.91 138.317 146.988 138.553 146.994L138.825 147.001L138.836 146.533L138.835 146.534Z" fill="#252B37"/>
<path d="M137.48 146.399C137.447 147.009 136.967 147.417 136.387 147.384C135.804 147.35 135.371 146.891 135.402 146.28C135.435 145.67 135.915 145.256 136.498 145.289C137.078 145.322 137.511 145.788 137.479 146.398L137.48 146.399ZM135.95 146.311C135.933 146.628 136.096 146.893 136.413 146.91C136.73 146.928 136.919 146.683 136.937 146.366C136.954 146.05 136.791 145.78 136.474 145.761C136.157 145.743 135.966 145.994 135.95 146.309L135.95 146.311Z" fill="#252B37"/>
<path d="M134.367 145.18L135.198 145.25L135.035 147.256L134.229 147.189C133.79 147.151 133.532 146.936 133.56 146.586C133.574 146.41 133.678 146.281 133.854 146.195C133.656 146.092 133.554 145.934 133.572 145.721C133.603 145.343 133.901 145.141 134.368 145.18L134.367 145.18ZM134.59 146.799L134.618 146.453L134.333 146.43C134.157 146.415 134.071 146.474 134.061 146.584C134.053 146.688 134.129 146.761 134.304 146.776L134.59 146.8L134.59 146.799ZM134.652 146.036L134.685 145.626L134.374 145.599C134.176 145.582 134.078 145.652 134.067 145.781C134.057 145.905 134.142 145.993 134.341 146.01L134.651 146.037L134.652 146.036Z" fill="#252B37"/>
<path d="M133.322 146.104C133.256 146.712 132.754 147.092 132.177 147.026C131.596 146.961 131.189 146.479 131.255 145.871C131.322 145.263 131.825 144.877 132.405 144.943C132.982 145.007 133.39 145.496 133.322 146.104ZM131.798 145.932C131.764 146.247 131.912 146.52 132.228 146.556C132.543 146.591 132.747 146.358 132.781 146.042C132.815 145.727 132.668 145.448 132.353 145.413C132.037 145.377 131.833 145.617 131.798 145.932Z" fill="#252B37"/>
<path d="M131.398 144.872L130.647 145.802L131.053 146.854L130.441 146.769L130.199 146.065L129.748 146.673L129.162 146.591L129.859 145.672L129.394 144.591L130.017 144.678L130.302 145.416L130.777 144.785L131.395 144.87L131.398 144.872Z" fill="#252B37"/>
<path d="M65.6277 153.459L65.0524 151.46L65.5782 151.311L66.1536 153.31L65.6277 153.459Z" fill="#252B37"/>
<path d="M66.6372 151.919L67.004 153.061L66.5328 153.211L65.8963 151.23L66.5117 151.035L67.442 152.22L67.5072 150.719L68.1227 150.524L68.7581 152.504L68.2869 152.654L67.9154 151.498L67.8589 152.789L67.4283 152.926L66.6364 151.92L66.6372 151.919Z" fill="#252B37"/>
<path d="M69.425 151.593L69.639 152.19L69.1235 152.373L68.4207 150.414L69.1842 150.143C69.6971 149.961 70.0876 150.081 70.2456 150.52C70.4042 150.962 70.1857 151.321 69.6738 151.504L69.4258 151.592L69.425 151.593ZM69.0927 150.666L69.2696 151.159L69.515 151.072C69.719 150.999 69.7884 150.858 69.7356 150.708C69.6804 150.555 69.5429 150.505 69.3381 150.579L69.0927 150.666Z" fill="#252B37"/>
<path d="M71.8264 150.969L71.1457 151.231L71.1631 151.637L70.6471 151.836L70.6121 149.621L71.1711 149.406L72.635 151.072L72.0841 151.284L71.8256 150.97L71.8264 150.969ZM71.1267 150.776L71.5376 150.618L71.0956 150.08L71.1267 150.776Z" fill="#252B37"/>
<path d="M72.2022 150.12C71.9657 149.559 72.2124 148.944 72.7576 148.718C73.2827 148.499 73.8363 148.679 74.1114 149.161L73.5775 149.383C73.4364 149.159 73.1878 149.069 72.9522 149.166C72.6687 149.284 72.5822 149.578 72.7195 149.905C72.8581 150.234 73.1305 150.38 73.413 150.262C73.6449 150.165 73.7539 149.925 73.6943 149.663L74.2282 149.441C74.3803 149.981 74.1222 150.496 73.5971 150.715C73.0529 150.943 72.4382 150.684 72.2004 150.12L72.2022 150.12Z" fill="#252B37"/>
<path d="M75.2292 149.965L74.5752 148.521L73.9942 148.782L73.789 148.33L75.4486 147.584L75.6538 148.036L75.0728 148.297L75.7268 149.741L75.2284 149.966L75.2292 149.965Z" fill="#252B37"/>
<path d="M75.8517 148.545C75.5753 147.977 75.8044 147.368 76.344 147.108C76.8861 146.847 77.507 147.046 77.7826 147.616C78.059 148.184 77.8317 148.799 77.2904 149.059C76.7508 149.319 76.1262 149.114 75.8517 148.545ZM77.2749 147.859C77.1319 147.564 76.8525 147.407 76.5584 147.548C76.2635 147.69 76.2144 148.005 76.3584 148.301C76.5014 148.596 76.7836 148.76 77.0775 148.617C77.3724 148.476 77.4187 148.153 77.2749 147.859Z" fill="#252B37"/>
<path d="M78.4765 148.43L77.5128 146.585L78.2683 146.193C78.7664 145.934 79.1683 146.011 79.3734 146.404C79.497 146.641 79.4576 146.909 79.263 147.144L80.0761 147.6L79.4987 147.9L78.8001 147.481L78.6408 147.563L78.9617 148.178L78.4765 148.43ZM78.431 147.163L78.6806 147.034C78.8966 146.921 78.9618 146.802 78.8854 146.656C78.809 146.51 78.6725 146.493 78.4574 146.604L78.2078 146.733L78.4318 147.162L78.431 147.163Z" fill="#252B37"/>
<path d="M82.3732 146.305L81.3093 144.515L81.7797 144.237L82.8436 146.027L82.3732 146.305Z" fill="#252B37"/>
<path d="M82.966 144.554L83.6075 145.568L83.1886 145.832L82.0763 144.072L82.6215 143.729L83.8181 144.644L83.5051 143.173L84.0504 142.83L85.1627 144.59L84.7438 144.854L84.0951 143.827L84.3648 145.092L83.9832 145.332L82.9652 144.555L82.966 144.554Z" fill="#252B37"/>
<path d="M85.5783 143.54L85.9362 144.065L85.4847 144.372L84.3107 142.652L84.9805 142.198C85.4294 141.892 85.8377 141.91 86.1008 142.296C86.3653 142.684 86.2465 143.087 85.7957 143.393L85.5775 143.541L85.5783 143.54ZM85.0227 142.726L85.3185 143.159L85.5342 143.012C85.7136 142.89 85.7451 142.736 85.6542 142.605C85.562 142.471 85.4168 142.457 85.2374 142.579L85.0217 142.725L85.0227 142.726Z" fill="#252B37"/>
<path d="M87.7363 142.328L87.1468 142.756L87.2681 143.145L86.8209 143.469L86.2178 141.334L86.7028 140.983L88.5444 142.22L88.0662 142.567L87.7366 142.33L87.7363 142.328ZM87.0106 142.32L87.3665 142.063L86.8018 141.656L87.0106 142.32Z" fill="#252B37"/>
<path d="M87.8744 141.415C87.4988 140.936 87.5746 140.276 88.0404 139.914C88.4893 139.563 89.0703 139.593 89.4621 139.986L89.0065 140.342C88.8117 140.163 88.5479 140.141 88.3475 140.297C88.1054 140.485 88.1003 140.792 88.3176 141.07C88.538 141.351 88.8383 141.421 89.0804 141.233C89.2792 141.079 89.3204 140.817 89.1942 140.582L89.6499 140.226C89.9387 140.707 89.8264 141.272 89.3774 141.623C88.9117 141.986 88.2512 141.898 87.8754 141.416L87.8744 141.415Z" fill="#252B37"/>
<path d="M90.7441 140.469L89.7237 139.255L89.236 139.664L88.9164 139.285L90.3095 138.117L90.6291 138.496L90.1421 138.904L91.1624 140.118L90.7441 140.469Z" fill="#252B37"/>
<path d="M90.946 138.942C90.5221 138.473 90.5706 137.824 91.0162 137.424C91.4633 137.021 92.1147 137.04 92.5387 137.509C92.9626 137.978 92.9174 138.631 92.4703 139.033C92.0258 139.434 91.3699 139.411 90.946 138.942ZM92.1195 137.887C91.8999 137.644 91.5879 137.569 91.3448 137.789C91.1025 138.007 91.1442 138.325 91.3631 138.569C91.5827 138.812 91.898 138.891 92.1422 138.672C92.3845 138.453 92.3394 138.132 92.1206 137.888L92.1195 137.887Z" fill="#252B37"/>
<path d="M93.4271 138.1L91.9717 136.61L92.5801 136.018C92.9816 135.626 93.3876 135.583 93.6973 135.9C93.8835 136.09 93.924 136.36 93.807 136.64L94.7158 136.842L94.2504 137.297L93.4622 137.098L93.334 137.223L93.8191 137.719L93.4281 138.101L93.4271 138.1ZM93.017 136.901L93.2182 136.705C93.3917 136.534 93.4199 136.402 93.3041 136.284C93.1883 136.166 93.0529 136.189 92.8803 136.358L92.6791 136.554L93.017 136.901Z" fill="#252B37"/>
<path d="M96.1055 135.368L94.5585 133.974L94.9238 133.568L96.4708 134.962L96.1045 135.367L96.1055 135.368Z" fill="#252B37"/>
<path d="M96.1461 133.518L97.0677 134.287L96.7503 134.666L95.1526 133.331L95.5652 132.837L96.985 133.341L96.2354 132.037L96.6481 131.542L98.2459 132.877L97.9285 133.256L96.9962 132.477L97.6411 133.599L97.3514 133.945L96.144 133.516L96.1461 133.518Z" fill="#252B37"/>
<path d="M98.3496 131.692L98.8571 132.074L98.5278 132.512L96.8648 131.257L97.3518 130.61C97.6798 130.176 98.0712 130.064 98.4441 130.344C98.8191 130.626 98.8352 131.049 98.508 131.482L98.3496 131.692ZM97.5621 131.098L97.9816 131.414L98.1377 131.206C98.2682 131.033 98.2477 130.877 98.1203 130.781C97.9908 130.684 97.8487 130.717 97.7182 130.891L97.5621 131.098Z" fill="#252B37"/>
<path d="M100.026 129.79L99.6116 130.39L99.8561 130.717L99.542 131.17L98.2645 129.354L98.6044 128.861L100.75 129.419L100.415 129.904L100.026 129.79ZM99.3409 130.023L99.5905 129.662L98.9227 129.465L99.3409 130.023Z" fill="#252B37"/>
<path d="M99.8865 128.834C99.3691 128.512 99.214 127.867 99.5248 127.365C99.8254 126.882 100.38 126.709 100.883 126.944L100.578 127.436C100.334 127.334 100.078 127.404 99.9449 127.62C99.7833 127.88 99.8831 128.17 100.183 128.357C100.486 128.546 100.793 128.509 100.955 128.249C101.088 128.035 101.037 127.775 100.837 127.596L101.142 127.105C101.578 127.459 101.668 128.027 101.366 128.512C101.055 129.013 100.406 129.157 99.8855 128.833L99.8865 128.834Z" fill="#252B37"/>
<path d="M102.284 126.886L100.899 126.111L100.59 126.667L100.157 126.425L101.043 124.838L101.476 125.08L101.166 125.636L102.551 126.411L102.284 126.888L102.284 126.886Z" fill="#252B37"/>
<path d="M101.96 125.33C101.395 125.047 101.203 124.424 101.47 123.89C101.739 123.351 102.351 123.131 102.916 123.414C103.482 123.698 103.678 124.323 103.41 124.861C103.143 125.396 102.525 125.614 101.96 125.332L101.96 125.33ZM102.665 123.917C102.371 123.77 102.055 123.815 101.908 124.107C101.762 124.4 101.917 124.68 102.21 124.828C102.503 124.975 102.826 124.932 102.971 124.639C103.117 124.346 102.957 124.063 102.665 123.917Z" fill="#252B37"/>
<path d="M103.991 123.565L102.084 122.728L102.423 121.949C102.648 121.434 103.007 121.242 103.415 121.421C103.659 121.527 103.797 121.762 103.793 122.066L104.712 121.913L104.451 122.51L103.646 122.62L103.574 122.784L104.21 123.063L103.99 123.564L103.991 123.565ZM103.16 122.604L103.272 122.347C103.37 122.125 103.345 121.991 103.194 121.924C103.044 121.858 102.926 121.93 102.829 122.152L102.717 122.409L103.16 122.604Z" fill="#252B37"/>
<path d="M105.473 119.892L103.445 119.184L103.63 118.652L105.657 119.36L105.473 119.892Z" fill="#252B37"/>
<path d="M104.783 118.07L105.969 118.427L105.823 118.916L103.768 118.297L103.958 117.66L105.508 117.563L104.267 116.629L104.457 115.992L106.513 116.611L106.367 117.099L105.168 116.738L106.236 117.542L106.103 117.988L104.786 118.071L104.783 118.07Z" fill="#252B37"/>
<path d="M106.122 115.438L106.758 115.593L106.627 116.14L104.541 115.635L104.736 114.822C104.867 114.277 105.189 114.009 105.657 114.122C106.128 114.236 106.316 114.628 106.186 115.173L106.122 115.437L106.122 115.438ZM105.134 115.198L105.66 115.325L105.722 115.064C105.774 114.846 105.691 114.707 105.532 114.668C105.369 114.628 105.25 114.719 105.197 114.936L105.134 115.198Z" fill="#252B37"/>
<path d="M106.922 112.946L106.779 113.684L107.143 113.892L107.035 114.451L105.081 113.258L105.197 112.652L107.453 112.296L107.337 112.894L106.922 112.945L106.922 112.946ZM106.372 113.449L106.458 113.004L105.746 113.091L106.372 113.449Z" fill="#252B37"/>
<path d="M106.395 112.099C105.774 112.007 105.36 111.459 105.449 110.857C105.533 110.275 105.986 109.884 106.558 109.9L106.472 110.49C106.199 110.495 105.988 110.666 105.95 110.925C105.905 111.238 106.118 111.472 106.479 111.525C106.842 111.579 107.116 111.418 107.162 111.105C107.199 110.848 107.044 110.623 106.782 110.536L106.868 109.946C107.426 110.101 107.745 110.604 107.66 111.185C107.572 111.787 107.018 112.191 106.394 112.098L106.395 112.099Z" fill="#252B37"/>
<path d="M107.851 109.317L106.225 109.147L106.158 109.801L105.65 109.748L105.838 107.88L106.347 107.933L106.28 108.586L107.907 108.756L107.849 109.317L107.851 109.317Z" fill="#252B37"/>
<path d="M106.903 108.044C106.253 108.003 105.82 107.487 105.858 106.87C105.896 106.25 106.388 105.794 107.038 105.836C107.688 105.877 108.127 106.393 108.089 107.013C108.052 107.63 107.553 108.086 106.904 108.043L106.903 108.044ZM107.002 106.418C106.664 106.397 106.382 106.568 106.362 106.903C106.341 107.24 106.601 107.445 106.939 107.466C107.275 107.489 107.564 107.318 107.585 106.982C107.606 106.644 107.34 106.44 107.003 106.417L107.002 106.418Z" fill="#252B37"/>
<path d="M108.117 105.636L105.972 105.586L105.989 104.709C106.001 104.131 106.267 103.806 106.724 103.815C106.998 103.821 107.222 103.991 107.339 104.283L108.153 103.776L108.139 104.448L107.416 104.869L107.412 105.054L108.126 105.071L108.115 105.635L108.117 105.636ZM106.949 105.045L106.954 104.755C106.959 104.505 106.883 104.386 106.714 104.382C106.545 104.377 106.461 104.492 106.455 104.743L106.45 105.033L106.949 105.045Z" fill="#252B37"/>
<path d="M191.769 162.015C191.41 162.492 191.047 162.962 190.675 163.428C188.152 166.61 185.249 169.642 182.049 172.439C175.635 178.02 167.977 182.479 159.901 185.336C155.358 186.95 150.592 188.082 145.735 188.7C143.617 188.964 141.441 188.527 139.607 187.469C137.982 186.544 136.558 185.057 135.703 183.39C134.643 181.327 134.346 178.855 134.886 176.604C135.381 174.534 136.565 172.65 138.22 171.297C139.65 170.122 141.384 169.382 143.238 169.159C147.324 168.642 151.393 167.58 155.333 166.004C162.913 162.967 169.67 157.954 174.876 151.506C175.402 150.892 175.88 150.177 176.484 149.447L176.51 149.413C179.157 145.693 181.25 141.77 182.722 137.764C185.593 130.051 186.434 121.639 185.155 113.436C184.844 111.543 185.117 109.535 185.925 107.788C186.92 105.616 188.749 103.826 190.945 102.88C193.236 101.884 195.905 101.815 198.266 102.692C199.152 103.008 200.004 103.471 200.792 104.065C202.336 105.227 203.499 106.792 204.156 108.591C204.512 109.529 204.648 110.526 204.769 111.404L204.775 111.449C204.794 111.617 204.817 111.778 204.843 111.923C205.412 116.203 205.565 120.603 205.304 125.021C205.047 129.393 204.372 133.736 203.295 137.927C201.077 146.631 197.106 154.923 191.77 162.014L191.769 162.015ZM137.458 173.651C136.741 174.604 136.221 175.699 135.943 176.859C135.462 178.863 135.727 181.063 136.669 182.899C137.43 184.382 138.698 185.705 140.146 186.53C141.778 187.472 143.713 187.86 145.596 187.626C150.374 187.017 155.065 185.903 159.535 184.316C167.484 181.503 175.022 177.114 181.333 171.622C184.483 168.869 187.341 165.885 189.823 162.753C195.617 155.479 199.912 146.802 202.241 137.659C203.301 133.533 203.966 129.26 204.218 124.957C204.476 120.608 204.324 116.277 203.768 112.088C203.742 111.944 203.717 111.761 203.696 111.584L203.692 111.552C203.579 110.729 203.451 109.799 203.136 108.969C202.551 107.363 201.515 105.969 200.139 104.934C199.439 104.407 198.683 103.997 197.894 103.716C195.789 102.933 193.416 102.994 191.379 103.88C189.425 104.722 187.797 106.314 186.912 108.249C186.192 109.803 185.95 111.586 186.226 113.272C187.535 121.663 186.674 130.263 183.74 138.147C182.235 142.241 180.097 146.25 177.385 150.059L177.335 150.125C176.71 150.883 176.242 151.585 175.71 152.205C170.4 158.784 163.489 163.91 155.738 167.015C151.713 168.626 147.553 169.71 143.374 170.239C141.723 170.437 140.18 171.094 138.91 172.139C138.365 172.584 137.877 173.095 137.457 173.653L137.458 173.651Z" fill="#F2714A"/>
</g>
<defs>
<clipPath id="clip0_4003_2883">
<rect width="248" height="140" fill="white" transform="translate(0 198.166) rotate(-53.0402)"/>
</clipPath>
</defs>
</svg>
