<svg width="121" height="117" viewBox="0 0 121 117" fill="none" xmlns="http://www.w3.org/2000/svg">
<g clip-path="url(#clip0_2459_7507)">
<path d="M34.8238 62.0617C34.6251 62.3257 34.4235 62.5857 34.2169 62.8429C32.8145 64.6007 31.1804 66.2592 29.3607 67.7719C25.7138 70.7898 21.2879 73.1186 16.56 74.5077C13.8995 75.2928 11.0911 75.7922 8.21328 75.9913C6.95774 76.0749 5.64441 75.7517 4.51543 75.0803C3.51477 74.4929 2.61576 73.5856 2.0518 72.5947C1.35215 71.3674 1.09417 69.9284 1.34341 68.6445C1.57109 67.4644 2.21669 66.4134 3.16109 65.6849C3.97592 65.0522 4.98717 64.6809 6.08638 64.6121C8.50878 64.4462 10.904 63.9653 13.2031 63.1822C17.6291 61.6732 21.4996 58.9945 24.397 55.436C24.6909 55.0977 24.9532 54.7008 25.2903 54.2984L25.3045 54.2796C26.7631 52.2151 27.8855 50.0148 28.634 47.7472C30.0973 43.3815 30.3248 38.5452 29.2948 33.7605C29.0466 32.6555 29.1447 31.5041 29.571 30.5209C30.0938 29.2969 31.1279 28.3218 32.4079 27.8467C33.7431 27.345 35.3339 27.392 36.7715 27.9761C37.3109 28.1877 37.8345 28.4833 38.3244 28.8519C39.2841 29.574 40.0293 30.5169 40.4799 31.5782C40.723 32.1326 40.8367 32.7131 40.9375 33.2248L40.9422 33.2507C40.9593 33.3486 40.9783 33.4426 40.9978 33.5279C41.4766 36.0201 41.712 38.569 41.6986 41.115C41.6882 43.6356 41.4257 46.124 40.9197 48.5114C39.8791 53.4716 37.7785 58.1363 34.824 62.0628L34.8238 62.0617ZM2.78275 67.0211C2.38586 67.5485 2.11064 68.1648 1.98224 68.8272C1.76061 69.9698 1.99041 71.2507 2.61289 72.342C3.11512 73.2247 3.91502 74.0307 4.80624 74.5545C5.81118 75.1522 6.97876 75.4401 8.09537 75.3656C10.9275 75.1696 13.6905 74.6782 16.3083 73.9057C20.9615 72.5382 25.3184 70.2461 28.9069 67.2764C30.698 65.787 32.3063 64.1547 33.6865 62.425C36.9094 58.4097 39.1893 53.5308 40.2819 48.3206C40.7802 45.9703 41.0381 43.5214 41.0485 41.0411C41.0606 38.5344 40.8296 36.0264 40.3613 33.586C40.3414 33.5012 40.3201 33.3956 40.3019 33.2925L40.2981 33.2735C40.2038 32.7945 40.0974 32.2526 39.8825 31.7624C39.4807 30.8147 38.8169 29.9752 37.9621 29.332C37.527 29.0046 37.0626 28.7428 36.5824 28.5543C35.3 28.0332 33.8859 27.9913 32.6983 28.4375C31.559 28.861 30.639 29.7286 30.1741 30.818C29.7951 31.6928 29.708 32.7156 29.9285 33.6995C30.9829 38.5938 30.7494 43.5384 29.2539 48.0006C28.4887 50.3184 27.3434 52.5667 25.8484 54.6808L25.8209 54.7174C25.4722 55.1352 25.2161 55.5251 24.9186 55.8669C21.9627 59.4978 18.0049 62.2362 13.4784 63.7795C11.1293 64.5797 8.68124 65.0718 6.20279 65.2412C5.22362 65.3019 4.32449 65.6313 3.60034 66.1944C3.28984 66.4342 3.01451 66.7131 2.78189 67.0222L2.78275 67.0211Z" fill="#44ADE2"/>
<path d="M83.1489 29.4788C83.0586 29.5988 82.9681 29.7178 82.8759 29.8363C81.3959 31.755 79.7097 33.5122 77.8655 35.0574C73.7868 38.4924 68.8268 41.0099 63.5245 42.3383C61.2473 42.9142 58.8227 43.288 56.3168 43.4484C51.3037 43.7601 45.9958 43.1198 40.9673 41.5977C38.136 40.7436 35.3391 39.5904 32.6557 38.17C31.4878 37.549 30.5057 36.5845 29.8897 35.4551C29.3402 34.4598 29.0675 33.2773 29.1422 32.2121C29.2339 30.8938 29.8434 29.6537 30.8143 28.8109C31.7059 28.0346 32.8944 27.5846 34.1611 27.5451C35.2566 27.5067 36.3746 27.776 37.3946 28.3242C39.6532 29.5216 42.0715 30.4624 44.5794 31.1206C49.4089 32.3873 54.4255 32.4568 59.0873 31.3231C59.3306 31.2717 59.5727 31.2032 59.8283 31.1315C60.057 31.0674 60.2939 31.0004 60.5469 30.9428L60.5705 30.9356C63.0773 30.1565 65.3616 29.0901 67.3527 27.7663C71.2055 25.2318 74.2313 21.6634 76.1039 17.4464C76.5274 16.4683 77.2858 15.6427 78.239 15.1248C79.4184 14.4765 80.9094 14.297 82.3279 14.6332C83.8113 14.9796 85.2024 15.8841 86.1434 17.1148C86.5009 17.5709 86.7958 18.0819 87.0178 18.6311C87.4526 19.7065 87.5677 20.8331 87.3502 21.8884C87.2434 22.4444 87.0067 22.9492 86.798 23.3954L86.7868 23.4183C86.7444 23.5027 86.707 23.5846 86.6749 23.6608C85.7116 25.6925 84.5266 27.6452 83.1468 29.479L83.1489 29.4788ZM30.6689 29.9446C30.1585 30.623 29.8455 31.4543 29.7848 32.3241C29.7181 33.2728 29.9608 34.3263 30.4515 35.2137C31.0006 36.2202 31.8743 37.0782 32.9139 37.6313C35.555 39.0288 38.3079 40.1641 41.0939 41.0047C46.0441 42.5036 51.2687 43.1341 56.203 42.8266C58.67 42.6683 61.0576 42.3008 63.2979 41.7338C68.5166 40.4266 73.3974 37.9488 77.4134 34.5677C79.2286 33.0463 80.8877 31.3171 82.3453 29.4281C83.8167 27.5209 85.0765 25.4795 86.0821 23.3606C86.1138 23.2851 86.1562 23.1926 86.2005 23.1042L86.208 23.0875C86.4036 22.6708 86.625 22.1984 86.7191 21.7062C86.9133 20.7622 86.811 19.758 86.4232 18.7995C86.2262 18.3111 85.9647 17.8575 85.6462 17.4514C84.806 16.352 83.5676 15.5472 82.2474 15.2385C80.9837 14.9392 79.6557 15.0989 78.6039 15.6768C77.7549 16.138 77.0801 16.8725 76.7027 17.744C74.7879 22.0572 71.695 25.704 67.7574 28.2937C65.7222 29.6451 63.3887 30.7354 60.8225 31.5332L60.7765 31.5461C60.5237 31.6047 60.2939 31.669 60.0714 31.7315C59.8055 31.8062 59.5546 31.877 59.3008 31.9304C54.5449 33.0872 49.4167 33.0161 44.4788 31.7206C41.9167 31.0485 39.4461 30.0862 37.1356 28.8614C36.2259 28.3729 35.2311 28.1328 34.2558 28.1668C33.1264 28.2021 32.067 28.6025 31.2734 29.2941C31.0492 29.4888 30.8467 29.707 30.6683 29.9442L30.6689 29.9446Z" fill="#3369FF"/>
<path d="M27.9165 32.6717C27.2637 33.5392 26.57 34.3714 25.8382 35.1658C24.315 36.8256 22.5642 38.374 20.6351 39.7667C16.7718 42.543 12.1682 44.5895 7.32135 45.6851C4.59404 46.3045 1.7356 46.6319 -1.1745 46.6582C-2.45402 46.6665 -3.76491 46.2637 -4.86742 45.5236C-5.8444 44.8753 -6.6974 43.9148 -7.20636 42.8883C-7.83705 41.619 -8.00612 40.1636 -7.67036 38.8948C-7.36304 37.728 -6.64038 36.7154 -5.63571 36.0447C-4.76897 35.4609 -3.71869 35.1503 -2.59936 35.1486C-0.158852 35.1287 2.27509 34.796 4.63203 34.1584C9.16872 32.9297 13.2228 30.5108 16.3562 27.1639C16.5224 26.998 16.6784 26.8174 16.8444 26.6263C17.0011 26.4462 17.1522 26.2708 17.3213 26.0956L17.3403 26.0731C18.9354 24.1194 20.2008 22.0089 21.097 19.8103C22.8427 15.5784 23.3805 10.8082 22.6513 6.01357C22.4711 4.89442 22.6444 3.74767 23.1399 2.79049C23.7498 1.59812 24.8609 0.685409 26.1898 0.287316C27.5766 -0.134261 29.1869 0.00874812 30.6077 0.679549C31.1406 0.923914 31.653 1.25042 32.1265 1.64877C33.0533 2.4294 33.7487 3.41714 34.1372 4.50598C34.3479 5.07535 34.4266 5.6608 34.4952 6.17785L34.4986 6.20279C34.5092 6.30119 34.5231 6.39397 34.5365 6.47927C34.8594 8.98298 34.9334 11.5267 34.7577 14.0527C34.586 16.553 34.1628 19.0073 33.5007 21.3462C32.3443 25.4649 30.4349 29.3274 27.9169 32.6739L27.9165 32.6717ZM-6.21229 37.6577C-6.54511 38.1 -6.79209 38.6051 -6.93498 39.1501C-7.22807 40.2577 -7.08072 41.5276 -6.5304 42.6344C-6.08616 43.5299 -5.3419 44.3682 -4.48787 44.9348C-3.52548 45.5811 -2.38223 45.9321 -1.26676 45.9247C1.58837 45.8991 4.3942 45.5787 7.07018 44.9699C11.8294 43.8943 16.3479 41.8858 20.1393 39.1609C22.0331 37.7936 23.7515 36.2736 25.246 34.6451L25.2465 34.6445C28.7363 30.8614 31.3368 26.1701 32.7666 21.0785C33.4167 18.7824 33.8317 16.3739 34 13.9194C34.1725 11.4393 34.1004 8.94261 33.785 6.49999C33.7707 6.41584 33.7556 6.30868 33.7436 6.20395L33.7413 6.18696C33.6774 5.70924 33.6055 5.16831 33.4233 4.67497C33.0828 3.72068 32.4756 2.85831 31.6659 2.17657C31.2535 1.8296 30.8087 1.54589 30.3432 1.33255C29.1003 0.745505 27.6962 0.620649 26.4865 0.987606C25.3269 1.33495 24.3575 2.13152 23.824 3.17282C23.3918 4.00844 23.2404 5.00694 23.3983 5.98409C24.147 10.907 23.5958 15.8023 21.804 20.1436C20.886 22.3992 19.587 24.5623 17.9481 26.5717L17.9064 26.619C17.7467 26.7844 17.5986 26.9558 17.4552 27.1208C17.2725 27.3315 17.1087 27.5197 16.935 27.6943C13.7272 31.1213 9.56594 33.6036 4.90962 34.864C2.49319 35.5177 -0.0028194 35.8592 -2.51032 35.8797C-3.4888 35.8818 -4.40376 36.1519 -5.15963 36.6607C-5.56872 36.9337 -5.92333 37.271 -6.21315 37.6562L-6.21229 37.6577Z" fill="#42C1C7"/>
<path d="M84.2442 22.6669C85.3608 21.1829 84.911 18.9603 83.2394 17.7025C81.5679 16.4448 79.3076 16.6281 78.191 18.1121C77.0744 19.5961 77.5242 21.8187 79.1958 23.0765C80.8673 24.3342 83.1276 24.1508 84.2442 22.6669Z" fill="#252B37"/>
<path d="M56.4482 59.6073C57.5648 58.1233 57.115 55.9007 55.4434 54.643C53.7719 53.3852 51.5116 53.5686 50.395 55.0525C49.2784 56.5365 49.7282 58.7591 51.3998 60.0169C53.0713 61.2747 55.3316 61.0913 56.4482 59.6073Z" fill="#252B37"/>
<path d="M9.73287 72.7806C10.8495 71.2967 10.3996 69.0741 8.72809 67.8163C7.05654 66.5585 4.79628 66.7419 3.67966 68.2259C2.56304 69.7098 3.01289 71.9325 4.68444 73.1902C6.35599 74.448 8.61625 74.2646 9.73287 72.7806Z" fill="#252B37"/>
<path d="M37.9978 35.1703C39.1144 33.6863 38.6645 31.4637 36.993 30.2059C35.3214 28.9482 33.0612 29.1316 31.9445 30.6155C30.8279 32.0995 31.2778 34.3221 32.9493 35.5799C34.6209 36.8376 36.8811 36.6543 37.9978 35.1703Z" fill="#252B37"/>
<path d="M0.839076 42.9169C1.9557 41.4329 1.50584 39.2103 -0.165709 37.9525C-1.83726 36.6948 -4.09752 36.8781 -5.21414 38.3621C-6.33076 39.8461 -5.8809 42.0687 -4.20935 43.3265C-2.5378 44.5842 -0.277545 44.4008 0.839076 42.9169Z" fill="#252B37"/>
<path d="M31.4047 7.65882C32.5214 6.17485 32.0715 3.95224 30.4 2.69447C28.7284 1.43671 26.4682 1.62008 25.3515 3.10405C24.2349 4.58802 24.6848 6.81064 26.3563 8.0684C28.0279 9.32617 30.2881 9.14279 31.4047 7.65882Z" fill="#252B37"/>
<path d="M60.005 57.004L59.583 57.108L59.5905 57.3499L59.2702 57.4285L59.2705 56.1139L59.6171 56.0284L60.5026 57.1252L60.1611 57.2092L60.005 57.004ZM59.5766 56.8365L59.8313 56.774L59.5647 56.4222L59.5772 56.837L59.5766 56.8365Z" fill="#252B37"/>
<path d="M60.6007 56.2646L60.9049 57.0099L60.619 57.091L60.1306 55.8965L60.4659 55.8007L61.1855 56.3663L60.9034 55.6761L61.1892 55.595L61.6776 56.7894L61.3769 56.8755L60.5996 56.2647L60.6007 56.2646Z" fill="#252B37"/>
<path d="M61.8717 55.9527L62.1776 56.634L61.8997 56.7247L61.3697 55.5427L61.7326 55.4247L62.3866 56.1298L62.3203 55.2332L62.6826 55.1148L63.2127 56.2968L62.9348 56.3874L62.625 55.6979L62.6824 56.4696L62.4285 56.5525L61.8723 55.9532L61.8717 55.9527Z" fill="#252B37"/>
<path d="M64.0011 55.7543L63.5977 55.9018L63.631 56.1443L63.3251 56.2561L63.1827 54.9326L63.514 54.8113L64.5033 55.8251L64.1766 55.9444L64.0005 55.7538L64.0011 55.7543ZM63.5617 55.6295L63.8051 55.5405L63.5048 55.2134L63.5621 55.6289L63.5617 55.6295Z" fill="#252B37"/>
<path d="M66.1426 54.8883L65.7508 55.058L65.7976 55.2999L65.5005 55.4281L65.2841 54.1053L65.6063 53.9665L66.6461 54.9333L66.3284 55.0701L66.143 54.8877L66.1426 54.8883ZM65.6991 54.7864L65.9354 54.684L65.6184 54.3712L65.6985 54.7859L65.6991 54.7864Z" fill="#252B37"/>
<path d="M66.6026 54.0548L67.0174 54.759L66.7529 54.884L66.0886 53.7558L66.3984 53.6094L67.1874 54.0707L66.8033 53.4183L67.0677 53.2933L67.7321 54.4214L67.4536 54.5529L66.6021 54.0554L66.6026 54.0548Z" fill="#252B37"/>
<path d="M67.7856 53.5516L68.1911 54.1905L67.9358 54.3233L67.2324 53.215L67.5656 53.0415L68.3131 53.6531L68.1048 52.7616L68.438 52.5881L69.1415 53.6965L68.8862 53.8293L68.4759 53.1822L68.6547 53.9495L68.4216 54.0704L67.7861 53.551L67.7856 53.5516Z" fill="#252B37"/>
<path d="M69.8191 53.0302L69.4518 53.2398L69.5237 53.4792L69.2455 53.6386L68.891 52.3291L69.1922 52.1566L70.3173 53.0247L70.02 53.1948L69.8185 53.0298L69.8191 53.0302ZM69.3719 52.9721L69.5934 52.8452L69.2487 52.5625L69.3719 52.9721Z" fill="#252B37"/>
<path d="M71.7422 51.8262L71.3922 52.0596L71.4787 52.2956L71.2134 52.4728L70.7768 51.1786L71.0643 50.9868L72.2355 51.791L71.9523 51.9798L71.7418 51.8268L71.7422 51.8262ZM71.2956 51.7954L71.5066 51.6543L71.1461 51.3911L71.295 51.7949L71.2956 51.7954Z" fill="#252B37"/>
<path d="M72.0375 50.9153L72.5634 51.5536L72.3303 51.7227L71.4881 50.6997L71.7616 50.5009L72.6058 50.8327L72.1189 50.2418L72.3521 50.0726L73.1943 51.0957L72.9493 51.2738L72.0382 50.9158L72.0375 50.9153Z" fill="#252B37"/>
<path d="M73.0824 50.2141L73.592 50.7855L73.3704 50.9634L72.4861 49.9722L72.7747 49.74L73.6088 50.2245L73.2427 49.3646L73.5313 49.1324L74.4156 50.1236L74.1941 50.3015L73.6787 49.723L73.9938 50.4631L73.792 50.6255L73.083 50.2146L73.0824 50.2141Z" fill="#252B37"/>
<path d="M74.9347 49.3347L74.6227 49.6127L74.7384 49.8394L74.5016 50.0497L73.9065 48.8L74.1627 48.5721L75.413 49.239L75.1605 49.4634L74.9347 49.3347ZM74.4941 49.3576L74.6823 49.1904L74.2954 48.9691L74.4937 49.3581L74.4941 49.3576Z" fill="#252B37"/>
<path d="M76.5432 47.7517L76.2569 48.0545L76.3892 48.274L76.1721 48.5035L75.4831 47.2915L75.7176 47.0428L77.0069 47.6191L76.775 47.8644L76.5417 47.7524L76.5432 47.7517ZM76.1098 47.8078L76.2824 47.6253L75.8826 47.4319L76.1098 47.8078Z" fill="#252B37"/>
<path d="M76.6568 46.7515L77.2978 47.2822L77.1128 47.5001L76.0855 46.6493L76.3028 46.3939L77.1796 46.5525L76.5857 46.0608L76.7708 45.843L77.7981 46.6938L77.6037 46.9226L76.6568 46.7515Z" fill="#252B37"/>
<path d="M77.5247 45.7963L78.1403 46.2577L77.9704 46.4835L76.9032 45.6831L77.1246 45.3888L78.0274 45.6922L77.4809 44.9113L77.7023 44.617L78.7696 45.4174L78.5997 45.6431L77.9771 45.1764L78.4464 45.8482L78.2916 46.0539L77.524 45.7958L77.5247 45.7963Z" fill="#252B37"/>
<path d="M79.1008 44.4681L78.8732 44.8161L79.0371 45.0163L78.864 45.2799L77.9991 44.1664L78.1862 43.8802L79.5298 44.2638L79.345 44.5454L79.1001 44.4677L79.1008 44.4681ZM78.689 44.5906L78.8266 44.3809L78.4079 44.2475L78.689 44.5906Z" fill="#252B37"/>
<path d="M80.2499 42.4544L80.0593 42.8256L80.2406 43.0121L80.0956 43.2932L79.1355 42.2513L79.2921 41.9467L80.6528 42.2097L80.4985 42.5098L80.2499 42.4544ZM79.8558 42.6151L79.9709 42.3912L79.5454 42.2947L79.8562 42.6146L79.8558 42.6151Z" fill="#252B37"/>
<path d="M80.0954 41.4271L80.8371 41.7973L80.7212 42.0599L79.532 41.4659L79.6682 41.1575L80.5331 41.0986L79.8459 40.7552L79.9619 40.4925L81.1511 41.0866L81.0291 41.3626L80.0959 41.4265L80.0954 41.4271Z" fill="#252B37"/>
<path d="M80.6548 40.2602L81.3558 40.5639L81.2583 40.8315L80.0428 40.3045L80.1703 39.9556L81.0976 40.0295L80.3757 39.3905L80.5025 39.0411L81.7179 39.5682L81.6204 39.8358L80.9111 39.5284L81.5321 40.079L81.4434 40.3228L80.6548 40.2602Z" fill="#252B37"/>
<path d="M81.7692 38.5381L81.6514 38.9426L81.8599 39.0995L81.7699 39.4068L80.6568 38.52L80.7537 38.1875L82.1146 38.2252L82.0193 38.5527L81.7692 38.5381ZM81.4175 38.7657L81.4892 38.5216L81.0611 38.4958L81.4184 38.7646L81.4175 38.7657Z" fill="#252B37"/>
<path d="M82.2932 36.2393L82.2163 36.6576L82.4367 36.7975L82.3786 37.1145L81.1959 36.323L81.2596 35.9798L82.6036 35.8938L82.5416 36.232L82.2938 36.2398L82.2932 36.2393ZM81.9689 36.5001L82.0155 36.2479L81.5915 36.2608L81.9693 36.4995L81.9689 36.5001Z" fill="#252B37"/>
<path d="M81.8696 35.2575L82.6641 35.4382L82.6269 35.7288L81.3535 35.4383L81.3974 35.0972L82.1913 34.8193L81.4556 34.6515L81.4928 34.3608L82.7663 34.6514L82.7267 34.9572L81.8701 35.2569L81.8696 35.2575Z" fill="#252B37"/>
<path d="M82.0792 33.9555L82.8172 34.0839L82.797 34.3748L81.5177 34.1523L81.544 33.773L82.4333 33.6161L81.5867 33.1589L81.6131 32.7796L82.893 33.0025L82.8728 33.2934L82.1261 33.1629L82.854 33.5567L82.8357 33.8222L82.0798 33.956L82.0792 33.9555Z" fill="#252B37"/>
<path d="M82.6735 31.9665L82.667 32.3984L82.9036 32.5048L82.8989 32.8325L81.623 32.217L81.6281 31.8619L82.9174 31.5701L82.9123 31.9198L82.6733 31.9655L82.6735 31.9665ZM82.402 32.2777L82.4055 32.0172L81.9961 32.095L82.4013 32.2773L82.402 32.2777Z" fill="#252B37"/>
<path d="M14.5144 69.3913L14.0112 68.2017L14.8147 67.9606L14.9297 68.2324L14.4363 68.3803L14.5295 68.6007L14.9421 68.4771L15.0572 68.749L14.6446 68.8726L14.8245 69.298L14.5144 69.3913Z" fill="#252B37"/>
<path d="M15.9954 68.6744L15.587 68.8111L15.6139 69.0541L15.3041 69.1576L15.1974 67.835L15.5327 67.723L16.4971 68.7592L16.1659 68.8698L15.9949 68.6749L15.9954 68.6744ZM15.5581 68.5387L15.8045 68.4565L15.5121 68.1228L15.5581 68.5387Z" fill="#252B37"/>
<path d="M16.61 68.7162L16.0342 67.5509L16.3356 67.4384L16.5499 67.8717L16.973 67.714L16.7587 67.2807L17.0601 67.1682L17.6359 68.3336L17.3346 68.4461L17.1044 67.9802L16.6812 68.138L16.9114 68.6038L16.61 68.7162Z" fill="#252B37"/>
<path d="M17.8511 68.2486L17.2413 67.0962L17.7034 66.9069C18.0082 66.7818 18.2561 66.8502 18.3866 67.0961C18.4651 67.2437 18.4428 67.4006 18.3248 67.5293L18.8302 67.8478L18.4764 67.9924L18.0425 67.7035L17.9452 67.7431L18.1484 68.1269L17.8511 68.2486ZM17.8123 67.4936L17.965 67.4313C18.0971 67.3777 18.1365 67.3106 18.0874 67.2191C18.039 67.1281 17.955 67.1096 17.8229 67.1633L17.6702 67.2256L17.8123 67.4936Z" fill="#252B37"/>
<path d="M19.7406 67.4446L18.9538 67.7923L18.315 66.6529L19.0913 66.3098L19.2373 66.57L18.754 66.7836L18.8455 66.9474L19.2837 66.7535L19.4297 67.0137L18.9915 67.2076L19.1008 67.4026L19.5951 67.1838L19.741 67.444L19.7406 67.4446Z" fill="#252B37"/>
<path d="M20.3212 67.1913C20.0359 67.3266 19.7607 67.2582 19.5933 67.0186L19.885 66.8801C19.951 66.9852 20.0596 67.0204 20.1791 66.9635C20.2781 66.9163 20.3207 66.8463 20.2791 66.7757C20.2502 66.727 20.1819 66.7133 20.1102 66.7309L19.8868 66.7866C19.6909 66.8352 19.5128 66.7853 19.4049 66.603C19.2806 66.3931 19.3732 66.1602 19.6185 66.0432C19.8793 65.919 20.1581 65.9838 20.3187 66.2192L20.027 66.3577C19.959 66.2592 19.8534 66.2253 19.7568 66.2707C19.6717 66.3115 19.6474 66.3826 19.6838 66.4441C19.7136 66.4942 19.7799 66.5012 19.8442 66.4842L20.0817 66.4257C20.3001 66.3726 20.4624 66.4222 20.5586 66.585C20.6963 66.8175 20.6063 67.055 20.321 67.1903L20.3212 67.1913Z" fill="#252B37"/>
<path d="M22.1584 66.2397L21.4279 65.1459L22.1459 64.7464L22.3127 64.9963L21.8723 65.2413L22.0078 65.4444L22.376 65.2391L22.5428 65.489L22.1746 65.6943L22.4361 66.0862L22.1586 66.2408L22.1584 66.2397Z" fill="#252B37"/>
<path d="M23.4288 65.2318L23.066 65.4474L23.1415 65.686L22.8663 65.8494L22.4912 64.5433L22.7898 64.3661L23.9272 65.2193L23.6335 65.3939L23.4299 65.2317L23.4288 65.2318ZM22.9818 65.1801L23.201 65.0496L22.8521 64.771L22.9816 65.179L22.9818 65.1801Z" fill="#252B37"/>
<path d="M24.0273 65.1559L23.236 64.0987L23.5016 63.928L23.7962 64.3215L24.1684 64.0815L23.8737 63.688L24.1393 63.5173L24.9306 64.5745L24.665 64.7452L24.3487 64.3228L23.9766 64.5628L24.2929 64.9852L24.0273 65.1559Z" fill="#252B37"/>
<path d="M25.1158 64.4491L24.2908 63.4139L24.693 63.1339C24.9583 62.9487 25.2106 62.9685 25.3863 63.1893C25.4922 63.3218 25.5043 63.4839 25.4182 63.6358L25.9681 63.8562L25.6607 64.0706L25.1855 63.8661L25.1008 63.925L25.3751 64.2692L25.1164 64.4495L25.1158 64.4491ZM24.9209 63.6992L25.0533 63.6064C25.168 63.5262 25.1917 63.4519 25.1265 63.3697C25.0613 63.2875 24.9769 63.2858 24.8622 63.3659L24.7292 63.4583L24.9209 63.6992Z" fill="#252B37"/>
<path d="M26.7517 63.269L26.0745 63.7752L25.2204 62.7611L25.8883 62.2621L26.083 62.4937L25.6674 62.8048L25.7897 62.9505L26.167 62.6688L26.3617 62.9003L25.9844 63.1821L26.1309 63.3558L26.5566 63.038L26.7513 63.2695L26.7517 63.269Z" fill="#252B37"/>
<path d="M27.2479 62.8976C27.0057 63.0922 26.7283 63.0804 26.5163 62.8744L26.7637 62.6756C26.8499 62.7674 26.9611 62.7803 27.0619 62.6986C27.1459 62.6312 27.1713 62.5519 27.1156 62.4893C27.0774 62.4463 27.0093 62.447 26.9444 62.4796L26.744 62.5812C26.5679 62.6706 26.3873 62.6573 26.2447 62.4972C26.0795 62.3121 26.1169 62.0601 26.3258 61.8923C26.5473 61.7145 26.8271 61.7218 27.0317 61.9241L26.7844 62.1229C26.6979 62.0381 26.5891 62.0261 26.5074 62.0917C26.4346 62.1497 26.4279 62.2269 26.4759 62.281C26.5154 62.325 26.58 62.3181 26.6378 62.2882L26.8507 62.1808C27.0468 62.0823 27.2128 62.0989 27.341 62.2419C27.5231 62.4461 27.4894 62.7026 27.2472 62.8972L27.2479 62.8976Z" fill="#252B37"/>
<path d="M28.778 61.5582L27.8279 60.6249L28.4146 60.0676L28.6313 60.2807L28.2711 60.6227L28.4474 60.7957L28.7485 60.5094L28.9652 60.7226L28.6641 61.0088L29.0041 61.3434L28.7775 61.5587L28.778 61.5582Z" fill="#252B37"/>
<path d="M29.7393 60.2686L29.4483 60.567L29.5775 60.7877L29.357 61.0138L28.6851 59.794L28.9241 59.5487L30.2071 60.1427L29.9711 60.384L29.7386 60.2681L29.7393 60.2686ZM29.3036 60.3185L29.4794 60.1384L29.0817 59.9394L29.304 60.3179L29.3036 60.3185Z" fill="#252B37"/>
<path d="M30.2837 60.0579L29.2705 59.1899L29.4775 58.9563L29.8544 59.2793L30.145 58.9521L29.7681 58.6291L29.9751 58.3955L30.9884 59.2635L30.7814 59.4971L30.3761 59.1501L30.0855 59.4774L30.4907 59.8244L30.2837 60.0579Z" fill="#252B37"/>
<path d="M31.1505 59.0697L30.1039 58.2419L30.4071 57.8631C30.6074 57.6129 30.8488 57.5708 31.0722 57.7469C31.206 57.853 31.2604 58.0112 31.2201 58.184L31.7942 58.2678L31.562 58.5576L31.0616 58.4711L30.9975 58.5509L31.3457 58.8263L31.1505 59.0697ZM30.7694 58.3703L30.8696 58.2452C30.9563 58.1368 30.9587 58.0572 30.8755 57.9909C30.7922 57.9247 30.7127 57.9446 30.6255 58.0525L30.5253 58.1776L30.7688 58.3698L30.7694 58.3703Z" fill="#252B37"/>
<path d="M32.3869 57.4519L31.8933 58.1294L30.8168 57.34L31.3036 56.6717L31.549 56.8519L31.2459 57.2682L31.4004 57.3818L31.6754 57.0042L31.9208 57.1845L31.6458 57.562L31.8304 57.6972L32.1404 57.2718L32.3859 57.452L32.3869 57.4519Z" fill="#252B37"/>
<path d="M32.7669 56.9188C32.597 57.1767 32.3356 57.2387 32.0792 57.0905L32.2529 56.8274C32.3589 56.8956 32.4663 56.8788 32.5372 56.7711C32.5966 56.6815 32.5973 56.5961 32.5278 56.5492C32.4804 56.5171 32.4164 56.5352 32.3659 56.5849L32.2083 56.7393C32.0699 56.875 31.8979 56.9094 31.7196 56.7886C31.5134 56.6487 31.4765 56.3882 31.6225 56.166C31.7777 55.9302 32.0402 55.8628 32.2887 56.0095L32.1149 56.2726C32.0104 56.2118 31.9063 56.2283 31.8487 56.3156C31.7977 56.3927 31.8124 56.4709 31.8725 56.5117C31.9219 56.5452 31.9797 56.5207 32.0256 56.4756L32.1939 56.3123C32.3485 56.1619 32.5076 56.1339 32.6677 56.2427C32.8953 56.397 32.9367 56.6609 32.7669 56.9188Z" fill="#252B37"/>
<path d="M33.6667 55.4041L32.5124 54.7396L32.8933 54.0257L33.1571 54.1776L32.9232 54.6156L33.137 54.7389L33.3323 54.3721L33.596 54.524L33.4007 54.8908L33.8138 55.1282L33.6667 55.4041Z" fill="#252B37"/>
<path d="M34.19 53.8244L34.011 54.2017L34.1974 54.384L34.0616 54.6703L33.0726 53.6522L33.2193 53.342L34.5832 53.5672L34.4388 53.8729L34.1894 53.824L34.19 53.8244ZM33.8031 53.997L33.9109 53.7693L33.4835 53.6848L33.8031 53.997Z" fill="#252B37"/>
<path d="M34.648 53.4153L33.4457 52.8534L33.563 52.5622L34.01 52.7706L34.1745 52.3618L33.7274 52.1534L33.8447 51.8622L35.047 52.4241L34.9297 52.7153L34.4494 52.4908L34.285 52.8996L34.7653 53.1241L34.648 53.4153Z" fill="#252B37"/>
<path d="M35.1395 52.17L33.9153 51.6667L34.0722 51.2022C34.176 50.8954 34.3831 50.781 34.6439 50.8886C34.801 50.9531 34.9009 51.0936 34.9192 51.2757L35.4718 51.1858L35.3516 51.5411L34.8655 51.6057L34.8323 51.7034L35.2394 51.871L35.1389 52.1695L35.1395 52.17ZM34.5674 51.5945L34.6193 51.4411C34.6645 51.3087 34.6401 51.2286 34.5431 51.1887C34.4461 51.1488 34.3789 51.1913 34.3343 51.3242L34.2824 51.4776L34.5674 51.5945Z" fill="#252B37"/>
<path d="M35.7511 50.1982L35.5199 51.0159L34.2795 50.5649L34.5075 49.7582L34.7908 49.8613L34.6486 50.3638L34.8265 50.4288L34.9554 49.9735L35.2387 50.0766L35.1098 50.5319L35.3219 50.6091L35.4673 50.0956L35.7507 50.1987L35.7511 50.1982Z" fill="#252B37"/>
<path d="M35.9235 49.5539C35.853 49.8606 35.6349 50.0017 35.3524 49.935L35.4244 49.6223C35.5438 49.6566 35.6357 49.6068 35.6655 49.4788C35.6903 49.3721 35.6629 49.288 35.5837 49.2633C35.5294 49.2457 35.4776 49.2837 35.4481 49.3483L35.3549 49.5485C35.2727 49.7247 35.1273 49.8122 34.9249 49.7476C34.6905 49.6732 34.5715 49.428 34.6321 49.1639C34.6966 48.884 34.914 48.737 35.1886 48.8049L35.1166 49.1177C35.0013 49.09 34.9113 49.1386 34.8874 49.2414C34.8667 49.3333 34.9059 49.4057 34.9741 49.4276C35.0302 49.4455 35.0751 49.4033 35.102 49.3448L35.2014 49.1323C35.2933 48.9365 35.4295 48.86 35.6108 48.9177C35.8697 48.9997 35.9944 49.2466 35.9239 49.5533L35.9235 49.5539Z" fill="#252B37"/>
<path d="M36.2436 47.7846L34.9717 47.488L35.0822 46.6672L35.3731 46.7348L35.3054 47.2388L35.5413 47.2937L35.5984 46.8722L35.8893 46.9398L35.8322 47.3613L36.2875 47.4676L36.2447 47.7845L36.2436 47.7846Z" fill="#252B37"/>
<path d="M36.1983 46.067L36.1603 46.494L36.3901 46.6159L36.3612 46.9397L35.1234 46.2427L35.1545 45.892L36.4732 45.6922L36.4422 46.0376L36.1987 46.0664L36.1983 46.067ZM35.9027 46.3566L35.926 46.0993L35.5087 46.1487L35.9029 46.3576L35.9027 46.3566Z" fill="#252B37"/>
<path d="M36.4811 45.5262L35.1994 45.3404L35.2116 45.0175L35.6877 45.0867L35.7047 44.6341L35.2285 44.5649L35.2406 44.242L36.5223 44.4277L36.5102 44.7506L35.9975 44.6763L35.9806 45.129L36.4932 45.2033L36.4811 45.5262Z" fill="#252B37"/>
<path d="M36.5247 44.1512L35.2426 44.0223L35.2368 43.5168C35.2337 43.1833 35.387 43.0078 35.6599 43.035C35.8241 43.0512 35.9612 43.1597 36.0358 43.334L36.5135 43.0795L36.5177 43.4666L36.0936 43.6764L36.095 43.7831L36.5216 43.8258L36.5252 44.1506L36.5247 44.1512ZM35.8155 43.7553L35.8139 43.5886C35.8126 43.4444 35.7652 43.372 35.6634 43.3626C35.5614 43.3521 35.5141 43.4149 35.5155 43.5591L35.517 43.7259L35.815 43.7559L35.8155 43.7553Z" fill="#252B37"/>
<path d="M36.4577 42.027L36.503 42.9033L35.2221 42.8237L35.177 41.9592L35.4698 41.9773L35.4975 42.5154L35.6815 42.5267L35.6557 42.0384L35.9486 42.0565L35.9743 42.5448L36.1937 42.5587L36.1653 42.0083L36.4581 42.0264L36.4577 42.027Z" fill="#252B37"/>
<path d="M36.4203 41.3813C36.4492 41.7047 36.2916 41.9074 36.0104 41.9222L35.9806 41.5919C36.1017 41.5917 36.1709 41.5158 36.1584 41.3811C36.1482 41.2687 36.0969 41.1935 36.0169 41.1914C35.9615 41.19 35.9251 41.2423 35.918 41.3148L35.8937 41.5399C35.872 41.7375 35.7648 41.8654 35.5586 41.8606C35.3205 41.8542 35.1344 41.6461 35.1097 41.368C35.0832 41.0724 35.2386 40.8644 35.5124 40.8529L35.5421 41.1832C35.427 41.1888 35.3591 41.263 35.3691 41.3716C35.3778 41.4686 35.4364 41.5288 35.5059 41.5301C35.563 41.5319 35.5919 41.4775 35.5982 41.4115L35.6246 41.1728C35.6493 40.9524 35.7512 40.8384 35.936 40.8433C36.1999 40.8503 36.3906 41.0591 36.4188 41.382L36.4203 41.3813Z" fill="#252B37"/>
<path d="M75.0791 26.2456L76.1267 26.9328L75.8828 27.3185C75.722 27.5725 75.5033 27.6353 75.28 27.4887C75.1458 27.4003 75.0801 27.2559 75.1008 27.089L74.5623 27.0624L74.7488 26.7677L75.2194 26.8041L75.2706 26.7227L74.9215 26.494L75.0776 26.2463L75.0791 26.2456ZM75.4987 26.871L75.4181 26.9983C75.3486 27.108 75.3543 27.1848 75.4374 27.2393C75.5204 27.2937 75.5922 27.268 75.6616 27.1583L75.7423 27.031L75.4987 26.871Z" fill="#252B37"/>
<path d="M75.0464 27.4722C75.3567 27.6922 75.4336 28.0562 75.2502 28.3201C75.0659 28.5851 74.7002 28.6356 74.3899 28.4156C74.0797 28.1956 74.0002 27.8296 74.1844 27.5647C74.3678 27.3008 74.7361 27.2522 75.047 27.4727L75.0464 27.4722ZM74.5624 28.1677C74.7235 28.2818 74.9092 28.2935 75.0094 28.1497C75.1096 28.0058 75.0355 27.8336 74.875 27.72C74.7145 27.6064 74.5256 27.5922 74.4254 27.7361C74.3252 27.88 74.4019 28.0541 74.563 28.1682L74.5624 28.1677Z" fill="#252B37"/>
<path d="M73.5112 28.5277L73.7914 28.1621L74.7878 28.9226L74.5162 29.2768C74.3681 29.4696 74.1798 29.5176 74.0062 29.3852C73.9184 29.3183 73.8818 29.2263 73.8886 29.1141C73.7769 29.1715 73.6644 29.1656 73.5586 29.0851C73.3708 28.942 73.3532 28.7337 73.5102 28.5278L73.5112 28.5277ZM74.041 28.6865L73.8365 28.5308L73.7316 28.6676C73.6647 28.7551 73.6724 28.8253 73.7363 28.8743C73.7975 28.9203 73.8688 28.9113 73.9357 28.8238L74.0406 28.687L74.041 28.6865ZM74.4193 28.9756L74.247 28.8441L74.1507 28.9695C74.0918 29.0477 74.0975 29.1084 74.1516 29.1491C74.2031 29.1879 74.2638 29.1781 74.323 29.1009L74.4193 28.9756Z" fill="#252B37"/>
<path d="M73.683 29.3364C73.9765 29.5787 74.0221 29.9442 73.8153 30.1895C73.607 30.4355 73.2349 30.4571 72.9414 30.2148C72.6479 29.9725 72.5997 29.6051 72.8074 29.3586C73.0148 29.1137 73.3891 29.0946 73.6826 29.3369L73.683 29.3364ZM73.1363 29.9838C73.2889 30.1093 73.4744 30.1361 73.5874 30.002C73.7005 29.8678 73.641 29.6923 73.4885 29.5668C73.3359 29.4413 73.1478 29.4125 73.0348 29.5467C72.9217 29.6809 72.9838 29.8583 73.1359 29.9844L73.1363 29.9838Z" fill="#252B37"/>
<path d="M72.4694 29.7995L72.714 30.474L73.3779 30.6621L73.1453 30.9122L72.7104 30.7721L72.8822 31.1949L72.6596 31.4346L72.4049 30.7883L71.7089 30.6172L71.9456 30.363L72.4116 30.4953L72.2343 30.0531L72.47 29.8L72.4694 29.7995Z" fill="#252B37"/>
<path d="M70.6926 31.5916L71.5521 32.4979L71.2064 32.798C70.9786 32.9962 70.7441 32.9997 70.5605 32.807C70.4502 32.6909 70.4238 32.5385 70.4887 32.3878L69.9598 32.2279L70.2244 31.9983L70.6833 32.1494L70.7561 32.086L70.4702 31.7841L70.6924 31.5906L70.6926 31.5916ZM70.9434 32.2833L70.8293 32.3827C70.7304 32.4685 70.7162 32.5411 70.7842 32.6128C70.8522 32.6846 70.9308 32.6793 71.0296 32.5934L71.1433 32.4946L70.9434 32.2833Z" fill="#252B37"/>
<path d="M70.3293 32.7349C70.5781 33.0206 70.5541 33.3793 70.2992 33.5787C70.0429 33.7787 69.6663 33.7325 69.4175 33.4469C69.1687 33.1612 69.1899 32.7995 69.4463 32.5994C69.7007 32.4007 70.0805 32.4493 70.3293 32.7349ZM69.6573 33.2595C69.786 33.4073 69.9676 33.4661 70.1066 33.3577C70.2457 33.2493 70.2196 33.0695 70.0903 32.9212C69.9616 32.7733 69.7779 32.712 69.6389 32.8204C69.4998 32.9288 69.528 33.1111 69.6573 33.2595Z" fill="#252B37"/>
<path d="M68.5107 33.3229L68.8914 33.0554L69.6695 34.0257L69.3001 34.2848C69.099 34.4261 68.8982 34.4209 68.7631 34.2521C68.6951 34.167 68.6839 34.0708 68.722 33.9679C68.5948 33.9922 68.4851 33.9571 68.4021 33.8543C68.2561 33.6719 68.2964 33.4723 68.5104 33.3219L68.5107 33.3229ZM69.2884 33.9788L69.1541 33.8116L69.0233 33.9037C68.9425 33.9602 68.9315 34.019 68.9737 34.0714C69.0138 34.1213 69.0774 34.1279 69.1575 34.071L69.2879 33.9794L69.2884 33.9788ZM68.9926 33.6095L68.8335 33.411L68.6911 33.5106C68.5997 33.5743 68.5879 33.6423 68.638 33.7043C68.6861 33.7637 68.7595 33.7733 68.8502 33.7091L68.992 33.609L68.9926 33.6095Z" fill="#252B37"/>
<path d="M68.4543 34.1228C68.6773 34.4267 68.6192 34.7785 68.3431 34.9512C68.0662 35.1249 67.6905 35.0454 67.4681 34.7421C67.2458 34.4387 67.3022 34.0838 67.5785 33.9095C67.8539 33.7364 68.2313 33.819 68.4543 34.1228ZM67.7277 34.5794C67.8431 34.7369 68.0201 34.811 68.1707 34.7167C68.3213 34.6224 68.3123 34.4429 68.1965 34.2859C68.0811 34.1284 67.9019 34.0517 67.7513 34.146C67.6007 34.2404 67.6125 34.4229 67.7273 34.5799L67.7277 34.5794Z" fill="#252B37"/>
<path d="M67.1178 34.2296L67.1674 34.9221L67.7719 35.2749L67.4696 35.4449L67.0782 35.1987L67.1272 35.6374L66.8372 35.8004L66.77 35.1314L66.1276 34.7859L66.4353 34.6129L66.8597 34.8607L66.8106 34.4021L67.1174 34.2302L67.1178 34.2296Z" fill="#252B37"/>
<path d="M64.5367 35.5496L65.1147 36.629L64.6819 36.809C64.396 36.9277 64.1629 36.865 64.0399 36.6346C63.9655 36.4963 63.9852 36.3483 64.0954 36.2272L63.6201 35.9304L63.9513 35.793L64.3606 36.0624L64.4516 36.0244L64.2594 35.665L64.5378 35.5495L64.5367 35.5496ZM64.5772 36.2594L64.4348 36.3187C64.3115 36.3701 64.2752 36.4331 64.3204 36.5191C64.3667 36.6049 64.4453 36.6211 64.5692 36.5702L64.7116 36.5109L64.5772 36.2594Z" fill="#252B37"/>
<path d="M63.8351 36.502C63.996 36.8361 63.8643 37.1613 63.5527 37.274C63.2395 37.3874 62.8798 37.2384 62.7184 36.9049C62.5577 36.5719 62.6875 36.2426 63.0006 36.1292C63.3123 36.0165 63.6738 36.1685 63.8351 36.502ZM63.0122 36.7985C63.0958 36.9714 63.2578 37.0763 63.4282 37.0147C63.5985 36.9532 63.6261 36.7798 63.5426 36.6068C63.459 36.4338 63.2959 36.3263 63.1254 36.3868C62.955 36.4484 62.9291 36.6249 63.0127 36.7979L63.0122 36.7985Z" fill="#252B37"/>
<path d="M61.8564 36.5393L62.3128 36.3976L62.7964 37.5115L62.3539 37.6493C62.1127 37.7247 61.9154 37.664 61.8314 37.4701C61.7892 37.3721 61.8067 37.2806 61.8747 37.1956C61.7415 37.1823 61.6426 37.1195 61.5921 37.0018C61.5017 36.7923 61.6002 36.6186 61.8568 36.5387L61.8564 36.5393ZM62.4332 37.3617L62.3501 37.1694L62.1935 37.218C62.0964 37.2479 62.068 37.2991 62.0946 37.3602C62.1199 37.4177 62.1802 37.4407 62.2773 37.4109L62.4338 37.3622L62.4332 37.3617ZM62.2498 36.9382L62.1513 36.7101L61.9803 36.7632C61.871 36.7973 61.8393 36.8567 61.8706 36.9277C61.9002 36.9956 61.9706 37.0253 62.0799 36.9912L62.2502 36.9377L62.2498 36.9382Z" fill="#252B37"/>
<path d="M61.5654 37.2636C61.698 37.6059 61.5373 37.9173 61.2134 38.0021C60.888 38.0875 60.5387 37.9114 60.4061 37.5691C60.2735 37.2268 60.4331 36.9128 60.7585 36.8274C61.0828 36.7421 61.4328 36.9213 61.5654 37.2636ZM60.7113 37.4891C60.78 37.667 60.9341 37.7838 61.1106 37.7368C61.2872 37.6897 61.3305 37.5209 61.2619 37.3441C61.1932 37.1661 61.0381 37.0467 60.8613 37.0927C60.6845 37.1387 60.6425 37.3111 60.7113 37.4891Z" fill="#252B37"/>
<path d="M60.2075 36.9982L60.0585 37.6558L60.5588 38.1458L60.2094 38.223L59.8913 37.8888L59.814 38.3104L59.4792 38.3842L59.6039 37.7442L59.0652 37.2502L59.4209 37.1715L59.7716 37.5159L59.8545 37.0762L60.2086 36.9981L60.2075 36.9982Z" fill="#252B37"/>
<path d="M57.2676 37.5507L57.5529 38.7069L57.0738 38.7661C56.7577 38.8057 56.5418 38.688 56.4815 38.4413C56.4449 38.2929 56.5041 38.1594 56.6461 38.0738L56.2518 37.676L56.6186 37.6307L56.953 37.9861L57.0541 37.9736L56.9588 37.5886L57.2669 37.5502L57.2676 37.5507ZM57.1166 38.2256L56.9586 38.2454C56.8218 38.2624 56.768 38.3123 56.7909 38.4038C56.8138 38.4953 56.8876 38.5312 57.0244 38.5142L57.1825 38.4944L57.116 38.2251L57.1166 38.2256Z" fill="#252B37"/>
<path d="M56.314 38.266C56.3875 38.6185 56.1719 38.893 55.8313 38.9222C55.4892 38.9521 55.1693 38.7248 55.0951 38.3718C55.0216 38.0194 55.2366 37.7417 55.5787 37.7118C55.9192 37.6826 56.2398 37.913 56.3138 38.2649L56.314 38.266ZM55.4164 38.3442C55.4544 38.5267 55.5889 38.6655 55.7744 38.6494C55.96 38.6333 56.0331 38.4771 55.9951 38.2945C55.957 38.112 55.8219 37.97 55.6359 37.9867C55.4504 38.0028 55.3779 38.1622 55.4159 38.3447L55.4164 38.3442Z" fill="#252B37"/>
<path d="M54.3288 37.8239L54.8201 37.798L55.0219 38.9621L54.5452 38.9873C54.2856 39.0014 54.1043 38.8981 54.0686 38.6949C54.0507 38.5928 54.0917 38.5101 54.1809 38.4465C54.0515 38.4028 53.9683 38.3205 53.9471 38.1972C53.9093 37.9781 54.0518 37.8383 54.3282 37.8234L54.3288 37.8239ZM54.6977 38.7351L54.6624 38.5341L54.4935 38.543C54.3893 38.5487 54.348 38.5902 54.3591 38.6531C54.3696 38.7129 54.4245 38.7498 54.5287 38.744L54.6977 38.7351ZM54.6212 38.2928L54.58 38.0541L54.3964 38.0636C54.2788 38.07 54.2323 38.1183 54.2451 38.1923C54.258 38.2637 54.3204 38.308 54.4381 38.3017L54.6217 38.2922L54.6212 38.2928Z" fill="#252B37"/>
<path d="M53.8589 38.4377C53.9081 38.7916 53.6715 39.0485 53.3275 39.0555C52.9814 39.0627 52.6756 38.8165 52.6268 38.462C52.5775 38.1081 52.8136 37.8481 53.1597 37.8409C53.5037 37.8339 53.8107 38.0837 53.8593 38.4372L53.8589 38.4377ZM52.9512 38.4556C52.9764 38.6392 53.1019 38.7846 53.29 38.7811C53.4781 38.7777 53.5622 38.6271 53.5366 38.444C53.5114 38.2604 53.3853 38.1118 53.1972 38.1153C53.0098 38.1192 52.9257 38.2725 52.9512 38.4556Z" fill="#252B37"/>
<path d="M52.5647 37.8774L52.2607 38.4677L52.6456 39.0427L52.2786 39.0387L52.0387 38.6515L51.8629 39.0338L51.5108 39.0302L51.7864 38.4509L51.3638 37.8643L51.7378 37.8683L52.0077 38.2719L52.1939 37.8732L52.5658 37.8774L52.5647 37.8774Z" fill="#252B37"/>
<path d="M49.4918 37.7731L49.5284 38.9356L49.0353 38.8956C48.7096 38.8689 48.5193 38.7132 48.5111 38.4654C48.5061 38.3167 48.5951 38.2011 48.7551 38.1478L48.4462 37.6889L48.8234 37.7195L49.0826 38.1266L49.1863 38.1349L49.174 37.7479L49.4913 37.7737L49.4918 37.7731ZM49.1947 38.3864L49.0321 38.3733C48.8913 38.3621 48.8266 38.3985 48.83 38.4905C48.8329 38.5831 48.9 38.6319 49.0409 38.643L49.2034 38.6561L49.1951 38.3858L49.1947 38.3864Z" fill="#252B37"/>
<path d="M48.3814 38.264C48.3817 38.6159 48.1082 38.8361 47.761 38.7977C47.4117 38.7595 47.1384 38.4796 47.137 38.1277C47.1367 37.7758 47.4096 37.5524 47.759 37.5906C48.1065 37.6284 48.38 37.9121 48.3808 38.2635L48.3814 38.264ZM47.4651 38.1634C47.4656 38.3463 47.5713 38.5046 47.7608 38.5246C47.9506 38.5457 48.0558 38.41 48.0559 38.2276C48.0561 38.0451 47.9498 37.8837 47.76 37.8626C47.5702 37.8415 47.4646 37.9804 47.4649 38.1623L47.4651 38.1634Z" fill="#252B37"/>
<path d="M46.4829 37.4577L46.9812 37.5256L46.9492 38.6802L46.4661 38.6148C46.2029 38.5787 46.0418 38.4459 46.0469 38.2448C46.0498 38.1431 46.1074 38.0719 46.2099 38.0282C46.0884 37.9619 46.0224 37.8674 46.0259 37.7448C46.0322 37.5275 46.2036 37.4202 46.4836 37.4582L46.4829 37.4577ZM46.669 38.4014L46.6746 38.2024L46.5035 38.1793C46.3981 38.1653 46.3482 38.1967 46.3462 38.2597C46.3447 38.3193 46.3925 38.3643 46.4975 38.3788L46.6686 38.402L46.669 38.4014ZM46.6811 37.9621L46.6873 37.726L46.5009 37.7003C46.382 37.6842 46.3257 37.7215 46.3233 37.7958C46.3213 37.8668 46.3753 37.9209 46.4943 37.937L46.6806 37.9626L46.6811 37.9621Z" fill="#252B37"/>
<path d="M45.8897 37.9581C45.8698 38.3074 45.5825 38.511 45.236 38.4544C44.8874 38.3979 44.6285 38.1055 44.6484 37.7562C44.6682 37.4069 44.9559 37.2001 45.3042 37.2571C45.6511 37.3132 45.9102 37.6093 45.8897 37.9581ZM44.9745 37.8092C44.9642 37.9903 45.0615 38.153 45.2511 38.1838C45.4406 38.2146 45.5544 38.0862 45.5646 37.9051C45.5749 37.724 45.478 37.558 45.2884 37.5272C45.0989 37.4965 44.9847 37.6281 44.9745 37.8092Z" fill="#252B37"/>
<path d="M44.7005 37.1832L44.2828 37.6967L44.5591 38.3182L44.191 38.2488L44.0241 37.8342L43.7747 38.171L43.4218 38.1041L43.8083 37.5957L43.4955 36.9558L43.8699 37.0263L44.064 37.4623L44.3271 37.1126L44.6992 37.1822L44.7005 37.1832Z" fill="#252B37"/>
<path d="M5.72035 40.0072L5.3118 38.8325L5.62085 38.7634L6.02939 39.9381L5.72035 40.0072Z" fill="#252B37"/>
<path d="M6.27295 39.1493L6.5291 39.8218L6.25268 39.893L5.80827 38.7272L6.16931 38.6346L6.76317 39.3499L6.75327 38.4842L7.11431 38.3916L7.55807 39.5569L7.28166 39.6282L7.0223 38.9479L7.03059 39.6926L6.77802 39.7576L6.27252 39.1499L6.27295 39.1493Z" fill="#252B37"/>
<path d="M7.92626 39.0517L8.07343 39.4041L7.77166 39.493L7.28838 38.3373L7.73534 38.2055C8.0356 38.1173 8.27257 38.1989 8.38118 38.4579C8.49022 38.7189 8.3715 38.9196 8.07188 39.0083L7.92669 39.0512L7.92626 39.0517ZM7.69768 38.5048L7.81936 38.7959L7.96305 38.7537C8.08247 38.7182 8.11926 38.6385 8.08285 38.5502C8.04493 38.4599 7.96122 38.4265 7.84137 38.4625L7.69768 38.5048Z" fill="#252B37"/>
<path d="M9.33961 38.7691L8.94183 38.8985L8.96543 39.1337L8.66387 39.2317L8.57086 37.9499L8.89755 37.844L9.82565 38.8547L9.50369 38.9597L9.33918 38.7697L9.33961 38.7691ZM8.91568 38.6345L9.15581 38.5565L8.87441 38.2311L8.91568 38.6345Z" fill="#252B37"/>
<path d="M9.53631 38.2906C9.37689 37.9585 9.50412 37.6113 9.82223 37.498C10.1285 37.3884 10.4649 37.5108 10.6447 37.7983L10.3333 37.9094C10.2417 37.7752 10.0904 37.715 9.95295 37.7637C9.78756 37.8227 9.74553 37.9898 9.8381 38.183C9.93153 38.3777 10.0989 38.4714 10.2637 38.4119C10.399 38.3634 10.4562 38.2283 10.4121 38.0752L10.7236 37.9641C10.8319 38.281 10.6947 38.5706 10.3884 38.6803C10.0709 38.794 9.69553 38.6243 9.53524 38.2907L9.53631 38.2906Z" fill="#252B37"/>
<path d="M11.3381 38.2996L10.9007 37.4433L10.5624 37.5754L10.4253 37.3075L11.3916 36.9302L11.5288 37.1981L11.1905 37.3302L11.6279 38.1865L11.3377 38.3002L11.3381 38.2996Z" fill="#252B37"/>
<path d="M11.6633 37.4989C11.4799 37.1612 11.5968 36.8169 11.9104 36.6842C12.2255 36.5507 12.6027 36.686 12.7857 37.0242C12.9692 37.3618 12.8535 37.7098 12.5388 37.8426C12.2252 37.9754 11.8457 37.8366 11.6633 37.4989ZM12.4906 37.1484C12.3956 36.9732 12.2237 36.8734 12.0527 36.9452C11.8813 37.0176 11.8622 37.1983 11.9578 37.3741C12.0528 37.5494 12.2266 37.6533 12.3974 37.5804C12.5688 37.508 12.5859 37.3231 12.4906 37.1484Z" fill="#252B37"/>
<path d="M13.2268 37.518L12.5914 36.4197L13.0297 36.2178C13.3186 36.0843 13.561 36.1414 13.6962 36.3756C13.7777 36.5166 13.7629 36.6702 13.6544 36.7997L14.1546 37.0902L13.8197 37.2445L13.389 36.9795L13.2966 37.0219L13.5082 37.3878L13.2268 37.518ZM13.1584 36.7836L13.3032 36.7171C13.4284 36.6592 13.4635 36.5925 13.4131 36.5054C13.3627 36.4183 13.2807 36.404 13.1559 36.4613L13.0111 36.5278L13.1588 36.783L13.1584 36.7836Z" fill="#252B37"/>
<path d="M15.4836 36.4158L14.7903 35.3463L15.062 35.2009L15.7554 36.2703L15.4836 36.4158Z" fill="#252B37"/>
<path d="M15.7802 35.4227L16.1962 36.0302L15.9547 36.1689L15.2334 35.1151L15.5477 34.9345L16.2918 35.5025L16.0571 34.6421L16.3714 34.4615L17.0927 35.5153L16.8513 35.654L16.4306 35.0394L16.6328 35.7796L16.4128 35.9058L15.7798 35.4233L15.7802 35.4227Z" fill="#252B37"/>
<path d="M17.3066 34.9216L17.5373 35.2366L17.2778 35.3993L16.521 34.3672L16.906 34.1261C17.1641 33.9641 17.4084 33.9877 17.578 34.2192C17.7485 34.4522 17.6907 34.6817 17.4316 34.8438L17.3061 34.9221L17.3066 34.9216ZM16.9485 34.4328L17.1391 34.6926L17.2631 34.6149C17.3662 34.5502 17.38 34.4622 17.3215 34.3832C17.2621 34.3027 17.1749 34.29 17.0718 34.3547L16.9478 34.4323L16.9485 34.4328Z" fill="#252B37"/>
<path d="M18.5552 34.2912L18.2172 34.5193L18.3022 34.748L18.0459 34.9212L17.6164 33.6672L17.8944 33.4799L19.034 34.2551L18.7599 34.4399L18.5554 34.2923L18.5552 34.2912ZM18.1217 34.2631L18.3258 34.1258L17.9754 33.872L18.1217 34.2631Z" fill="#252B37"/>
<path d="M18.608 33.7681C18.3682 33.4785 18.392 33.0999 18.6582 32.9055C18.9148 32.7173 19.2626 32.7534 19.5093 32.9936L19.2489 33.1843C19.1268 33.0746 18.9686 33.0531 18.854 33.1369C18.7157 33.2378 18.7226 33.4148 18.8613 33.5828C19.002 33.7522 19.1836 33.8029 19.322 33.7021C19.4357 33.6194 19.4517 33.4694 19.3687 33.3291L19.6292 33.1385C19.8172 33.4258 19.7686 33.749 19.512 33.9372C19.2458 34.1316 18.8486 34.0592 18.6086 33.7685L18.608 33.7681Z" fill="#252B37"/>
<path d="M20.2901 33.3146L19.6415 32.5795L19.3636 32.8L19.1605 32.5702L19.9541 31.9403L20.1572 32.1701L19.8798 32.3901L20.5284 33.1251L20.2901 33.3146Z" fill="#252B37"/>
<path d="M20.361 32.438C20.0926 32.1529 20.1005 31.7793 20.3534 31.5624C20.6072 31.3444 20.9967 31.3761 21.265 31.6612C21.5334 31.9464 21.5276 32.3224 21.2739 32.5405C21.0216 32.7579 20.6293 32.7232 20.361 32.438ZM21.0272 31.8662C20.8882 31.7186 20.6995 31.6653 20.5615 31.7843C20.424 31.9028 20.4592 32.0877 20.5978 32.2358C20.7368 32.3834 20.9276 32.4393 21.0662 32.3207C21.2038 32.2022 21.1664 32.0148 21.0278 31.8667L21.0272 31.8662Z" fill="#252B37"/>
<path d="M21.8148 32.0318L20.8975 31.1233L21.2414 30.8003C21.4683 30.5871 21.7093 30.575 21.9045 30.7685C22.0218 30.8845 22.0547 31.0417 21.994 31.2001L22.5431 31.3466L22.2801 31.5943L21.8031 31.4538L21.7307 31.5219L22.0364 31.8244L21.8154 32.0323L21.8148 32.0318ZM21.531 31.3251L21.6446 31.2182C21.7427 31.1255 21.7552 31.0499 21.6822 30.978C21.6093 30.9062 21.5292 30.9148 21.4316 31.007L21.3179 31.1138L21.531 31.3251Z" fill="#252B37"/>
<path d="M23.3248 30.5396L22.356 29.6835L22.5608 29.4608L23.5297 30.3169L23.3242 30.5391L23.3248 30.5396Z" fill="#252B37"/>
<path d="M23.2887 29.4716L23.8639 29.9465L23.6868 30.1551L22.6896 29.3313L22.9198 29.0588L23.7837 29.3965L23.2938 28.618L23.524 28.3455L24.5213 29.1693L24.3441 29.3779L23.7623 28.8971L24.1838 29.5669L24.0221 29.7576L23.2874 29.4706L23.2887 29.4716Z" fill="#252B37"/>
<path d="M24.5443 28.4874L24.8597 28.7248L24.6773 28.9671L23.6438 28.1876L23.9134 27.8293C24.0951 27.5892 24.3251 27.5367 24.5568 27.7111C24.7898 27.8864 24.8132 28.1313 24.632 28.3709L24.5443 28.4874ZM24.0548 28.1183L24.3155 28.3144L24.402 28.1996C24.4742 28.1036 24.4569 28.0127 24.3777 27.9531C24.2973 27.8926 24.2135 27.9074 24.1413 28.0034L24.0548 28.1183Z" fill="#252B37"/>
<path d="M25.483 27.4422L25.2553 27.7757L25.4118 27.9722L25.2392 28.2245L24.4174 27.1327L24.6043 26.8589L25.9032 27.2509L25.7193 27.5207L25.483 27.4422ZM25.0818 27.5547L25.219 27.3536L24.8139 27.218L25.0818 27.5547Z" fill="#252B37"/>
<path d="M25.3691 26.8849C25.0498 26.6822 24.9362 26.304 25.1054 26.0242C25.2691 25.7544 25.5947 25.6727 25.9027 25.8248L25.7366 26.0991C25.5872 26.0323 25.4371 26.0643 25.3644 26.1851C25.2765 26.3301 25.3454 26.501 25.5308 26.619C25.7175 26.738 25.8996 26.7265 25.9876 26.5815C26.0601 26.4624 26.0211 26.3105 25.8963 26.2004L26.0623 25.9261C26.3341 26.145 26.4062 26.4767 26.2421 26.747C26.0722 27.0264 25.6897 27.0885 25.3685 26.8844L25.3691 26.8849Z" fill="#252B37"/>
<path d="M26.7365 25.8365L25.8848 25.3432L25.7181 25.6546L25.4518 25.5007L25.9289 24.6121L26.1952 24.7659L26.0285 25.0773L26.8802 25.5705L26.7367 25.8375L26.7365 25.8365Z" fill="#252B37"/>
<path d="M26.4929 24.9265C26.1461 24.7443 26.0113 24.378 26.1536 24.0778C26.2964 23.7754 26.6545 23.668 27.0013 23.8502C27.3481 24.0324 27.4858 24.4 27.3429 24.7024C27.2014 25.0031 26.8392 25.1093 26.4931 24.9275L26.4929 24.9265ZM26.8675 24.1326C26.6874 24.0382 26.5001 24.054 26.422 24.2181C26.3446 24.3826 26.446 24.5493 26.6256 24.6442C26.8052 24.7391 26.9966 24.7246 27.074 24.5601C27.1515 24.3955 27.0469 24.2264 26.8675 24.1326Z" fill="#252B37"/>
<path d="M27.6475 23.9722L26.4816 23.4261L26.659 22.9867C26.7765 22.6966 26.9845 22.5971 27.2334 22.7137C27.3828 22.7832 27.4728 22.9234 27.4806 23.0993L28.0237 23.0408L27.8877 23.377L27.4107 23.4146L27.3733 23.5072L27.7615 23.6893L27.6468 23.9717L27.6475 23.9722ZM27.1203 23.3893L27.1788 23.2445C27.2298 23.1191 27.2108 23.0412 27.1185 22.9978C27.0262 22.9543 26.9585 22.992 26.9075 23.1174L26.849 23.2622L27.1203 23.3893Z" fill="#252B37"/>
<path d="M28.4127 21.897L27.1794 21.4218L27.2722 21.1203L28.5055 21.5954L28.4127 21.897Z" fill="#252B37"/>
<path d="M27.9417 20.8211L28.6608 21.066L28.5899 21.3438L27.3428 20.9191L27.4359 20.5569L28.3574 20.5513L27.5863 19.9711L27.6794 19.6088L28.9265 20.0335L28.8556 20.3113L28.1277 20.0634L28.7914 20.5628L28.7265 20.8165L27.9434 20.8215L27.9417 20.8211Z" fill="#252B37"/>
<path d="M28.6548 19.343L29.0399 19.4529L28.9793 19.7652L27.7179 19.405L27.8075 18.9417C27.8679 18.6309 28.0514 18.4862 28.3345 18.5668C28.6194 18.6478 28.7446 18.8807 28.6848 19.1919L28.6552 19.3424L28.6548 19.343ZM28.0576 19.172L28.3755 19.2626L28.4042 19.1133C28.4282 18.989 28.3737 18.9059 28.2776 18.8783C28.179 18.8498 28.1109 18.8988 28.0863 19.0226L28.0576 19.172Z" fill="#252B37"/>
<path d="M29.051 17.9282L28.9896 18.3501L29.2139 18.4822L29.1678 18.8019L27.9623 18.0487L28.0122 17.7024L29.3468 17.5699L29.2975 17.9114L29.0515 17.9276L29.051 17.9282ZM28.739 18.2009L28.776 17.9468L28.3542 17.974L28.739 18.2009Z" fill="#252B37"/>
<path d="M28.7088 17.4211C28.3355 17.3478 28.0706 17.0178 28.1038 16.6723C28.1351 16.3387 28.3929 16.1273 28.7348 16.1554L28.7029 16.4938C28.5401 16.4877 28.4196 16.5796 28.4055 16.7283C28.3883 16.9078 28.5235 17.0498 28.7405 17.0923C28.9593 17.1352 29.1174 17.051 29.1345 16.8714C29.1484 16.7244 29.0485 16.5892 28.8892 16.5302L28.9211 16.1917C29.2594 16.2995 29.4661 16.6009 29.4342 16.934C29.4014 17.279 29.0839 17.4947 28.7082 17.4206L28.7088 17.4211Z" fill="#252B37"/>
<path d="M29.488 15.8602L28.5118 15.7092L28.4934 16.0847L28.1881 16.0376L28.2398 14.964L28.5451 15.0111L28.5267 15.3866L29.5029 15.5376L29.4869 15.8603L29.488 15.8602Z" fill="#252B37"/>
<path d="M28.8804 15.0934C28.491 15.0483 28.216 14.7357 28.2183 14.3804C28.2208 14.0233 28.4997 13.7759 28.8892 13.821C29.2787 13.8661 29.5575 14.1789 29.555 14.5359C29.5527 14.8913 29.2699 15.1385 28.8809 15.0928L28.8804 15.0934ZM28.8867 14.1566C28.6845 14.1333 28.5214 14.2227 28.5202 14.416C28.5191 14.6103 28.6807 14.7372 28.8829 14.7605C29.0847 14.7844 29.2516 14.6952 29.2533 14.5014C29.2544 14.307 29.089 14.1799 28.8872 14.156L28.8867 14.1566Z" fill="#252B37"/>
<path d="M29.5266 13.7403L28.2446 13.642L28.2266 13.1354C28.2147 12.8015 28.3628 12.6221 28.6359 12.6423C28.8 12.6548 28.9392 12.7604 29.0183 12.9327L29.4877 12.6666L29.5013 13.0545L29.0837 13.2745L29.0872 13.381L29.514 13.414L29.526 13.7398L29.5266 13.7403ZM28.8102 13.3606L28.8042 13.1931C28.799 13.0487 28.7496 12.9776 28.6487 12.9697C28.5478 12.9617 28.5012 13.0251 28.506 13.1701L28.512 13.3376L28.8102 13.3606Z" fill="#252B37"/>
<path d="M81.2967 49.0603C81.098 49.3243 80.8963 49.5843 80.6897 49.8414C79.2874 51.5992 77.6533 53.2578 75.8336 54.7704C72.1867 57.7883 67.7608 60.1171 63.0329 61.5062C60.3734 62.2913 57.5651 62.7906 54.6862 62.9899C53.4306 63.0735 52.1173 62.7502 50.9883 62.0788C49.9881 61.4909 49.0893 60.5846 48.5247 59.5932C47.825 58.366 47.567 56.9269 47.8163 55.6431C48.0444 54.4623 48.6896 53.412 49.634 52.6834C50.4488 52.0507 51.4601 51.6795 52.5593 51.6107C54.9817 51.4447 57.3762 50.9634 59.6764 50.1801C64.1024 48.6712 67.9729 45.9925 70.8703 42.4339C71.1648 42.0962 71.4265 41.6988 71.7636 41.2964L71.7778 41.2775C73.2369 39.2125 74.3588 37.0128 75.1067 34.7447C76.5693 30.3785 76.798 25.5421 75.7674 20.758C75.5199 19.6535 75.6174 18.5016 76.0431 17.5179C76.5664 16.2944 77.6 15.3188 78.8799 14.8436C80.2151 14.342 81.8059 14.389 83.2435 14.9731C83.7829 15.1847 84.3065 15.4803 84.7964 15.8489C85.7561 16.571 86.5014 17.5139 86.9519 18.5752C87.195 19.1296 87.3087 19.7101 87.4096 20.2218L87.4143 20.2477C87.4313 20.3456 87.4504 20.4396 87.4703 20.5243C87.9492 23.0175 88.184 25.566 88.1717 28.1119C88.1611 30.6314 87.8993 33.1203 87.3928 35.5083C86.3522 40.4686 84.2516 45.1333 81.2971 49.0597L81.2967 49.0603ZM49.2556 54.0196C48.8587 54.5471 48.5835 55.1634 48.4555 55.8251C48.2339 56.9678 48.4637 58.2487 49.0858 59.3406C49.588 60.2233 50.3879 61.0292 51.2791 61.553C52.2841 62.1508 53.4516 62.4386 54.5682 62.3641C57.4008 62.1676 60.1645 61.6767 62.7811 60.9042C67.4343 59.5368 71.7913 57.2447 75.3797 54.275C77.1709 52.7856 78.7792 51.1532 80.1594 49.4235C83.3808 45.4062 85.6622 40.5294 86.7548 35.3192C87.2535 32.9683 87.5114 30.5194 87.5214 28.0396C87.5341 25.5334 87.3025 23.0249 86.8342 20.5845C86.8139 20.5003 86.7929 20.3942 86.7748 20.291L86.7709 20.272C86.6767 19.793 86.5703 19.2511 86.3554 18.761C85.9535 17.8133 85.2898 16.9737 84.435 16.3305C83.9999 16.0031 83.5355 15.7414 83.0553 15.5528C81.7729 15.0318 80.3588 14.9898 79.1712 15.436C78.0323 15.8589 77.1123 16.7266 76.647 17.8166C76.268 18.6913 76.1816 19.7146 76.4013 20.698C77.4558 25.5923 77.2217 30.5365 75.7268 34.9991C74.9616 37.3169 73.8163 39.5652 72.3213 41.6793L72.2938 41.7159C71.9451 42.1337 71.6885 42.5242 71.3915 42.8655C68.4356 46.4964 64.4774 49.2353 59.9513 50.7781C57.6011 51.5783 55.1535 52.0698 52.6757 52.2397C51.6965 52.3004 50.7974 52.6298 50.0732 53.193C49.7621 53.4323 49.4874 53.7116 49.2548 54.0207L49.2556 54.0196Z" fill="#F2714A"/>
</g>
<defs>
<clipPath id="clip0_2459_7507">
<rect width="137.31" height="87" fill="white" transform="translate(-32 63.7188) rotate(-53.0402)"/>
</clipPath>
</defs>
</svg>
