<svg width="43" height="35" viewBox="0 0 43 35" fill="none" xmlns="http://www.w3.org/2000/svg">
<path d="M5.3125 0.25H37.1875C40.1094 0.25 42.5 2.64062 42.5 5.5625V28.9375C42.5 31.9258 40.1094 34.25 37.1875 34.25H5.3125C2.32422 34.25 0 31.9258 0 28.9375V5.5625C0 2.64062 2.32422 0.25 5.3125 0.25ZM2.125 5.5625V28.9375C2.125 30.7305 3.51953 32.125 5.3125 32.125H37.1875C38.9141 32.125 40.375 30.7305 40.375 28.9375V5.5625C40.375 3.83594 38.9141 2.375 37.1875 2.375H5.3125C3.51953 2.375 2.125 3.83594 2.125 5.5625ZM19.125 13C19.125 14.1953 20.0547 15.125 21.25 15.125C22.3789 15.125 23.375 14.1953 23.375 13C23.375 11.8711 22.3789 10.875 21.25 10.875C20.0547 10.875 19.125 11.8711 19.125 13ZM25.5 13C25.5 14.5273 24.6367 15.9219 23.375 16.7188C22.0469 17.4492 20.3867 17.4492 19.125 16.7188C17.7969 15.9219 17 14.5273 17 13C17 11.5391 17.7969 10.1445 19.125 9.34766C20.3867 8.61719 22.0469 8.61719 23.375 9.34766C24.6367 10.1445 25.5 11.5391 25.5 13ZM23.9062 21.5H18.5938C17.2656 21.5 16.2031 22.4297 15.9375 23.625H26.4961C26.2305 22.4297 25.168 21.5 23.9062 21.5ZM18.5938 19.375H21.25H23.9062C26.4961 19.375 28.6875 21.5664 28.6875 24.1562C28.6875 25.0859 27.957 25.75 27.0938 25.75H15.4062C14.4766 25.75 13.8125 25.0859 13.8125 24.1562C13.8125 21.5664 15.9375 19.375 18.5938 19.375ZM10.5586 11.9375C10.5586 12.5352 11.0234 13 11.6211 13C12.2188 13 12.6836 12.5352 12.6836 11.9375C12.6836 11.4062 12.2188 10.875 11.6211 10.875C11.0234 10.875 10.5586 11.4062 10.5586 11.9375ZM14.8086 11.9375C14.8086 13.1328 14.2109 14.1289 13.2148 14.7266C12.2188 15.3242 11.0234 15.3242 10.0273 14.7266C9.03125 14.1289 8.43359 13.1328 8.43359 11.9375C8.43359 10.8086 9.03125 9.8125 10.0273 9.21484C11.0234 8.61719 12.2188 8.61719 13.2148 9.21484C14.2109 9.8125 14.8086 10.8086 14.8086 11.9375ZM8.5 20.9688V21.5C8.5 22.0977 7.96875 22.5625 7.4375 22.5625C6.83984 22.5625 6.375 22.0977 6.375 21.5V20.9688C6.375 18.9766 8.03516 17.25 10.0938 17.25H13.8125C14.3438 17.25 14.875 17.7812 14.875 18.3125C14.875 18.9102 14.3438 19.375 13.8125 19.375H10.0938C9.16406 19.375 8.5 20.1055 8.5 20.9688ZM30.8125 10.875C30.2148 10.875 29.75 11.4062 29.75 11.9375C29.75 12.5352 30.2148 13 30.8125 13C31.4102 13 31.875 12.5352 31.875 11.9375C31.875 11.4062 31.4102 10.875 30.8125 10.875ZM30.8125 15.125C29.6836 15.125 28.6211 14.5273 28.0234 13.5312C27.4922 12.6016 27.4922 11.3398 28.0234 10.3438C28.6211 9.41406 29.6836 8.75 30.8125 8.75C31.9414 8.75 33.0039 9.41406 33.5352 10.3438C34.1328 11.3398 34.1328 12.6016 33.5352 13.5312C33.0039 14.5273 31.9414 15.125 30.8125 15.125ZM32.4062 19.375H28.6875C28.0898 19.375 27.625 18.9102 27.625 18.3125C27.625 17.7812 28.0898 17.25 28.6875 17.25H32.4062C34.3984 17.25 36.125 18.9766 36.125 20.9688V21.5C36.125 22.0977 35.5938 22.5625 35.0625 22.5625C34.4648 22.5625 34 22.0977 34 21.5V20.9688C34 20.1055 33.2695 19.375 32.4062 19.375Z" fill="#CC3956"/>
</svg>
