<svg width="43" height="35" viewBox="0 0 43 35" fill="none" xmlns="http://www.w3.org/2000/svg">
<path d="M36.125 2.375H6.375C5.17969 2.375 4.25 3.37109 4.25 4.5V15.5234C3.45312 15.7891 2.72266 16.2539 2.125 16.7852V4.5C2.125 2.17578 3.98438 0.25 6.375 0.25H36.125C38.4492 0.25 40.375 2.17578 40.375 4.5V16.7852C39.7109 16.2539 38.9805 15.7891 38.25 15.5234V4.5C38.25 3.37109 37.2539 2.375 36.125 2.375ZM6.375 23.625C7.50391 23.625 8.5 22.6953 8.5 21.5C8.5 20.3711 7.50391 19.375 6.375 19.375C5.17969 19.375 4.25 20.3711 4.25 21.5C4.25 22.6953 5.17969 23.625 6.375 23.625ZM6.375 17.25C7.83594 17.25 9.23047 18.1133 10.0273 19.375C10.7578 20.7031 10.7578 22.3633 10.0273 23.625C9.23047 24.9531 7.83594 25.75 6.375 25.75C4.84766 25.75 3.45312 24.9531 2.65625 23.625C1.92578 22.3633 1.92578 20.7031 2.65625 19.375C3.45312 18.1133 4.84766 17.25 6.375 17.25ZM21.25 23.625C22.3789 23.625 23.375 22.6953 23.375 21.5C23.375 20.3711 22.3789 19.375 21.25 19.375C20.0547 19.375 19.125 20.3711 19.125 21.5C19.125 22.6953 20.0547 23.625 21.25 23.625ZM21.25 17.25C22.7109 17.25 24.1055 18.1133 24.9023 19.375C25.6328 20.7031 25.6328 22.3633 24.9023 23.625C24.1055 24.9531 22.7109 25.75 21.25 25.75C19.7227 25.75 18.3281 24.9531 17.5312 23.625C16.8008 22.3633 16.8008 20.7031 17.5312 19.375C18.3281 18.1133 19.7227 17.25 21.25 17.25ZM38.25 21.5C38.25 20.3711 37.2539 19.375 36.125 19.375C34.9297 19.375 34 20.3711 34 21.5C34 22.6953 34.9297 23.625 36.125 23.625C37.2539 23.625 38.25 22.6953 38.25 21.5ZM31.875 21.5C31.875 20.0391 32.6719 18.6445 34 17.8477C35.2617 17.1172 36.9219 17.1172 38.25 17.8477C39.5117 18.6445 40.375 20.0391 40.375 21.5C40.375 23.0273 39.5117 24.4219 38.25 25.2188C36.9219 25.9492 35.2617 25.9492 34 25.2188C32.6719 24.4219 31.875 23.0273 31.875 21.5ZM2.125 32.125V33.1875C2.125 33.7852 1.59375 34.25 1.0625 34.25C0.464844 34.25 0 33.7852 0 33.1875V32.125C0 29.8008 1.85938 27.875 4.25 27.875H8.5C10.8242 27.875 12.75 29.8008 12.75 32.125V33.1875C12.75 33.7852 12.2188 34.25 11.6875 34.25C11.0898 34.25 10.625 33.7852 10.625 33.1875V32.125C10.625 30.9961 9.62891 30 8.5 30H4.25C3.05469 30 2.125 30.9961 2.125 32.125ZM19.125 30C17.9297 30 17 30.9961 17 32.125V33.1875C17 33.7852 16.4688 34.25 15.9375 34.25C15.3398 34.25 14.875 33.7852 14.875 33.1875V32.125C14.875 29.8008 16.7344 27.875 19.125 27.875H23.375C25.6992 27.875 27.625 29.8008 27.625 32.125V33.1875C27.625 33.7852 27.0938 34.25 26.5625 34.25C25.9648 34.25 25.5 33.7852 25.5 33.1875V32.125C25.5 30.9961 24.5039 30 23.375 30H19.125ZM31.875 32.125V33.1875C31.875 33.7852 31.3438 34.25 30.8125 34.25C30.2148 34.25 29.75 33.7852 29.75 33.1875V32.125C29.75 29.8008 31.6094 27.875 34 27.875H38.25C40.5742 27.875 42.5 29.8008 42.5 32.125V33.1875C42.5 33.7852 41.9688 34.25 41.4375 34.25C40.8398 34.25 40.375 33.7852 40.375 33.1875V32.125C40.375 30.9961 39.3789 30 38.25 30H34C32.8047 30 31.875 30.9961 31.875 32.125Z" fill="#2B7A99"/>
</svg>
