<svg width="34" height="35" viewBox="0 0 34 35" fill="none" xmlns="http://www.w3.org/2000/svg">
<path d="M0 1.3125C0 0.78125 0.464844 0.25 1.0625 0.25H32.9375C33.4688 0.25 34 0.78125 34 1.3125C34 1.91016 33.4688 2.375 32.9375 2.375H1.0625C0.464844 2.375 0 1.91016 0 1.3125ZM4.25 8.75V13H8.5V8.75H4.25ZM2.125 8.75C2.125 7.62109 3.05469 6.625 4.25 6.625H8.5C9.62891 6.625 10.625 7.62109 10.625 8.75V13C10.625 14.1953 9.62891 15.125 8.5 15.125H4.25C3.05469 15.125 2.125 14.1953 2.125 13V8.75ZM4.25 27.875V32.125H8.5V27.875H4.25ZM2.125 27.875C2.125 26.7461 3.05469 25.75 4.25 25.75H8.5C9.62891 25.75 10.625 26.7461 10.625 27.875V32.125C10.625 33.3203 9.62891 34.25 8.5 34.25H4.25C3.05469 34.25 2.125 33.3203 2.125 32.125V27.875ZM19.125 8.75H14.875V13H19.125V8.75ZM14.875 6.625H19.125C20.2539 6.625 21.25 7.62109 21.25 8.75V13C21.25 14.1953 20.2539 15.125 19.125 15.125H14.875C13.6797 15.125 12.75 14.1953 12.75 13V8.75C12.75 7.62109 13.6797 6.625 14.875 6.625ZM14.875 27.875V32.125H19.125V27.875H14.875ZM12.75 27.875C12.75 26.7461 13.6797 25.75 14.875 25.75H19.125C20.2539 25.75 21.25 26.7461 21.25 27.875V32.125C21.25 33.3203 20.2539 34.25 19.125 34.25H14.875C13.6797 34.25 12.75 33.3203 12.75 32.125V27.875ZM29.75 8.75H25.5V13H29.75V8.75ZM25.5 6.625H29.75C30.8789 6.625 31.875 7.62109 31.875 8.75V13C31.875 14.1953 30.8789 15.125 29.75 15.125H25.5C24.3047 15.125 23.375 14.1953 23.375 13V8.75C23.375 7.62109 24.3047 6.625 25.5 6.625ZM25.5 27.875V32.125H29.75V27.875H25.5ZM23.375 27.875C23.375 26.7461 24.3047 25.75 25.5 25.75H29.75C30.8789 25.75 31.875 26.7461 31.875 27.875V32.125C31.875 33.3203 30.8789 34.25 29.75 34.25H25.5C24.3047 34.25 23.375 33.3203 23.375 32.125V27.875ZM1.0625 19.375H32.9375C33.4688 19.375 34 19.9062 34 20.4375C34 21.0352 33.4688 21.5 32.9375 21.5H1.0625C0.464844 21.5 0 21.0352 0 20.4375C0 19.9062 0.464844 19.375 1.0625 19.375Z" fill="#40B7E6"/>
</svg>
