<svg width="43" height="35" viewBox="0 0 43 35" fill="none" xmlns="http://www.w3.org/2000/svg">
<path d="M21.7812 0.449219L31.0781 6.625H38.25C40.5742 6.625 42.5 8.55078 42.5 10.875V30C42.5 32.3906 40.5742 34.25 38.25 34.25H25.5H23.375H19.125H17H4.25C1.85938 34.25 0 32.3906 0 30V10.875C0 8.55078 1.85938 6.625 4.25 6.625H11.3555L20.6523 0.449219C20.9844 0.25 21.4492 0.25 21.7812 0.449219ZM25.5 25.75V32.125H38.25C39.3789 32.125 40.375 31.1953 40.375 30V10.875C40.375 9.74609 39.3789 8.75 38.25 8.75H30.8125C30.5469 8.75 30.3477 8.75 30.2148 8.61719L21.25 2.64062L12.2188 8.61719C12.0859 8.75 11.8867 8.75 11.6875 8.75H4.25C3.05469 8.75 2.125 9.74609 2.125 10.875V30C2.125 31.1953 3.05469 32.125 4.25 32.125H17V25.75C17 23.4258 18.8594 21.5 21.25 21.5C23.5742 21.5 25.5 23.4258 25.5 25.75ZM23.375 32.125V25.75C23.375 24.6211 22.3789 23.625 21.25 23.625C20.0547 23.625 19.125 24.6211 19.125 25.75V32.125H23.375ZM6.375 13C6.375 11.8711 7.30469 10.875 8.5 10.875H10.625C11.7539 10.875 12.75 11.8711 12.75 13V17.25C12.75 18.4453 11.7539 19.375 10.625 19.375H8.5C7.30469 19.375 6.375 18.4453 6.375 17.25V13ZM10.625 13H8.5V17.25H10.625V13ZM31.875 10.875H34C35.1289 10.875 36.125 11.8711 36.125 13V17.25C36.125 18.4453 35.1289 19.375 34 19.375H31.875C30.6797 19.375 29.75 18.4453 29.75 17.25V13C29.75 11.8711 30.6797 10.875 31.875 10.875ZM31.875 13V17.25H34V13H31.875ZM6.375 23.625C6.375 22.4961 7.30469 21.5 8.5 21.5H10.625C11.7539 21.5 12.75 22.4961 12.75 23.625V27.875C12.75 29.0703 11.7539 30 10.625 30H8.5C7.30469 30 6.375 29.0703 6.375 27.875V23.625ZM10.625 23.625H8.5V27.875H10.625V23.625ZM31.875 21.5H34C35.1289 21.5 36.125 22.4961 36.125 23.625V27.875C36.125 29.0703 35.1289 30 34 30H31.875C30.6797 30 29.75 29.0703 29.75 27.875V23.625C29.75 22.4961 30.6797 21.5 31.875 21.5ZM31.875 23.625V27.875H34V23.625H31.875ZM21.25 8.75C19.7227 8.75 18.3281 9.61328 17.5312 10.875C16.8008 12.2031 16.8008 13.8633 17.5312 15.125C18.3281 16.4531 19.7227 17.25 21.25 17.25C22.7109 17.25 24.1055 16.4531 24.9023 15.125C25.6328 13.8633 25.6328 12.2031 24.9023 10.875C24.1055 9.61328 22.7109 8.75 21.25 8.75ZM21.25 19.375C18.9258 19.375 16.8672 18.1797 15.6719 16.1875C14.543 14.2617 14.543 11.8047 15.6719 9.8125C16.8672 7.88672 18.9258 6.625 21.25 6.625C23.5078 6.625 25.5664 7.88672 26.7617 9.8125C27.8906 11.8047 27.8906 14.2617 26.7617 16.1875C25.5664 18.1797 23.5078 19.375 21.25 19.375ZM22.3125 10.875V11.9375H22.8438C23.375 11.9375 23.9062 12.4688 23.9062 13C23.9062 13.5977 23.375 14.0625 22.8438 14.0625H21.25C20.6523 14.0625 20.1875 13.5977 20.1875 13V10.875C20.1875 10.3438 20.6523 9.8125 21.25 9.8125C21.7812 9.8125 22.3125 10.3438 22.3125 10.875Z" fill="#00A9A9"/>
</svg>
